<svg viewBox="0 0 500 500" xmlns="http://www.w3.org/2000/svg" fill-rule="evenodd" clip-rule="evenodd"><g><path fill="none" d="M0-.002h500v500.001h-500z"/><path d="M253.235 55.009c9.81-8.132 12.524-5.77 22.355 3.131 9.82 8.901 9.265 7.459 21.254 15.431 9.799 6.508 15.473 4.894 18.754 17.076 4.061 15.089 1.432 16.104 4.862 30.402 3.42 14.287 5.995 19.416 11.21 30.006 5.215 10.59 11.829 18.85 17.814 27.57 5.995 8.72 12.321 9.906 17.696 31.31 5.418 21.607-.363 38.972-16.585 60.739-9.286 12.449-25.294 25.871-35.168 39.463-12.62 17.354-17.108 17.044-4.723 32.015 13.902 16.809 22.366 23.071 27.014 42.776 4.659 19.694.812 28.553-15.195 42.808-16.189 14.437-47.467 19.331-69.235 19.758-21.757.417-29.814 2.084-48.343 2.18-18.519.096-29.728 3.259-27.762-11.263 1.293-9.489-1.614-17.226 21.532-16.702 23.146.524 43.556-1.336 61.103-5.215 25.775-5.696 24.129-2.02 31.973-15.933 7.523-13.347 1.785-20.699-7.491-33.565-9.275-12.866-20.004-10.825-17.322-33.394 2.671-22.558-2.415-29.173 7.576-41.28 9.981-12.107 17.012-20.378 24.343-30.209 7.341-9.831 15.837-21.49 15.452-42.562-.374-21.083-15.708-32.902-23.68-44.764-7.972-11.861-8.944-36.471-7.726-50.032 1.218-13.571.994-16.969-4.574-26.961-5.567-9.991-20.603-10.526-24.706-20.677-4.093-10.141-10.237-13.988-.427-22.109zm-110.226 87.016c5.161-3.377-1.325-13.016 20.229-7.395s27.142 11.349 37.69 22.227c10.547 10.878 18.551 19.769 24.621 29.974 6.07 10.205 12.845 12.492 14.832 23.691 1.988 11.188-4.445 25.978 10.472 24.407 14.918-1.582 16.681-3.826 21.767-11.199 5.087-7.384 6.818-21.329 16.232-11.648 9.425 9.692 9.724 14.405 5.621 23.445-4.114 9.04-8.474 18.936-17.461 23.958-8.998 5.012-14.437 13.699-31.299 9.671-16.863-4.029-26.854-8.356-38.63-23.242-11.776-14.886-13.422-9.318-19.406-26.8-2.586-7.555 5.589-26.052-6.444-30.006-13.689-4.477-23.637 4.819-39.132-3.334-9.318-4.894-13.197-22.27-9.885-30.925 3.323-8.656 6.112-9.778 10.793-12.823z"/></g></svg>