<?xml version="1.0" encoding="UTF-8" standalone="no"?>
<!DOCTYPE svg PUBLIC "-//W3C//DTD SVG 1.1//EN" "http://www.w3.org/Graphics/SVG/1.1/DTD/svg11.dtd">
<svg width="100%" height="100%" viewBox="0 0 501 501" version="1.1" xmlns="http://www.w3.org/2000/svg" xmlns:xlink="http://www.w3.org/1999/xlink" xml:space="preserve" style="fill-rule:evenodd;clip-rule:evenodd;stroke-linejoin:round;stroke-miterlimit:1.41421;">
    <g transform="matrix(1,0,0,1,-1682,-573)">
        <g id="chi-.--ãƒ" transform="matrix(1.5375,0,0,1.65217,1374.39,1234.82)">
            <rect x="200.586" y="-400.056" width="325.203" height="302.633" style="fill:none;"/>
            <g id="chi" transform="matrix(6.49329,0,0,6.04263,-4010.89,-2949.72)">
                <path d="M676.309,442.123C676.952,442.256 678.217,442.18 678.673,443.725C679.128,445.27 679.283,446.692 678.107,448.331C676.93,449.97 676.509,451.001 676.976,451.94C677.443,452.879 680.359,454.732 680.444,456.671C680.529,458.609 679.638,460.355 679.504,460.971C679.37,461.586 678.418,463.56 677.576,464.192C676.734,464.824 674.901,467.038 674.292,467.02C673.683,467.003 673.193,467.197 673.619,465.714C674.046,464.23 675.436,463.229 676.307,461.636C677.178,460.042 678.09,459.717 677.63,458.154C677.17,456.592 674.867,455.828 674.372,454.052C673.878,452.276 673.74,448.9 674.643,447.696C675.545,446.491 676.729,445.196 676.221,444.749C675.712,444.302 674.38,443.956 674.813,442.926C675.246,441.895 675.755,442.008 676.309,442.123ZM682.383,428.17C682.742,429.486 681.875,431.629 682.277,433.125C682.68,434.62 683.099,436.051 683.926,437.261C684.752,438.471 685.599,438.706 686.714,440.302C687.616,441.593 688.303,442.778 687.683,444.471C687.064,446.165 685.532,447.24 685.691,449.284C685.85,451.329 688.727,452.331 688.707,454.499C688.686,456.667 686.762,459.704 685.843,460.973C684.924,462.242 684.615,463.772 684.138,464.515C683.662,465.257 681.832,467.244 681.429,466.992C681.026,466.74 680.441,466.815 681.17,465.208C681.898,463.601 683.641,462.442 684.211,460.139C684.781,457.836 685.252,454.741 684.518,453.797C683.785,452.852 681.698,451.301 682.522,448.892C683.346,446.483 685.13,445.491 684.754,443.387C684.377,441.284 681.346,439.727 680.305,438.229C679.265,436.73 678.883,432.363 679.564,430.193C680.245,428.022 681.615,425.354 682.383,428.17ZM671.442,433.202C672.134,433.432 674.41,435.615 674.249,437.545C674.089,439.474 674.324,442.446 673.268,444.574C672.212,446.703 670.775,448.761 670.908,450.158C671.04,451.554 673.235,453.249 673.23,455.678C673.226,458.106 672.2,460.01 671.216,460.918C670.233,461.826 669.139,464.414 668.338,464.485C667.537,464.555 666.719,464.395 667.24,463.436C667.762,462.476 670.223,459.613 670.405,457.72C670.587,455.828 669.33,455.502 669.025,453.945C668.72,452.387 668.174,447.041 668.878,445.523C669.582,444.004 671.138,441.553 671.07,440.219C671.002,438.885 670.72,437.268 670.337,436.422C669.954,435.575 668.421,432.197 671.442,433.202ZM665.638,429.936C666.457,430.202 668.217,430.999 668.33,432.559C668.443,434.119 668.288,437.354 667.621,438.833C666.953,440.312 664.07,444.279 663.822,445.475C663.573,446.672 663.235,446.973 663.853,447.908C664.472,448.843 667.025,451.016 666.668,452.762C666.31,454.507 665.736,454.63 664.665,455.209C663.595,455.788 663.17,456.934 662.291,457.765C661.412,458.596 661.075,459.863 660.052,459.728C659.029,459.592 658.146,458.97 658.749,458.168C659.353,457.367 659.9,455.817 660.968,455.212C662.036,454.607 662.713,455.201 662.86,453.508C663.008,451.814 662.677,451.441 662.043,450.363C661.409,449.284 660.563,447.915 661.077,445.842C661.591,443.769 663.091,442.051 663.899,439.852C664.706,437.654 666.292,436.388 665.701,434.999C665.109,433.611 662.652,432.658 663.413,430.966C664.175,429.273 664.86,429.684 665.638,429.936Z"/>
            </g>
        </g>
    </g>
</svg>
