<?xml version="1.0" encoding="UTF-8" standalone="no"?>
<!DOCTYPE svg PUBLIC "-//W3C//DTD SVG 1.1//EN" "http://www.w3.org/Graphics/SVG/1.1/DTD/svg11.dtd">
<svg width="100%" height="100%" viewBox="0 0 500 501" version="1.1" xmlns="http://www.w3.org/2000/svg" xmlns:xlink="http://www.w3.org/1999/xlink" xml:space="preserve" style="fill-rule:evenodd;clip-rule:evenodd;stroke-linejoin:round;stroke-miterlimit:1.41421;">
    <g transform="matrix(1,0,0,1,0,-1721)">
        <g id="e-.--エ" transform="matrix(1.5375,0,0,1.65217,-308.401,2382.53)">
            <rect x="200.586" y="-400.056" width="325.203" height="302.633" style="fill:none;"/>
            <g id="e" transform="matrix(7.08548,0,0,6.59372,-4829.01,-2292.66)">
                <path d="M744.23,305.17C744.23,305.17 746.663,304.942 746.703,306.371C746.743,307.8 746.795,308.795 744.641,309.391C742.626,309.949 738.659,311.232 737.885,312.574C737.11,313.915 736.862,317.549 736.292,318.808C735.444,320.68 733.507,322.973 731.54,323.804C729.539,324.649 725.669,325.261 725.127,324.579C724.586,323.898 726.311,323.793 727.795,323.091C729.279,322.39 732.131,320.274 732.549,318.506C732.871,317.148 733.085,313.034 734.464,310.938C735.843,308.841 739.39,306.193 740.686,305.894C741.983,305.594 742.666,305.254 744.23,305.17ZM729.007,299.271C731.296,299.093 732.255,298.502 736.917,300.604C740.527,302.232 744.221,300.429 746.231,299.134C747.668,298.209 748.751,295.367 749.931,295.124C751.11,294.881 751.402,295.912 750.955,296.556C750.508,297.2 747.816,302.169 745.798,303.041C743.526,304.022 738.95,305.845 736.669,305.23C734.389,304.614 730.808,302.678 728.77,302.835C726.947,302.975 723.096,305.555 720.572,305.293C718.049,305.031 714.413,304.372 714.446,303.595C714.48,302.818 714.1,302.686 715.989,302.805C717.877,302.925 721.281,302.891 723.183,301.673C725.085,300.454 726.913,299.434 729.007,299.271Z"/>
            </g>
        </g>
    </g>
</svg>
