<?xml version="1.0" encoding="UTF-8" standalone="no"?>
<!DOCTYPE svg PUBLIC "-//W3C//DTD SVG 1.1//EN" "http://www.w3.org/Graphics/SVG/1.1/DTD/svg11.dtd">
<svg width="100%" height="100%" viewBox="0 0 501 501" version="1.1" xmlns="http://www.w3.org/2000/svg" xmlns:xlink="http://www.w3.org/1999/xlink" xml:space="preserve" style="fill-rule:evenodd;clip-rule:evenodd;stroke-linejoin:round;stroke-miterlimit:1.41421;">
    <g transform="matrix(1,0,0,1,-2804,-1147)">
        <g id="fu-.--フ" transform="matrix(1.5375,0,0,1.65217,2496.25,1808.68)">
            <rect x="200.586" y="-400.056" width="325.203" height="302.633" style="fill:none;"/>
            <g id="fu" transform="matrix(6.81222,0,0,6.33943,-3816.23,-3381.39)">
                <path d="M603.591,481.237C605.55,481.072 606.543,480.446 608.533,480.448C610.523,480.45 611.47,481.362 613.167,481.192C614.864,481.021 616.246,479.62 617.793,479.722C619.339,479.823 621.255,480.742 620.838,481.836C620.42,482.93 618.472,484.742 618.232,485.385C617.992,486.027 616.753,486.631 618.111,486.798C619.468,486.965 620.325,485.961 620.933,487.174C621.541,488.388 622.175,490.554 621.314,491.096C620.452,491.637 618.737,492.707 619.073,493.465C619.41,494.223 618.797,495 621.059,494.829C623.32,494.657 624.607,494.827 624.592,493.493C624.577,492.159 624.044,489.855 625.589,488.734C627.134,487.613 630.376,485.899 631.529,486.2C632.681,486.501 632.831,487.299 632.366,487.942C631.9,488.586 632.238,489.069 631.466,489.592C630.694,490.114 628.553,490.659 627.787,491.574C627.021,492.49 626.507,492.964 626.901,493.687C627.295,494.411 627.232,494.837 627.051,495.676C626.869,496.515 627.171,496.653 627.418,497.374C627.664,498.096 627.403,498.636 626.957,499.264C626.511,499.893 625.353,501.305 624.209,501.638C623.064,501.972 622.275,501.929 621.395,502.131C620.514,502.333 619.223,502.377 619.495,503.166C619.768,503.956 620.064,504.437 621.583,504.196C623.103,503.955 623.937,504.048 625.402,503.541C626.867,503.034 628.678,502.523 629.159,502.908C629.64,503.294 629.922,503.589 629.072,504.091C628.223,504.593 628.311,504.635 627.294,505.382C626.062,506.287 626.57,507.097 623.281,506.937C619.991,506.776 616.902,507.05 615.079,506.462C613.255,505.875 612.891,505.546 611.619,505.734C610.348,505.921 607.796,507.267 606.416,507.733C605.037,508.2 604.275,508.749 601.935,508.548C599.594,508.346 597.176,507.657 596.881,506.855C596.586,506.053 596.8,506.046 598.144,506.084C599.489,506.122 602.813,506.828 603.997,506.156C605.182,505.484 606.277,504.102 608.383,503.368C610.489,502.633 611.767,502.679 613.229,502.813C614.691,502.947 617.168,503.321 616.759,502.708C616.35,502.096 615.325,501.496 613.253,501.294C611.181,501.091 608.333,500.853 607.098,501.374C605.862,501.894 604.433,503.122 603.516,503.756C602.599,504.39 602.48,504.6 601.225,504.496C599.97,504.391 598.522,502.923 598.28,501.713C598.039,500.502 598.424,499.614 599.374,499.922C600.323,500.23 601.868,500.857 603.256,500.178C604.643,499.5 606.859,497.947 608.666,497.917C610.473,497.886 611.755,497.399 613.407,498.048C615.058,498.696 615.531,499.627 617.232,499.737C618.933,499.846 620.208,499.835 621.045,499.505C621.882,499.174 623.394,498.685 622.638,498.037C621.883,497.39 620.093,497.179 617.831,497.003C615.569,496.827 614.9,497.019 614.542,495.507C614.183,493.995 613.857,493.734 614.387,492.899C614.916,492.063 615.87,491.85 615.414,490.984C614.959,490.118 613.23,489.702 613.305,488.303C613.379,486.905 613.862,486.236 614.428,485.63C614.994,485.025 616.4,484.372 615.915,483.848C615.431,483.323 615.01,483.684 614.325,484.28C613.64,484.876 613.728,485.359 612.477,485.108C611.225,484.857 610.699,482.709 609.377,483.188C608.054,483.667 607.229,484.406 606.883,485.652C606.537,486.898 606.876,487.008 608.042,486.973C609.209,486.939 611.525,487.492 611.513,489.62C611.5,491.748 610.647,493.028 609.889,493.639C609.131,494.249 606.784,495.693 605.082,495.978C603.38,496.263 602.806,496.419 601.791,497.061C600.775,497.703 599.798,498.008 598.42,497.807C597.043,497.605 595.161,497.055 594.666,495.668C594.172,494.281 594.51,491.851 594.944,490.907C595.378,489.963 595.649,488.992 596.398,489.11C597.148,489.229 597.622,489.895 597.316,490.613C597.01,491.331 596.619,492.482 597.187,493.242C597.756,494.002 598.165,494.641 599.201,494.397C600.236,494.153 600.541,492.818 600.778,491.27C601.015,489.721 601.346,488.177 602.136,487.401C602.927,486.625 604.415,485.583 603.931,485.019C603.446,484.454 601.184,484.845 600.763,484.189C600.341,483.533 599.382,483.01 599.039,482.403C598.696,481.796 597.368,480.198 598.519,480.228C599.669,480.258 600.128,480.619 601.144,480.927C602.16,481.235 601.942,481.376 603.591,481.237Z"/>
            </g>
        </g>
    </g>
</svg>
