<?xml version="1.0" encoding="UTF-8" standalone="no"?>
<!DOCTYPE svg PUBLIC "-//W3C//DTD SVG 1.1//EN" "http://www.w3.org/Graphics/SVG/1.1/DTD/svg11.dtd">
<svg width="100%" height="100%" viewBox="0 0 501 500" version="1.1" xmlns="http://www.w3.org/2000/svg" xmlns:xlink="http://www.w3.org/1999/xlink" xml:space="preserve" style="fill-rule:evenodd;clip-rule:evenodd;stroke-linejoin:round;stroke-miterlimit:1.41421;">
    <g transform="matrix(1,0,0,1,-2804,0)">
        <g id="ha-.--ãƒ" transform="matrix(1.5375,0,0,1.65217,2496.25,660.959)">
            <rect x="200.586" y="-400.056" width="325.203" height="302.633" style="fill:none;"/>
            <g id="ha" transform="matrix(7.58004,0,0,7.05396,-4299.06,-3085.27)">
                <path d="M602.942,386.441C604.113,386.947 605.023,384.651 607.17,384.993C609.317,385.334 610.286,386.064 610.197,387.55C610.108,389.037 610.557,389.667 609.799,390.297C609.041,390.928 607.817,392.399 609.105,392.304C610.393,392.209 610.947,391.722 613.144,390.813C615.341,389.904 615.746,389.468 617.281,390.643C618.816,391.819 619.164,393.044 620.1,393.091C621.035,393.137 620.872,392.578 622.11,392.784C623.348,392.991 624.972,393.776 625.221,393.237C625.47,392.697 624.217,391.412 623.008,391.059C621.8,390.706 620.593,388.731 621.701,388.281C622.809,387.831 624.944,387.795 626.08,389.157C627.216,390.52 630.007,392.906 630.103,396.295C630.2,399.683 628.643,402.308 627.626,402.55C626.608,402.791 625.749,402.039 626.199,401.195C626.65,400.352 627.466,399.314 626.63,399.01C625.794,398.706 625.065,398.802 625.045,400.064C625.024,401.326 625.897,402.208 624.431,402.217C622.965,402.226 621.76,402.477 620.934,400.761C620.109,399.045 619.954,398.017 619.44,397.1C618.925,396.183 619.178,395.45 618.307,395.872C617.421,396.3 616.898,397.442 616.112,398.141C615.326,398.839 615.33,399.373 616.002,400.304C616.674,401.235 617.926,402.465 617.759,403.718C617.592,404.97 614.633,410.485 614.839,412.843C615.045,415.2 615.093,417.09 617.29,416.81C619.487,416.531 621.393,414.856 622.298,413.705C623.203,412.554 624.704,411.259 625.169,410.505C625.635,409.751 626.059,408.246 626.521,409.18C626.983,410.113 627.254,411.786 626.699,412.364C626.144,412.942 623.157,414.846 622.486,415.882C621.816,416.919 621.922,418.15 620.991,418.465C620.06,418.781 620.4,418.475 619.384,418.925C618.368,419.375 617.183,419.395 616.196,418.996C615.21,418.598 613.857,418.637 613.166,417.627C612.475,416.617 611.23,414.645 611.298,412.495C611.366,410.346 613.013,407.863 613.634,406.2C614.255,404.538 614.706,403.063 613.942,403.042C613.178,403.021 610.775,402.88 611.174,400.757C611.574,398.634 612.242,397.986 613.345,397.064C614.449,396.142 616.783,393.285 616.259,392.923C615.735,392.56 615.021,392.23 613.972,393.065C612.923,393.901 611.635,395.056 610.298,395.046C608.961,395.035 608.093,394.491 607.59,393.559C607.087,392.628 607.13,391.957 606.436,392.628C605.742,393.298 603.502,395.632 604.489,396.356C605.477,397.081 608.147,397.562 608.046,399.378C607.945,401.195 605.659,403.794 605.847,405.071C606.034,406.349 608.407,407.773 608.302,409.344C608.197,410.914 605.994,413.013 605.83,413.678C605.667,414.344 604.799,415.851 603.665,415.839C602.53,415.827 601.465,415.435 602.289,414.507C603.114,413.579 605.285,412.016 605.096,410.859C604.924,409.798 603.907,408.484 602.627,408.2C601.704,407.994 601.275,406.62 601.887,405.143C602.498,403.667 604.686,402.851 604.664,401.736C604.643,400.621 604.5,399.711 603.04,399.287C601.579,398.863 599.726,396.864 600.891,394.795C602.057,392.725 604.564,391.917 605.129,390.753C605.694,389.59 606.181,388.566 605.365,388.731C604.548,388.896 604.259,389.988 602.77,389.395C601.281,388.802 599.401,387.471 600.234,386.611C601.066,385.751 601.157,385.67 602.942,386.441Z"/>
            </g>
        </g>
    </g>
</svg>
