<?xml version="1.0" encoding="UTF-8" standalone="no"?>
<!DOCTYPE svg PUBLIC "-//W3C//DTD SVG 1.1//EN" "http://www.w3.org/Graphics/SVG/1.1/DTD/svg11.dtd">
<svg width="100%" height="100%" viewBox="0 0 501 501" version="1.1" xmlns="http://www.w3.org/2000/svg" xmlns:xlink="http://www.w3.org/1999/xlink" xml:space="preserve" style="fill-rule:evenodd;clip-rule:evenodd;stroke-linejoin:round;stroke-miterlimit:1.41421;">
    <g transform="matrix(1,0,0,1,-2804,-1721)">
        <g id="he-.--ヘ" transform="matrix(1.5375,0,0,1.65217,2496.25,2382.53)">
            <rect x="200.586" y="-400.056" width="325.203" height="302.633" style="fill:none;"/>
            <g id="he" transform="matrix(6.99731,0,0,6.51167,-3944.42,-3771.13)">
                <path d="M617.991,528.705C619.285,528.553 623.589,527.56 625.054,528.238C627.232,529.247 627.083,530.318 626.534,531.809C625.986,533.301 625.438,533.578 625.905,534.85C626.371,536.121 626.606,535.962 626.061,537.033C625.516,538.104 622.086,540.598 621.71,541.326C621.334,542.055 620.292,542.787 620.742,543.493C621.193,544.199 622.201,544.646 621.384,544.82C620.567,544.994 618.986,544.301 617.727,544.651C616.467,545.001 615.603,547.151 614.703,547.392C613.803,547.633 611.87,548.688 612.73,548.954C613.589,549.22 615.089,548.36 616.074,549.144C617.06,549.928 616.406,551.467 616.89,552.206C617.374,552.944 617.526,553.455 618.132,552.564C618.738,551.672 618.189,551.144 619.882,550.955C621.575,550.767 620.822,550.881 622.426,551.428C624.029,551.975 623.864,552.247 624.625,551.127C625.386,550.007 626.916,549.158 626.884,548.258C626.852,547.358 626.928,545.198 627.802,545.089C628.676,544.981 629.134,545.71 628.954,546.416C628.773,547.121 628.032,548.14 628.016,548.632C628,549.123 627.692,549.607 627.253,550.384C626.815,551.161 627.135,553.225 626.6,554.073C626.066,554.922 624.889,555.677 623.705,555.64C622.521,555.604 621.63,554.438 620.384,554.558C619.138,554.677 618.33,554.862 617.569,555.933C616.808,557.003 616.647,559.414 615.262,559.422C613.878,559.43 608.903,559.926 608.495,558.677C608.086,557.427 607.611,557.026 608.254,555.956C608.898,554.886 611.09,554.694 611.502,553.916C611.914,553.137 612.452,551.874 611.609,552.34C610.767,552.807 610.257,553.381 609.569,553.76C608.882,554.139 606.577,554.955 605.378,554.821C604.179,554.687 603.355,553.745 603.776,552.742C604.197,551.74 606.372,549.833 607.205,549.617C608.039,549.401 610.114,548.509 610.653,547.899C611.192,547.289 612.257,546.564 611.712,546.431C611.167,546.298 610.96,546.455 610.284,546.906C609.608,547.357 607.951,547.984 606.609,547.519C605.268,547.054 603.159,545.186 603.22,544.353C603.282,543.52 604.071,543.932 604.905,543.948C605.738,543.963 610.791,544.442 611.04,543.881C611.29,543.32 611.954,542.567 610.672,542.682C609.39,542.797 607.463,543.193 606.954,542.09C606.445,540.987 606.081,540.635 606.445,539.8C606.81,538.965 607.67,537.847 607.197,537.635C606.725,537.423 605.824,537.839 605.712,537.997C605.6,538.155 603.421,539.725 602.917,538.249C602.413,536.774 601.517,535.2 603.209,534.126C604.901,533.053 607.097,531.632 607.801,530.292C608.505,528.951 609.276,528.483 609.934,528.294C610.592,528.105 611.594,527.123 611.153,526.626C610.713,526.129 609.008,525.598 608.971,524.361C608.935,523.124 609.154,522.262 610.153,522.352C611.152,522.442 610.825,522.829 611.855,523.035C612.886,523.24 616.601,522.489 616.979,523.389C617.356,524.289 617.614,525.229 617.089,525.817C616.565,526.405 615.585,527.987 614.17,528.255C612.755,528.523 611.805,529.214 611.276,530.133C610.747,531.053 609.518,532.019 610.512,532.177C611.506,532.335 612.558,532.308 613.478,531.527C614.398,530.746 616.458,528.885 617.991,528.705ZM616.663,533.016C616.239,533.6 615.907,534.683 616.076,536.349C616.246,538.015 616.796,539.342 616.032,539.819C615.268,540.296 614.043,540.633 613.97,541.395C613.897,542.156 613.766,542.452 614.99,542.316C616.215,542.179 616.946,542.093 617.981,541.4C619.017,540.708 618.924,539.554 620.367,539.073C621.81,538.592 621.822,537.782 621.947,536.867C622.073,535.952 623.078,535.036 621.944,535.382C620.81,535.728 619.867,537.129 618.854,537.033C617.84,536.937 617.194,536.173 617.721,535.081C618.249,533.989 618.845,533.979 619.858,533.411C620.87,532.844 622.053,532.696 621.829,531.745C621.605,530.794 621.97,530.142 620.616,530.662C619.263,531.181 617.787,531.304 617.029,532.604L616.663,533.016ZM611.726,535.861C611.087,535.815 610.614,536.442 610.724,537.123C610.835,537.804 610.861,538.455 610.524,538.879C610.187,539.302 609.993,539.755 610.726,539.623C611.459,539.49 611.558,539.041 612.162,538.688C612.766,538.335 613.157,538.321 612.929,537.295C612.702,536.27 612.731,535.934 611.726,535.861Z"/>
            </g>
        </g>
    </g>
</svg>
