<?xml version="1.0" encoding="UTF-8" standalone="no"?>
<!DOCTYPE svg PUBLIC "-//W3C//DTD SVG 1.1//EN" "http://www.w3.org/Graphics/SVG/1.1/DTD/svg11.dtd">
<svg width="100%" height="100%" viewBox="0 0 501 501" version="1.1" xmlns="http://www.w3.org/2000/svg" xmlns:xlink="http://www.w3.org/1999/xlink" xml:space="preserve" style="fill-rule:evenodd;clip-rule:evenodd;stroke-linejoin:round;stroke-miterlimit:1.41421;">
    <g transform="matrix(1,0,0,1,-2804,-573)">
        <g id="hi-.--ヒ" transform="matrix(1.5375,0,0,1.65217,2496.25,1234.82)">
            <rect x="200.586" y="-400.056" width="325.203" height="302.633" style="fill:none;"/>
            <g id="hi" transform="matrix(6.64933,0,0,6.18784,-3721.72,-3014.96)">
                <path d="M598.037,456.389C598.037,456.389 599.505,456.953 601.12,456.14C602.736,455.327 604.049,454.932 605.471,454.259C606.893,453.585 608.69,452.767 611.148,452.981C613.607,453.194 612.819,454.183 614.137,454.607C615.454,455.03 615.849,454.569 616.799,454.08C617.748,453.592 620.297,452.953 621.84,452.972C623.383,452.99 624.677,453.789 624.29,454.912C623.904,456.034 623.08,456.544 622.474,456.098C621.868,455.653 622.413,454.782 620.867,455.015C619.322,455.249 617.171,456.858 615.333,457.774C613.495,458.691 612.08,459.01 611.095,458.18C610.109,457.35 610.675,456.322 608.616,456.423C606.557,456.524 605.936,456.773 604.126,457.733C602.316,458.693 601.708,460.4 599.066,460.084C596.424,459.768 595.865,458.559 596.211,457.65C596.556,456.741 596.898,456.577 598.037,456.389ZM615.02,434.377C616.954,434.55 618.59,434.687 620.061,435.719C621.853,436.976 621.027,438.689 622.125,438.789C624.276,438.984 624.898,439.021 626.415,438.417C628.16,437.722 628.39,436.334 629.248,436.959C630.071,437.558 629.361,438.359 628.765,438.752C627.767,439.41 625.389,441.766 623.54,441.479C621.692,441.192 619.383,439.712 617.663,439.083C615.942,438.453 616.183,438.192 614.692,438.531C613.2,438.87 610.969,439.559 610.014,439.753C609.058,439.947 608.349,440.797 609.166,440.979C609.983,441.161 610.257,441.068 611.588,442.264C612.919,443.459 614.218,444.153 616.714,444.289C619.21,444.424 622.212,444.376 624.452,443.863C626.691,443.35 628.887,442.441 629.787,441.797C630.686,441.153 631.053,440.322 631.68,440.755C632.307,441.187 632.42,441.919 631.956,442.552C631.493,443.186 628.008,445.388 627.064,445.653C626.12,445.919 624,446.043 624.165,446.544C624.331,447.045 624.762,447.192 625.602,447.379C626.442,447.566 625.787,447.898 626.742,448.235C627.696,448.573 628.275,448.907 629.462,448.513C630.649,448.119 631.916,447.847 632.451,447.367C632.985,446.886 633.947,446.324 633.894,447.202C633.841,448.08 633.646,447.962 632.492,448.836C631.359,449.695 628.004,451.316 625.341,450.664C623.713,450.266 623.261,450.492 621.363,450.992C619.465,451.493 619.232,451.958 617.292,451.523C615.351,451.088 614.517,450.236 612.556,450.369C610.595,450.503 608.222,451.67 606.69,452.047C605.158,452.423 602.513,450.988 601.805,449.712C601.096,448.435 600.978,448.136 601.686,448.069C602.394,448.002 606.384,448.167 608.162,447.834C609.859,447.516 610.917,447.313 610.426,446.643C609.964,446.011 608.329,444.685 605.998,444.093C603.953,443.573 601.958,446.499 599.699,447.141C597.739,447.698 594.938,446.326 594.79,445.137C594.641,443.947 595.346,444.288 595.9,444.305C596.453,444.321 599.077,444.726 600.699,443.651C602.321,442.575 603.542,441.648 604.705,441.334C605.869,441.019 608.039,440.425 607.631,440.033C607.222,439.641 606.002,440.415 605.925,439.438C605.848,438.462 606.423,436.307 605.649,436.72C604.876,437.134 604.251,438.32 602.652,438.553C601.054,438.786 599.651,437.942 599.866,436.475C600.081,435.009 599.87,434.543 601.567,434.328C603.265,434.113 606.244,433.781 607.38,434.072C607.924,434.211 608.264,433.762 608.949,434.7C609.608,435.6 609.27,436.115 609.595,436.366C610.217,436.847 610.496,436.621 611.05,435.545C611.603,434.47 613.606,434.25 615.02,434.377ZM616.14,448.062C615.854,447.519 616.336,447.061 618.841,447.052C621.347,447.044 622.719,446.898 622.34,447.492C621.962,448.085 620.967,449.052 619.368,449.039C617.769,449.027 616.63,448.993 616.14,448.062Z"/>
            </g>
        </g>
    </g>
</svg>
