<?xml version="1.0" encoding="UTF-8" standalone="no"?>
<!DOCTYPE svg PUBLIC "-//W3C//DTD SVG 1.1//EN" "http://www.w3.org/Graphics/SVG/1.1/DTD/svg11.dtd">
<svg width="100%" height="100%" viewBox="0 0 501 501" version="1.1" xmlns="http://www.w3.org/2000/svg" xmlns:xlink="http://www.w3.org/1999/xlink" xml:space="preserve" style="fill-rule:evenodd;clip-rule:evenodd;stroke-linejoin:round;stroke-miterlimit:1.41421;">
    <g transform="matrix(1,0,0,1,-2804,-2295)">
        <g id="ho-.--ホ" transform="matrix(1.5375,0,0,1.65217,2496.25,2956.39)">
            <rect x="200.586" y="-400.056" width="325.203" height="302.633" style="fill:none;"/>
            <g id="ho" transform="matrix(7.35509,0,0,6.84462,-4169.63,-4264.6)">
                <path d="M610.902,580.685C613.941,580.273 613.839,579.74 616.472,579.321C619.106,578.902 622.34,579.321 623.979,578.805C625.618,578.289 627.424,577.132 628.439,576.714C629.453,576.297 630.85,577.524 629.798,578.216C628.746,578.907 627.449,580.109 626.582,580.55C625.716,580.99 622.839,581.976 624.49,582.106C626.14,582.237 626.022,581.94 627.883,581.787C629.745,581.635 632.173,582.014 631.855,582.846C631.537,583.678 630.802,584.266 629.67,584.495C628.539,584.725 627.454,585.7 625.448,585.722C623.442,585.743 619.208,585.231 617.841,585.664C616.474,586.096 615.918,587.968 614.283,587.911C612.648,587.853 611.203,587.278 610.225,586.795C609.247,586.312 607.795,586.316 608.25,585.532C608.704,584.749 609.469,585.282 610.393,584.739C611.318,584.196 611.768,583.348 610.943,583.15C610.117,582.952 609.441,582.717 608.758,582.228C608.075,581.74 607.39,582.061 607.338,583.075C607.286,584.088 607.102,584.666 606.754,585.379C606.406,586.093 606.079,587.824 606.76,589.039C607.441,590.255 607.761,590.718 608.629,591.66C609.498,592.602 609.21,593.748 610.26,592.999C611.31,592.25 611.485,592.054 612.514,591.449C613.542,590.844 614.51,589.9 615.298,589.24C616.262,588.433 615.794,588.399 617.14,587.906C618.3,587.482 619.679,587.33 620.809,587.868C621.938,588.405 622.976,588.976 623.852,589.526C624.729,590.077 625.209,590.256 626.406,589.514C627.602,588.773 628.269,588.287 629.594,588.197C630.919,588.106 631.705,587.562 632.573,587.51C633.441,587.457 634.346,587.632 633.805,588.381C633.264,589.13 631.811,590.129 630.769,590.469C629.727,590.81 628.217,590.604 627.484,591.304C626.751,592.004 625.788,592.798 623.812,592.783C621.835,592.767 622.498,592.164 620.84,591.608C619.183,591.052 617.955,590.691 616.864,591.434C615.773,592.177 614.789,593.431 614.304,594.495C613.819,595.559 613.531,596.292 612.005,596.222C610.441,596.15 610.235,595.154 609.39,595.626C608.545,596.097 607.773,597.042 607.369,597.671C606.965,598.299 606.181,599.452 605.677,599.993C605.174,600.535 604.635,601.688 604.197,601.248C603.759,600.808 604.122,599.591 604.559,598.92C604.997,598.248 606.549,593.691 605.706,592.441C604.863,591.19 603.858,590.923 603.711,590.016C603.565,589.109 603.209,587.326 602.741,586.755C602.274,586.184 601.663,586.39 601.796,587.192C601.928,587.994 601.875,590.938 601.887,592.117C601.898,593.295 601.708,593.238 601.162,594.074C600.615,594.91 601.037,595.534 600.338,595.877C599.639,596.22 599.053,597.479 599.16,595.426C599.268,593.373 599.666,594.476 599.882,592.276C600.099,590.075 599.874,589.683 599.33,588.554C598.785,587.425 598.317,586.514 598.795,585.316C599.272,584.119 599.764,583.188 600.172,582.197C600.58,581.206 600.288,579.757 600.787,578.758C601.286,577.76 601.608,577.136 602.598,578.128C603.588,579.119 605.058,579.512 605.738,579.375C606.418,579.238 606.745,579.707 606.847,580.096C606.948,580.486 607.541,580.937 608.471,580.855C609.401,580.774 609.815,580.833 610.902,580.685ZM604.8,574.01C606.779,574.149 606.35,573.898 609.837,573.177C613.325,572.456 613.964,572.011 617.237,572.647C620.511,573.282 618.393,574.059 622.94,573.804C627.488,573.549 628.292,571.706 629.999,572.16C631.706,572.613 632.341,573.503 630.948,573.994C629.555,574.485 627.699,576.532 625.081,576.374C622.463,576.215 620.562,574.936 617.716,575.013C614.87,575.09 611.832,576.362 609.854,576.819C607.876,577.276 606.296,577.37 604.563,576.808C602.83,576.246 599.964,575.244 600.547,573.95C601.131,572.656 601.678,572.569 602.804,573.301C603.929,574.033 603.393,573.912 604.8,574.01Z"/>
            </g>
        </g>
    </g>
</svg>
