<?xml version="1.0" encoding="UTF-8" standalone="no"?>
<!DOCTYPE svg PUBLIC "-//W3C//DTD SVG 1.1//EN" "http://www.w3.org/Graphics/SVG/1.1/DTD/svg11.dtd">
<svg width="100%" height="100%" viewBox="0 0 500 501" version="1.1" xmlns="http://www.w3.org/2000/svg" xmlns:xlink="http://www.w3.org/1999/xlink" xml:space="preserve" style="fill-rule:evenodd;clip-rule:evenodd;stroke-linejoin:round;stroke-miterlimit:1.41421;">
    <g transform="matrix(1,0,0,1,0,-573)">
        <g id="i-.--イ" transform="matrix(1.5375,0,0,1.65217,-308.401,1234.82)">
            <rect x="200.586" y="-400.056" width="325.203" height="302.633" style="fill:none;"/>
            <g id="i" transform="matrix(6.59082,0,0,6.13339,-4466.12,-1567.3)">
                <path d="M722.437,222.955C722.437,222.955 724.192,222.536 726.063,221.249C727.933,219.962 728.167,219.948 730.214,220.289C732.262,220.63 732.235,221.111 734.459,220.627C736.684,220.144 739.702,219.595 742.195,219.851C744.688,220.107 746.24,221.128 745.751,222.427C745.262,223.726 743.356,225.44 741.461,224.999C739.565,224.559 738.323,224.196 734.794,224.817C730.6,225.554 730.189,225.242 727.956,224.905C725.722,224.568 725.72,225.541 723.05,225.253C720.624,224.991 718.763,224.848 718.673,223.32C718.61,222.233 719.283,221.691 720.673,222.051C721.775,222.336 720.493,222.926 722.437,222.955ZM715.168,212.649C715.168,212.649 717.086,212.368 719.729,213.196C722.372,214.025 723.677,213.786 725.547,213.106C727.417,212.426 728.292,211.738 730.704,212.382C733.116,213.027 732.169,213.596 734.313,213.115C736.457,212.635 735.435,211.821 738.49,212.178C741.544,212.536 739.975,212.953 743.483,212.989C746.991,213.025 747.898,213.204 749.405,212.842C750.911,212.48 752.114,211.712 752.409,212.42C752.705,213.128 751.885,214.522 750.378,215.108C748.871,215.693 746.668,216.222 744.37,216C742.072,215.779 742.371,216.01 739.904,216.203C737.437,216.395 737.682,215.371 736.291,215.447C734.899,215.523 734.436,217.193 732.491,216.692C730.545,216.191 729.513,214.973 727.945,215.278C726.377,215.583 722.901,217.85 720.569,217.537C718.237,217.223 713.279,216.604 713.056,215.2C712.834,213.796 713.153,212.816 715.168,212.649ZM716.807,206.316C717.226,205.457 717.715,204.444 719.45,204.93C721.185,205.416 719.62,206.779 723.449,206.625C727.277,206.47 726.277,205.518 728.533,205.286C730.789,205.054 730.555,205.654 733.274,205.768C735.993,205.881 736.047,204.976 738.57,204.764C741.093,204.551 740.937,204.602 743.65,205.349C746.362,206.096 747.461,205.585 748.412,206.352C749.364,207.118 748.353,208.357 747.298,208.822C746.243,209.287 744.828,210.007 742.585,209.312C740.342,208.617 739.081,208.632 737.871,209.205C736.661,209.777 733.48,209.843 731.544,209.49C729.608,209.137 726.569,208.784 725.316,209.265C724.063,209.746 722.955,211.046 720.613,210.422C718.27,209.798 715.51,208.973 716.807,206.316Z"/>
            </g>
        </g>
    </g>
</svg>
