<?xml version="1.0" encoding="UTF-8" standalone="no"?>
<!DOCTYPE svg PUBLIC "-//W3C//DTD SVG 1.1//EN" "http://www.w3.org/Graphics/SVG/1.1/DTD/svg11.dtd">
<svg width="100%" height="100%" viewBox="0 0 501 500" version="1.1" xmlns="http://www.w3.org/2000/svg" xmlns:xlink="http://www.w3.org/1999/xlink" xml:space="preserve" style="fill-rule:evenodd;clip-rule:evenodd;stroke-linejoin:round;stroke-miterlimit:1.41421;">
    <g transform="matrix(1,0,0,1,-560,0)">
        <g id="ka-.--カ" transform="matrix(1.5375,0,0,1.65217,252.53,660.959)">
            <rect x="200.586" y="-400.056" width="325.203" height="302.633" style="fill:none;"/>
            <g id="ka" transform="matrix(6.57053,0,0,6.11451,-4456.28,-2693.9)">
                <path d="M731.943,386.064C732.343,384.541 733.77,382.495 735.258,382.597C736.746,382.7 737.13,382.835 737.197,384.145C737.264,385.455 736.166,386.261 736.289,387.266C736.413,388.271 737.207,388.182 737.404,389.368C737.601,390.553 737.929,392.55 735.646,393.757C733.363,394.963 732.579,395.56 733.162,395.949C733.746,396.337 734.477,396.434 735.71,395.586C736.942,394.737 737.148,394.245 738.974,394.742C740.801,395.239 740.859,395.873 741.958,395.218C743.057,394.563 744.596,392.325 745.37,393.333C746.143,394.341 746.588,394.701 745.417,395.666C744.246,396.631 742.567,398.283 740.337,398.108C738.107,397.934 736.451,397.305 735.314,398.02C734.176,398.735 732.954,399.649 731.811,399.778C730.668,399.908 729.817,400.793 731.039,400.872C732.261,400.951 733.489,400.684 735.226,400.338C736.962,399.993 739.929,399.723 743.239,400.139C746.549,400.555 747.365,400.458 749.392,400.233C750.657,400.093 751.816,398.733 752.682,399.068C753.548,399.404 753.378,400.1 752.907,400.58C752.436,401.061 751.596,402.687 749.359,402.708C747.122,402.728 744.938,401.995 744.634,402.731C744.33,403.468 744.887,404.188 744.845,405.248C744.773,407.052 743.62,406.955 742.863,407.954C742.107,408.954 742.337,409.225 742.191,410.688C742.044,412.152 742.519,412.358 740.907,412.78C739.296,413.202 737.667,413.786 736.438,413.889C735.208,413.992 733.873,414.294 732.687,414.994C731.501,415.694 729.853,417.339 728.525,417.186C727.197,417.033 727.213,416.422 728.067,415.656C728.921,414.889 736.432,411.407 737.68,410.504C739.279,409.347 738.797,407.598 739.371,406.647C739.946,405.696 741.665,404.436 740.342,403.906C739.02,403.376 738.871,402.463 736.871,403.035C734.871,403.607 733.076,404.716 731.132,404.119C729.188,403.522 726.387,402.551 724.202,403.001C722.017,403.452 717.963,407.15 715.863,406.554C713.763,405.958 713.157,404.213 714.201,403.532C715.246,402.85 718.403,402.308 718.699,401.52C718.995,400.731 719.314,400.56 718.251,400.239C717.188,399.919 715.021,398.503 716.092,397.85C717.163,397.198 717.926,397.608 719.315,397.102C720.703,396.596 720.333,394.939 722.64,394.928C724.946,394.918 727.503,395.282 728.335,395.765C729.168,396.247 731.455,397.696 731.588,396.918C731.721,396.141 730.769,394.074 731.729,393.187C732.689,392.299 734.323,392.633 733.838,391.579C733.353,390.525 731.981,390.061 731.938,388.746C731.894,387.43 731.702,386.983 731.943,386.064ZM721.484,398.972C721.484,398.972 724.927,397.945 725.716,398.448C726.505,398.951 727.534,399.487 726.437,399.882C725.34,400.276 721.923,400.327 721.417,399.876C720.911,399.424 720.747,399.885 721.484,398.972Z"/>
            </g>
        </g>
    </g>
</svg>
