<?xml version="1.0" encoding="UTF-8" standalone="no"?>
<!DOCTYPE svg PUBLIC "-//W3C//DTD SVG 1.1//EN" "http://www.w3.org/Graphics/SVG/1.1/DTD/svg11.dtd">
<svg width="100%" height="100%" viewBox="0 0 501 501" version="1.1" xmlns="http://www.w3.org/2000/svg" xmlns:xlink="http://www.w3.org/1999/xlink" xml:space="preserve" style="fill-rule:evenodd;clip-rule:evenodd;stroke-linejoin:round;stroke-miterlimit:1.41421;">
    <g transform="matrix(1,0,0,1,-560,-1721)">
        <g id="ke-.--ケ" transform="matrix(1.5375,0,0,1.65217,252.53,2382.53)">
            <rect x="200.586" y="-400.056" width="325.203" height="302.633" style="fill:none;"/>
            <g id="ke" transform="matrix(8.2361,0,0,7.66449,-5674.82,-4375.94)">
                <path d="M742.699,523.381C743.818,524.128 745.157,525.601 744.342,527.01C743.474,528.51 741.794,531.321 741.65,533.229C741.487,535.391 741.153,544.082 742.463,547.112C744.423,551.645 746.146,553.739 744.852,554.12C743.558,554.502 740.407,554.313 739.622,552.178C738.837,550.042 737.585,539.963 737.752,534.282C737.93,528.242 739.653,527.419 739.882,526.54C740.194,525.344 737.223,524.182 737.969,523.248C738.714,522.314 741.661,522.688 742.699,523.381ZM726.928,524.353C727.155,525.134 726.361,528.767 725.653,529.698C724.945,530.628 723.747,532.634 724.394,533.775C725.04,534.915 726.594,536.28 728.848,536.913C731.102,537.547 731.398,538.841 731.538,539.967C731.678,541.094 728.181,544.824 726.896,545.976C725.611,547.128 724.216,548.017 723.507,549.017C722.798,550.017 722.541,550.775 722.297,551.823C722.054,552.87 722.098,553.806 721.537,553.642C720.976,553.477 720.606,549.695 721.331,547.961C722.056,546.227 725.72,542.955 725.968,541.585C726.216,540.215 726.68,539.426 725.655,538.988C724.63,538.55 721.714,537.777 721.453,535.858C721.191,533.94 720.629,530.195 721.985,528.779C723.342,527.363 724.759,525.902 724.705,524.858C724.651,523.814 724.758,523.227 725.507,523.161C726.257,523.095 726.684,523.515 726.928,524.353Z"/>
            </g>
        </g>
    </g>
</svg>
