<?xml version="1.0" encoding="UTF-8" standalone="no"?>
<!DOCTYPE svg PUBLIC "-//W3C//DTD SVG 1.1//EN" "http://www.w3.org/Graphics/SVG/1.1/DTD/svg11.dtd">
<svg width="100%" height="100%" viewBox="0 0 501 501" version="1.1" xmlns="http://www.w3.org/2000/svg" xmlns:xlink="http://www.w3.org/1999/xlink" xml:space="preserve" style="fill-rule:evenodd;clip-rule:evenodd;stroke-linejoin:round;stroke-miterlimit:1.41421;">
    <g transform="matrix(1,0,0,1,-560,-573)">
        <g id="ki-.--キ" transform="matrix(1.5375,0,0,1.65217,252.53,1234.82)">
            <rect x="200.586" y="-400.056" width="325.203" height="302.633" style="fill:none;"/>
            <g id="ki" transform="matrix(7.19486,0,0,6.69551,-4923.42,-3243.66)">
                <path d="M726.899,429.963C728.432,429.926 730.557,431.43 731.707,432.854C732.857,434.278 734.394,434.58 734.744,436.516C735.094,438.452 734.903,439.548 735.682,439.027C736.461,438.506 735.99,438.227 737.359,436.937C738.728,435.647 739.311,435.299 741.135,434.92C742.958,434.54 742.871,433.742 743.837,434.162C744.578,434.485 744.662,434.978 743.725,435.737C742.789,436.496 741.594,436.992 739.775,438.735C738.441,440.012 738.479,439.928 738.401,441.285C738.315,442.782 738.61,446.389 737.764,447.328C736.917,448.267 735.321,449.031 735.607,450.108C735.894,451.184 737.665,451.134 738.661,452.57C739.656,454.006 739.933,456.171 741.446,457.056C742.958,457.94 743.348,458.503 745.211,458.092C747.074,457.681 747.937,456.511 748.756,455.518C749.575,454.524 751.229,452.029 752.062,452.332C752.895,452.635 753.032,453.984 752.658,454.558C752.284,455.131 751.067,456.683 750.251,457.557C749.436,458.431 745.46,463.333 742.451,462.305C739.443,461.278 738.018,459.1 737.585,457.185C737.151,455.271 737.148,454.268 735.822,454.12C734.495,453.972 732.521,453.898 732.791,454.961C733.061,456.025 733.742,457.645 734.995,458.754C736.248,459.863 739.075,462.018 739.707,462.892C740.339,463.765 740.771,464.413 740.011,464.609C739.252,464.805 736.839,464.157 734.874,462.355C732.908,460.554 731.985,460.173 731.195,459.471C730.404,458.769 730.488,457.75 729.474,457.508C728.663,457.314 728.127,458.403 727.265,458.908C726.403,459.413 725.029,460.362 722.994,460.26C720.959,460.158 716.025,458.604 716.772,456.251C717.52,453.898 718.47,455.593 719.011,455.972C719.553,456.35 721.239,457.51 723.185,457.014C725.131,456.519 727.674,454.02 728.346,452.685C729.017,451.35 730.244,451.19 729.146,449.892C728.049,448.594 726.389,447.975 726.303,445.971C726.257,444.874 725.933,443.783 725.792,442.578C725.675,441.583 725.744,440.851 725.017,439.89C724.39,439.063 720.861,437.519 720.789,436.457C720.716,435.396 721.66,434.878 722.57,435.178C723.48,435.478 725.951,436.851 726.768,437.999C727.585,439.148 728.993,440.394 729.243,441.714C729.493,443.034 729.473,444.487 730.328,444.575C730.865,444.63 731.405,443.675 731.77,442.195C731.988,441.315 731.602,440.54 731.647,438.802C731.708,436.488 730.839,435.19 729.688,434.651C728.536,434.112 725.837,432.297 725.933,431.239C726.029,430.182 725.633,429.993 726.899,429.963Z"/>
            </g>
        </g>
    </g>
</svg>
