<?xml version="1.0" encoding="UTF-8" standalone="no"?>
<!DOCTYPE svg PUBLIC "-//W3C//DTD SVG 1.1//EN" "http://www.w3.org/Graphics/SVG/1.1/DTD/svg11.dtd">
<svg width="100%" height="100%" viewBox="0 0 501 501" version="1.1" xmlns="http://www.w3.org/2000/svg" xmlns:xlink="http://www.w3.org/1999/xlink" xml:space="preserve" style="fill-rule:evenodd;clip-rule:evenodd;stroke-linejoin:round;stroke-miterlimit:1.41421;">
    <g transform="matrix(1,0,0,1,-560,-2295)">
        <g id="ko-.--コ" transform="matrix(1.5375,0,0,1.65217,252.53,2956.39)">
            <rect x="200.586" y="-400.056" width="325.203" height="302.633" style="fill:none;"/>
            <g id="ko" transform="matrix(6.49619,0,0,6.04533,-4405.34,-3790.07)">
                <path d="M719.601,576.112C721.124,576.677 721.523,576.395 723.36,576.027C725.198,575.66 727.223,574.703 728.369,573.792C729.515,572.881 729.614,572.102 731.747,572.059C733.881,572.015 733.298,572.106 736.021,572.328C738.744,572.55 738.847,572.647 739.917,571.935C740.988,571.223 741.959,570.388 744.038,571.062C746.116,571.737 747.192,572.138 747.609,573.469C748.031,574.82 747.773,575.622 747.607,576.44C747.409,577.412 746.794,578.185 746.025,578.791C745.256,579.396 744.289,579.67 744.633,580.496C744.977,581.323 745.661,582.194 744.918,583.109C744.175,584.024 743.415,585.616 741.688,585.647C739.962,585.677 738.086,584.979 738.006,586.082C737.926,587.184 739.011,587.304 739.045,588.521C739.08,589.738 739.113,590.471 738.559,591.28C738.006,592.089 737.03,593.832 737.203,594.991C737.376,596.149 736.893,596.474 738.285,596.623C739.676,596.773 741.133,596.709 742.37,596.65C743.607,596.591 745.039,597.021 746.584,596.361C748.129,595.702 749.645,594.093 750.575,593.508C751.506,592.924 752.035,591.796 752.847,591.495C753.66,591.193 754.266,591.465 754.019,591.785C753.772,592.105 753.382,592.466 753.08,593.253C752.779,594.041 752.556,594.992 751.742,595.498C750.928,596.004 750.568,596.292 749.77,596.755C748.972,597.218 747.986,597.47 747.477,598.263C746.897,599.169 746.797,599.895 745.414,600.188C744.032,600.48 739.532,601.186 737.891,600.459C736.25,599.732 734.625,598.811 734.368,597.466C734.11,596.12 733.426,595.084 734.113,593.684C734.801,592.284 735.337,592.221 735.528,590.89C735.72,589.56 735.395,588.68 734.638,588.878C733.881,589.076 732.418,589.393 731.927,590.452C731.436,591.511 731.913,595.487 731.075,596.358C730.238,597.229 728.684,598.218 727.742,598.512C726.799,598.805 724.262,600.099 722.492,599.915C720.722,599.732 719.122,598.88 720.3,598.081C721.478,597.283 722.35,597.731 723.57,597.324C724.79,596.918 726.072,596.569 726.761,595.779C727.451,594.99 727.828,593.809 727.598,593.029C727.487,592.654 727.123,592.136 726.337,592.61C725.552,593.084 724.536,593.247 722.621,592.637C720.707,592.026 719.841,591.212 718.415,591.173C716.99,591.135 715.153,589.774 714.836,588.72C714.519,587.666 714.902,587.175 715.407,587.615C715.912,588.054 717.803,589.03 718.99,589.092C720.176,589.155 721.589,589.46 723.983,589.448C726.377,589.436 731.316,587.639 732.861,586.457C734.406,585.276 735.249,585.141 736.181,584.801C737.114,584.46 737.853,583.546 739.03,583.445C740.208,583.344 741.616,582.221 740.86,581.819C740.103,581.418 738.665,581.273 737.528,581.888C736.391,582.504 736.351,583.247 734.596,583.285C732.84,583.324 728.685,583.112 727.927,583.656C727.168,584.199 726.49,585.034 724.868,585.015C723.247,584.995 721.143,585.261 718.558,584.168C715.973,583.075 713.674,581.148 714.071,580.209C714.469,579.269 714.94,578.977 715.394,579.482C715.849,579.987 716.411,580.546 717.824,580.743C719.236,580.94 722.69,581.209 724.765,580.956C726.839,580.702 728.835,579.729 730.606,579.379C732.376,579.03 735.351,578.845 736.786,578.67C738.222,578.495 740.823,578.539 741.632,578.042C742.441,577.545 744.352,575.879 743.587,575.396C742.821,574.914 741.737,574.739 740.241,575.121C738.745,575.503 733.915,574.963 732.494,575.316C731.072,575.669 730.601,576.988 728.365,577.61C726.129,578.232 724.142,579.593 720.43,578.622C716.718,577.65 717.132,576.939 717.892,576.274C718.653,575.609 718.649,575.759 719.601,576.112Z"/>
            </g>
        </g>
    </g>
</svg>
