<?xml version="1.0" encoding="UTF-8" standalone="no"?>
<!DOCTYPE svg PUBLIC "-//W3C//DTD SVG 1.1//EN" "http://www.w3.org/Graphics/SVG/1.1/DTD/svg11.dtd">
<svg width="100%" height="100%" viewBox="0 0 501 501" version="1.1" xmlns="http://www.w3.org/2000/svg" xmlns:xlink="http://www.w3.org/1999/xlink" xml:space="preserve" style="fill-rule:evenodd;clip-rule:evenodd;stroke-linejoin:round;stroke-miterlimit:1.41421;">
    <g transform="matrix(1,0,0,1,-560,-1147)">
        <g id="ku-.--ク" transform="matrix(1.5375,0,0,1.65217,252.53,1808.68)">
            <rect x="200.586" y="-400.056" width="325.203" height="302.633" style="fill:none;"/>
            <g id="ku" transform="matrix(7.87635,0,0,7.3297,-5422.64,-3858.65)">
                <path d="M737.019,493.919C737.144,495.304 737.97,498.341 738.438,499.781C738.906,501.22 739.571,502.801 740.35,503.888C741.129,504.976 742.651,507.591 742.656,508.217C742.66,508.843 742.356,509.435 741.332,508.629C740.307,507.823 739.421,507.358 738.282,506.472C737.144,505.587 737.165,505.34 736.956,504.107C736.748,502.874 736.058,501.349 735.329,501.475C734.601,501.601 733.439,503.038 732.297,504.037C731.155,505.036 728.945,506.488 727.831,506.84C726.717,507.193 724.427,507.946 723.589,508.13C722.752,508.315 721.129,508.833 720.913,508.235C720.698,507.636 720.753,507.518 722.013,507.182C723.273,506.845 724.806,506.509 725.901,505.29C726.995,504.071 728.366,502.211 729.248,501.307C730.13,500.403 730.881,500.442 731.188,499.184C731.494,497.925 731.124,495.163 731.51,493.652C731.897,492.142 733.625,491.452 733.89,490.263C734.154,489.074 734.513,487.339 733.86,487.266C733.207,487.193 732.145,488.394 729.964,488.907C727.784,489.42 727.608,490.024 724.654,489.385C721.701,488.746 719.37,486.814 719.265,485.742C719.189,484.963 718.805,484.131 719.905,484.361C720.713,484.529 721.028,486.087 722.543,486.264C724.058,486.442 725.452,486.421 727.454,485.591C729.456,484.76 734.523,482.859 735.159,482.574C735.795,482.29 736.09,480.73 736.899,479.1C737.707,477.47 737.368,476.807 738.804,476.328C740.24,475.848 741.335,475.803 740.99,476.684C740.645,477.566 739.095,479.256 739.02,479.959C738.944,480.662 738.212,481.243 738.961,481.65C739.711,482.057 739.817,482.072 740.749,482.49C741.68,482.908 741.781,482.935 743.36,482.945C744.939,482.956 744.938,483.069 745.914,483.156C746.889,483.242 746.99,483.375 747.652,482.43C748.315,481.485 748.618,480.343 749.407,481.084C750.196,481.825 750.253,482.278 749.46,483.044C748.668,483.809 747.268,485.758 746.264,485.939C745.259,486.121 742.59,486.348 741.99,486.037C741.391,485.727 739.764,485.388 738.965,485.596C738.165,485.803 736.876,486.309 737.626,486.585C738.375,486.862 740.457,486.405 741.145,487.064C741.833,487.722 742.094,488.218 741.712,488.809C741.331,489.399 740.978,491.173 739.651,491.203C738.324,491.233 737.439,490.822 737.185,491.504C736.931,492.185 736.941,493.055 737.019,493.919Z"/>
            </g>
        </g>
    </g>
</svg>
