<?xml version="1.0" encoding="UTF-8" standalone="no"?>
<!DOCTYPE svg PUBLIC "-//W3C//DTD SVG 1.1//EN" "http://www.w3.org/Graphics/SVG/1.1/DTD/svg11.dtd">
<svg width="100%" height="100%" viewBox="0 0 501 500" version="1.1" xmlns="http://www.w3.org/2000/svg" xmlns:xlink="http://www.w3.org/1999/xlink" xml:space="preserve" style="fill-rule:evenodd;clip-rule:evenodd;stroke-linejoin:round;stroke-miterlimit:1.41421;">
    <g transform="matrix(1,0,0,1,-3365,0)">
        <g id="ma-.--マ" transform="matrix(1.5375,0,0,1.65217,3057.18,660.959)">
            <rect x="200.586" y="-400.056" width="325.203" height="302.633" style="fill:none;"/>
            <g id="ma" transform="matrix(6.97121,0,0,6.48738,-3475.11,-1345.17)">
                <path d="M537.813,157.203C538.524,156.662 540.156,156.807 541.156,157.578C542.156,158.349 544.172,157.76 545.65,157.276C547.127,156.791 548.228,156.234 549.937,156.214C551.646,156.194 552.872,156.48 554.899,156.749C556.925,157.019 557.77,157.465 559.827,157.59C561.883,157.715 562.402,157.678 563.984,157.331C565.566,156.984 566.32,156.817 567.363,156.179C568.407,155.541 569.208,154.634 569.25,155.456C569.293,156.278 568.58,156.91 567.72,157.765C566.86,158.62 564.77,160.3 562.38,160.351C559.99,160.402 558.147,159.689 557.243,159.988C556.554,160.216 556.278,161.889 556.957,162.147C558.042,162.56 562.538,162.032 563.755,162.467C564.933,162.888 564.966,165.716 564.237,166.054C563.509,166.391 563.327,166.631 563.766,167.252C564.206,167.873 566.868,170.317 567.115,172.066C567.362,173.815 567.655,177.607 566.177,178.422C564.698,179.236 564.104,180.526 561.927,180.444C559.751,180.361 558.005,179.62 557.349,180.275C556.694,180.93 555.952,182.937 554.06,182.89C552.168,182.842 549.903,180.652 549.195,180.294C548.487,179.935 546.836,178.956 547.141,178.405C547.792,177.227 552.671,178.786 553.117,177.747C553.562,176.709 549.858,174.737 548.117,174.741C546.375,174.745 545.43,175.129 543.887,176.483C542.344,177.836 541.18,179.031 538.974,179.036C536.769,179.041 533.667,176.677 533.029,175.463C532.39,174.249 531.318,173.109 532.384,172.858C533.449,172.606 534.578,172.406 535.364,173.612C536.149,174.817 536.525,175.663 538.182,175.721C539.839,175.779 541.346,174.967 542.354,173.727C543.361,172.486 543.103,171.78 545.184,171.233C546.136,170.982 548.41,170.743 549.955,171.528C551.5,172.313 552.274,173.263 553.282,172.827C554.29,172.39 554.414,171.919 553.515,171.071C552.616,170.223 550.269,168.868 551.15,166.41C551.624,165.089 552.626,164.283 553.06,162.956C553.388,161.951 553.749,160.195 552.831,159.35C552.114,158.69 549.49,158.662 547.905,159.408C546.32,160.154 545.283,160.757 544.539,161.128C543.794,161.499 542.996,162.245 541.18,161.875C539.364,161.505 538.166,161.518 537.673,160.723C537.18,159.929 537.103,157.743 537.813,157.203ZM554.701,165.258C555.085,164.843 556.033,165.11 556.919,165.174C557.789,165.238 558.913,165.125 559.04,165.409C559.56,166.572 557.903,166.616 558.644,167.743C559.386,168.87 559.83,168.926 561.575,169.558C563.321,170.19 563.603,169.683 563.643,171.127C563.683,172.57 564.66,176.192 563.393,176.619C562.126,177.045 559.66,177.976 558.581,176.368C557.501,174.76 557.411,173.783 557.602,172.392C557.794,171.002 557.367,170.317 556.725,169.293C555.056,166.631 553.745,168.475 553.891,167.213C554.037,165.95 554.307,165.684 554.701,165.258Z"/>
            </g>
        </g>
    </g>
</svg>
