<?xml version="1.0" encoding="UTF-8" standalone="no"?>
<!DOCTYPE svg PUBLIC "-//W3C//DTD SVG 1.1//EN" "http://www.w3.org/Graphics/SVG/1.1/DTD/svg11.dtd">
<svg width="100%" height="100%" viewBox="0 0 501 501" version="1.1" xmlns="http://www.w3.org/2000/svg" xmlns:xlink="http://www.w3.org/1999/xlink" xml:space="preserve" style="fill-rule:evenodd;clip-rule:evenodd;stroke-linejoin:round;stroke-miterlimit:1.41421;">
    <g transform="matrix(1,0,0,1,-3365,-1721)">
        <g id="me-.--メ" transform="matrix(1.5375,0,0,1.65217,3057.18,2382.53)">
            <rect x="200.586" y="-400.056" width="325.203" height="302.633" style="fill:none;"/>
            <g id="me" transform="matrix(7.09736,0,0,6.55361,-3577.42,-2252.01)">
                <path d="M554.086,287.703C555.117,287.161 557.001,286.591 560.723,288.724C564.446,290.857 564.012,293.297 563.511,294.394C563.009,295.491 559.53,296.836 559.48,298.01C559.43,299.183 558.75,299.306 560.286,299.615C561.823,299.925 563.615,300.304 563.562,301.595C563.51,302.885 562.683,303.789 562.061,304.572C561.439,305.354 558.617,307.181 559.3,307.93C559.983,308.678 562.914,309.952 565.072,309.805C567.23,309.658 569.069,308.821 569.942,308.381C570.814,307.94 571.9,307.006 572.138,307.741C572.377,308.475 571.979,309.426 571.016,310.228C570.054,311.031 567.426,312.917 565.755,312.767C564.084,312.616 559.563,311.368 558.728,310.719C557.893,310.071 557.928,309.92 556.994,310.078C556.06,310.236 553.75,312.001 552.97,312.416C552.191,312.832 551.584,313.141 551.012,313.26C550.439,313.38 549.314,313.632 549.623,313.925C549.933,314.218 549.994,314.082 551.042,313.913C552.09,313.744 555.067,313.507 556.858,313.743C558.648,313.98 559.616,314.198 560.933,314.862C562.25,315.526 563.341,316.291 565.128,316.204C566.914,316.118 567.752,315.499 568.674,314.758C569.597,314.017 569.509,313.596 570.773,313.874C572.037,314.151 572.57,314.289 571.577,314.99C570.585,315.69 570.432,316.403 569.628,317.219C568.824,318.036 566.159,320.06 564.155,319.541C562.152,319.022 560.14,318.183 559.058,317.456C557.976,316.729 557.382,316.112 555.923,316.091C554.465,316.069 554.241,316.019 552.817,316.632C551.393,317.245 549.842,318.053 548.762,318.979C547.683,319.906 548.137,320.834 547.237,321.488C546.338,322.142 546.114,323.293 544.967,323.562C543.82,323.832 543.09,324.631 542.707,323.723C542.324,322.816 542.018,321.819 542.832,321.144C543.646,320.469 544.393,320.603 544.046,319.918C543.7,319.234 543.397,319.152 542.4,319.117C541.403,319.082 539.484,318.857 538.934,317.759C538.383,316.661 537.862,315.767 538.606,315.162C539.35,314.557 540.301,314.854 541.013,315.59C541.726,316.326 544.627,317.269 545.273,316.645C545.919,316.022 546.799,314.345 545.637,313.933C544.476,313.521 543.394,314.093 541.925,312.637C540.456,311.181 539.54,310.074 540.161,307.642C540.761,305.292 544.671,304.512 545.967,304.202C546.755,304.014 546.762,295.97 546.412,295.623C546.061,295.275 543.826,293.574 543.668,292.825C543.509,292.075 544.129,291.894 545.426,291.924C546.722,291.954 547.492,291.857 547.935,291.788C548.378,291.719 550.306,292.967 549.909,294.223C549.819,294.509 549.154,295.078 549.118,295.753C548.912,299.646 548.912,304.192 549.461,304.518C550.161,304.934 551.156,304.55 552.485,304.942C553.815,305.334 553.885,305.79 554.748,306.247C555.611,306.704 555.993,307.265 556.567,306.687C557.14,306.108 557.014,304.962 557.69,304.413C558.365,303.865 559.282,303.293 558.513,302.53C557.745,301.766 555.343,300.545 555.645,299.014C555.947,297.483 559.083,294.438 559.223,293.566C559.363,292.695 559.738,291.967 558.302,291.572C556.865,291.177 554.227,290.812 553.853,290.026C553.479,289.241 552.98,288.286 554.086,287.703ZM545.333,307.847C545.333,307.847 543,307.975 543.361,308.874C543.721,309.773 543.594,310.092 544.754,309.949C545.914,309.806 546.742,308.42 546.318,308.125C545.895,307.831 545.83,307.73 545.333,307.847ZM549.761,307.655C549.761,307.655 548.42,307.41 548.634,308.176C548.849,308.942 548.745,309.352 549.742,309.408C550.739,309.464 551.917,309.478 552.172,309.013C552.427,308.547 551.805,307.378 549.761,307.655Z"/>
            </g>
        </g>
    </g>
</svg>
