<?xml version="1.0" encoding="UTF-8" standalone="no"?>
<!DOCTYPE svg PUBLIC "-//W3C//DTD SVG 1.1//EN" "http://www.w3.org/Graphics/SVG/1.1/DTD/svg11.dtd">
<svg width="100%" height="100%" viewBox="0 0 501 501" version="1.1" xmlns="http://www.w3.org/2000/svg" xmlns:xlink="http://www.w3.org/1999/xlink" xml:space="preserve" style="fill-rule:evenodd;clip-rule:evenodd;stroke-linejoin:round;stroke-miterlimit:1.41421;">
    <g transform="matrix(1,0,0,1,-3365,-573)">
        <g id="mi-.--ミ" transform="matrix(1.5375,0,0,1.65217,3057.18,1234.82)">
            <rect x="200.586" y="-400.056" width="325.203" height="302.633" style="fill:none;"/>
            <g id="mi" transform="matrix(7.20147,0,0,6.70166,-3606.79,-1677.91)">
                <path d="M555.672,195.295C555.672,195.295 557.183,194.881 558.407,196.261C559.632,197.641 560.92,198.144 561.309,199.941C561.697,201.737 560.67,202.167 562.541,202.423C564.412,202.679 566.686,202.753 566.644,204.079C566.601,205.405 566.055,206.418 563.971,206.216C561.886,206.014 559.398,205.095 559.048,206.57C558.699,208.046 557.696,212.62 560.724,213.501C563.751,214.381 566.375,213.224 567.809,214.345C569.243,215.466 569.92,217.332 568.713,218.19C567.506,219.049 566.539,219.541 564.705,218.917C562.87,218.293 561.757,216.784 560.48,217.758C559.204,218.731 560.332,220.71 557.571,221.053C554.81,221.397 550.785,221.672 550.398,220.634C550.011,219.597 550.485,217.761 549.427,217.934C548.368,218.106 548.014,218.194 547.829,218.934C547.644,219.674 547.545,219.525 546.531,220.066C545.517,220.607 544.847,221.247 545.848,221.805C546.848,222.364 549.607,221.676 552.137,223.902C554.667,226.128 556.223,228.479 558.918,227.521C561.614,226.562 564.837,222.637 566.485,222.206C568.134,221.776 569.387,222.945 568.678,223.424C567.97,223.904 566.333,225.618 565.189,226.779C564.045,227.939 560.932,232.076 556.736,231.138C552.54,230.2 550.509,226.998 548.21,226.005C545.912,225.012 542.942,224.205 541.831,225.138C540.719,226.071 539.318,229.354 538.213,228.765C537.108,228.175 537.353,227.151 537.912,225.604C538.329,224.447 541.742,220.809 543.208,219.296C544.087,218.388 543.993,217.562 543.34,216.326C542.687,215.091 542.246,214.296 540.403,214.534C538.56,214.773 536.026,215.883 535.271,215.275C534.516,214.666 532.227,214.288 533.687,213.562C535.147,212.835 536.324,213.987 537.442,213.126C537.861,212.803 538.549,212.381 538.671,211.459C538.873,209.922 538.684,207.799 539.491,206.544C540.798,204.51 542.199,203.988 543.95,203.245C545.234,202.699 543.247,202.234 543.08,201.087C542.913,199.94 542.139,197.426 543.594,197.104C545.049,196.781 548.153,197.324 547.947,198.81C547.741,200.295 547.295,204.281 547.941,204.627C548.587,204.972 548.533,204.158 549.712,204.141C550.891,204.124 555.865,204.88 556.561,204.01C557.257,203.14 557.587,202.087 557.413,201.012C557.239,199.938 556.971,198.85 556.089,198.597C555.207,198.344 553.565,197.228 554.053,196.36C554.541,195.492 554.267,196.034 555.672,195.295ZM546.458,213.765C546.458,213.765 547.155,212.452 548.473,211.362C549.79,210.272 551.153,210.52 551.082,209.092C551.01,207.665 550.866,206.929 552.325,207.027C553.784,207.125 554.995,206.344 555.31,207.436C555.624,208.529 555.798,212.673 555.226,213.2C554.654,213.727 553.581,214.736 552.235,214.67C550.889,214.605 548.834,214.042 548.497,214.507C548.16,214.971 547.646,215.696 547.184,215.297C546.721,214.897 545.847,214.955 546.458,213.765ZM542.585,208.899C542.585,208.899 542.128,207.296 543.336,206.836C544.544,206.375 544.324,205.528 545.36,205.265C546.397,205.002 546.928,205.64 547.111,206.585C547.293,207.529 548.15,208.402 546.987,208.959C545.823,209.517 545.137,209.669 544.626,210.392C544.115,211.114 543.713,212.106 543.148,211.295C542.586,210.488 542.569,210.581 542.585,208.899Z"/>
            </g>
        </g>
    </g>
</svg>
