<?xml version="1.0" encoding="UTF-8" standalone="no"?>
<!DOCTYPE svg PUBLIC "-//W3C//DTD SVG 1.1//EN" "http://www.w3.org/Graphics/SVG/1.1/DTD/svg11.dtd">
<svg width="100%" height="100%" viewBox="0 0 501 501" version="1.1" xmlns="http://www.w3.org/2000/svg" xmlns:xlink="http://www.w3.org/1999/xlink" xml:space="preserve" style="fill-rule:evenodd;clip-rule:evenodd;stroke-linejoin:round;stroke-miterlimit:1.41421;">
    <g transform="matrix(1,0,0,1,-3365,-2295)">
        <g id="mo-.--モ" transform="matrix(1.5375,0,0,1.65217,3057.18,2956.39)">
            <rect x="200.586" y="-400.056" width="325.203" height="302.633" style="fill:none;"/>
            <g id="mo" transform="matrix(6.46091,0,0,6.0125,-3208.65,-2374.22)">
                <path d="M552.776,333.382C554.243,333.507 560.043,333.901 560.756,335.874C561.47,337.848 562.635,338.554 560.745,340.427C558.855,342.299 556.601,344.406 556.847,346.953C557.093,349.5 556.267,351.366 559.861,351.967C561.836,352.297 563.854,353.192 565.721,352.815C567.662,352.423 568.7,350.684 569.056,351.741C569.412,352.798 569.083,353.44 568.204,354.387C566.26,356.482 560.194,356.155 558.933,355.377C557.045,354.213 556.514,354.398 556.132,355.14C555.75,355.882 554.6,357.386 556.222,358.24C557.844,359.094 558.91,360.303 561.277,359.983C563.645,359.662 564.239,358.478 565.506,357.797C566.773,357.116 567.471,356.742 568.36,356.5C569.117,356.295 569.601,357.459 568.925,357.814C568.249,358.169 564.96,359.691 565.112,360.436C565.263,361.18 565.981,360.464 566.708,361.117C567.435,361.769 568.224,362.34 567.477,363.358C566.73,364.376 565.356,365.572 564.04,365.786C562.724,366.001 561.425,365.554 560.953,366.295C560.48,367.035 560.087,367.233 561.172,367.643C562.256,368.053 562.855,368.518 564.336,368.105C565.817,367.692 565.858,366.737 567.084,367.246C568.31,367.754 568.722,368.13 567.886,368.714C567.049,369.298 564.999,371.515 562.253,371.074C559.507,370.632 559.658,369.839 557.925,369.759C556.191,369.678 554.303,370.129 554.739,368.917C555.176,367.705 556.039,366.929 557.309,366.155C558.58,365.382 559.878,364.853 561.014,364.506C562.15,364.16 563.922,364.296 563.573,363.452C563.223,362.608 562.541,362 561.085,362.342C559.728,362.661 555.111,364.191 553.793,364.596C552.356,365.038 553.032,368.463 553.514,369.796C553.996,371.129 555.343,372.209 555.051,373.157C554.759,374.106 554.519,373.418 553.328,373.169C551.966,372.884 550.725,367.038 550.137,365.966C549.983,365.686 547.604,366.299 545.566,364.928C543.713,363.68 544.126,363.184 542.855,362.957C541.962,362.799 536.618,362.887 536.437,360.064C536.284,357.67 538.234,359.425 541.086,359.28C543.938,359.135 544.797,358.861 546.517,357.968C548.237,357.076 549.959,356.582 551.04,356.603C552.12,356.624 554.064,356.513 552.951,356.067C551.838,355.622 549.159,355.325 546.982,355.888C544.805,356.452 543.888,356.628 542.36,355.946C540.832,355.264 537.373,352.591 538.351,351.416C539.328,350.241 540.21,351.404 541.096,351.888C541.981,352.372 546.584,354.062 546.966,352.948C547.347,351.833 547.633,351.199 546.404,349.623C545.176,348.046 543.7,345.982 544.923,344.284C546.146,342.585 547.997,341.751 546.851,341.043C545.706,340.334 542.752,341.171 542.752,339.392C542.752,337.614 542.229,336.477 543.483,336.866C544.737,337.254 545.788,337.821 547.026,337.778C548.264,337.736 550.758,339.106 550.346,340.556C549.933,342.005 546.897,344.091 547.255,345.595C547.614,347.099 549.449,349.333 550.167,350.266C550.884,351.198 551.091,352.335 552.013,351.845C552.77,351.443 553.068,350.542 553.183,349.054C553.32,347.286 553.242,344.894 553.473,344.215C554.615,340.864 558.365,340.582 558.007,339.219C557.65,337.856 554.877,335.262 553.42,335.166C551.963,335.07 552.07,335.367 551.963,335.07C551.856,334.772 551.454,333.27 552.776,333.382ZM546.669,361.335C546.503,360.668 548.562,359.753 549.695,360.149C550.829,360.546 552.091,361.035 550.91,361.705C549.73,362.375 546.825,361.962 546.669,361.335Z"/>
            </g>
        </g>
    </g>
</svg>
