<?xml version="1.0" encoding="UTF-8" standalone="no"?>
<!DOCTYPE svg PUBLIC "-//W3C//DTD SVG 1.1//EN" "http://www.w3.org/Graphics/SVG/1.1/DTD/svg11.dtd">
<svg width="100%" height="100%" viewBox="0 0 501 501" version="1.1" xmlns="http://www.w3.org/2000/svg" xmlns:xlink="http://www.w3.org/1999/xlink" xml:space="preserve" style="fill-rule:evenodd;clip-rule:evenodd;stroke-linejoin:round;stroke-miterlimit:1.41421;">
    <g transform="matrix(1,0,0,1,-3365,-1147)">
        <g id="mu-.--ム" transform="matrix(1.5375,0,0,1.65217,3057.18,1808.68)">
            <rect x="200.586" y="-400.056" width="325.203" height="302.633" style="fill:none;"/>
            <g id="mu" transform="matrix(7.59951,0,0,7.07207,-3829.77,-2092.49)">
                <path d="M548.334,246.435C548.334,246.435 548.312,246.867 551.305,247.176C553.08,247.36 553.845,246.86 555.606,246.358C557.905,245.704 560.878,243.585 562.594,244.145C564.895,244.895 567.868,246.87 567.831,249.821C567.794,252.772 562.941,256.606 559.997,256.857C557.054,257.109 555.975,259.4 556.286,260.022C556.596,260.644 559.669,259.614 560.702,260.565C561.735,261.516 562.359,262.156 562.261,263.333C562.163,264.509 557.855,267.099 558.655,267.466C559.454,267.833 562.84,266.932 564.277,267.138C565.714,267.344 564.57,268.451 565.354,269.245C565.98,269.879 567.522,268.655 568.305,269.742C569.088,270.829 569.111,273.623 567.9,274.382C566.689,275.14 563.277,277.852 556.61,277.288C549.943,276.725 551.402,273.156 548.692,273.194C545.982,273.231 545.047,276.098 541.831,275.869C538.24,275.613 536.972,273.262 538.802,272.24C540.328,271.388 542.88,270.205 544.796,270.217C546.711,270.229 548.312,269.935 548.043,268.614C547.773,267.294 547.288,267.575 546.317,266.525C545.347,265.476 543.888,263.009 545.172,262.16C546.457,261.312 547.949,260.066 547.875,258.37C547.8,256.675 548.601,256.827 546.511,256.498C544.081,256.116 542.506,257.321 541.407,258.301C540.272,259.314 538.035,259.762 537.361,258.473C536.298,256.441 535.088,257.783 534.733,256.603C534.378,255.423 534.878,254.732 536.295,255.101C537.711,255.47 537.559,256.247 539.457,255.935C541.355,255.624 543.548,253.479 546.163,253.393C548.777,253.307 550.935,254.236 551.257,256.006C551.579,257.776 551.272,261.262 548.708,263.123C546.145,264.983 548.201,264.38 548.766,264.965C549.332,265.55 552.754,266.268 552.344,267.846C551.935,269.424 550.204,269.976 550.979,271.094C551.509,271.858 552.381,272.375 555.002,272.672C557.956,273.006 561.275,273.368 562.849,272.942C564.423,272.516 565.489,271.814 564.909,271.022C564.329,270.23 563.254,269.434 562.641,270.184C562.028,270.934 556.863,272.055 556.188,270.474C555.513,268.894 555.063,267.761 556.474,266.806C557.884,265.851 559.242,264.472 558.617,263.653C557.197,261.792 556.731,264.476 554.008,263.629C551.285,262.782 551.736,259.875 552.775,258.394C554.041,256.588 557.204,255.597 558.968,254.908C560.91,254.149 564.005,252.403 563.775,250.893C563.545,249.382 563.191,247.313 560.88,248.031C558.57,248.748 554.971,251.616 552.849,251.22C550.728,250.823 548.065,249.422 548,248.51C547.936,247.599 546.83,246.984 548.334,246.435Z"/>
            </g>
        </g>
    </g>
</svg>
