<?xml version="1.0" encoding="UTF-8" standalone="no"?>
<!DOCTYPE svg PUBLIC "-//W3C//DTD SVG 1.1//EN" "http://www.w3.org/Graphics/SVG/1.1/DTD/svg11.dtd">
<svg width="100%" height="100%" viewBox="0 0 501 500" version="1.1" xmlns="http://www.w3.org/2000/svg" xmlns:xlink="http://www.w3.org/1999/xlink" xml:space="preserve" style="fill-rule:evenodd;clip-rule:evenodd;stroke-linejoin:round;stroke-miterlimit:1.41421;">
    <g transform="matrix(1,0,0,1,-2243,0)">
        <g id="na-.--ナ" transform="matrix(1.5375,0,0,1.65217,1935.32,660.959)">
            <rect x="200.586" y="-400.056" width="325.203" height="302.633" style="fill:none;"/>
            <g id="na" transform="matrix(6.87766,0,0,6.40033,-3844.24,-1327.58)">
                <path d="M608.867,151.852C609.178,151.963 609.959,151.339 610.659,152.678C611.118,153.557 610.373,155.596 611.004,155.987C612.216,156.737 613.848,156.962 616.134,156.351C618.421,155.74 623.524,156.787 625.374,156.935C627.224,157.083 630.081,156.429 630.626,157.195C630.992,157.708 628.802,160.081 626.682,160.147C624.562,160.213 621.597,159.324 621.379,159.925C621.161,160.526 621.601,160.948 622.007,162.47C622.413,163.992 622.504,165.21 621.893,166.795C621.281,168.379 620.407,170.844 621.165,170.968C621.924,171.092 626.184,170.297 626.951,170.765C627.718,171.233 627.821,171.665 626.951,172.313C626.081,172.961 623.098,173.49 622.009,174.517C621.067,175.406 620.68,176.733 620.211,178.379C619.849,179.646 614.967,185.423 613.531,185.316C612.656,185.251 611.351,184.893 612.414,184.276C613.336,183.74 617.095,178.663 617.199,177.393C617.28,176.408 617.815,173.438 617.199,172.802C616.774,172.361 610.526,172.314 609.72,172.85C609.312,173.122 607.175,174.167 605.296,175.381C603.468,176.562 601.785,177.778 600.932,177.824C595.776,178.103 593.665,174.304 592.944,173.243C592.316,172.32 594.691,172.876 595.595,173.223C596.431,173.545 597.142,173.43 598.952,173.436C600.192,173.441 601.166,172.978 602.324,172.78C603.229,172.625 604.347,172.824 605.161,172.486C606.779,171.815 607.708,171.025 609.093,170.42C610.478,169.814 610.762,169.023 612.973,169.194C615.184,169.366 616.833,169.723 617.429,168.922C618.025,168.121 618.665,166.394 618.599,165.263C618.533,164.131 618.463,162.402 617.277,161.847C616.091,161.292 615.601,160.211 613.891,160.284C612.18,160.357 611.461,161.394 610.146,161.706C608.832,162.017 608.352,161.967 607.443,162.01C606.534,162.053 605.96,163.399 606.461,163.604C606.961,163.809 608.102,163.762 609.285,163.158C610.467,162.555 611.499,162.004 611.897,162.89C612.672,164.614 608.211,165.724 608.082,166.459C607.948,167.227 609.768,167.022 609.658,168.024C609.548,169.025 607.762,170.194 606.451,170.34C604.589,170.547 604.516,172.306 602.14,171.771C599.763,171.235 597.817,170.63 599.13,169.422C600.443,168.214 601.669,168.039 601.214,167.702C600.758,167.364 597.376,167.989 597.208,166.636C597.04,165.283 596.445,164.148 597.855,164.208C599.265,164.269 602.077,164.268 602.882,163.974C603.686,163.68 604.519,163.295 604.045,163.07C603.571,162.846 600.418,162.368 599.191,161.494C598.326,160.877 597.914,159.49 599.517,159.389C601.12,159.289 605.577,160.027 605.744,159.187C605.911,158.347 604.686,157.02 605.747,157.092C607.49,157.211 608.045,156.389 607.105,154.587C606.401,153.239 608.217,151.618 608.867,151.852Z"/>
            </g>
        </g>
    </g>
</svg>
