<?xml version="1.0" encoding="UTF-8" standalone="no"?>
<!DOCTYPE svg PUBLIC "-//W3C//DTD SVG 1.1//EN" "http://www.w3.org/Graphics/SVG/1.1/DTD/svg11.dtd">
<svg width="100%" height="100%" viewBox="0 0 501 501" version="1.1" xmlns="http://www.w3.org/2000/svg" xmlns:xlink="http://www.w3.org/1999/xlink" xml:space="preserve" style="fill-rule:evenodd;clip-rule:evenodd;stroke-linejoin:round;stroke-miterlimit:1.41421;">
    <g transform="matrix(1,0,0,1,-2243,-1721)">
        <g id="ne-.--ãƒ" transform="matrix(1.5375,0,0,1.65217,1935.32,2382.53)">
            <rect x="200.586" y="-400.056" width="325.203" height="302.633" style="fill:none;"/>
            <g id="ne" transform="matrix(7.05471,0,0,6.56509,-3964.51,-2261.97)">
                <path d="M614.574,288.468C615.836,288.745 618.822,288.899 619.658,290.342C620.495,291.786 620.543,292.557 620.082,293.714C619.372,295.493 614.586,298.521 614.465,298.902C614.202,299.733 613.566,300.022 614.851,300.253C616.136,300.484 618.387,300.49 619.766,301.544C621.145,302.597 621.488,303.154 621.553,304.691C621.618,306.228 621.317,307.752 619.742,308.398C617.175,309.452 614.711,310.216 614.357,311.145C614.004,312.075 613.23,312.26 614.439,312.683C615.649,313.106 616.588,313.024 617.848,314.169C619.107,315.315 620.087,316.478 620.736,317.266C621.385,318.053 621.857,319.4 623.187,319.589C624.517,319.777 625.862,319.607 626.433,318.801C627.003,317.995 629.165,315.122 629.605,314.594C630.044,314.066 630.255,313.75 630.843,313.749C631.432,313.749 632.007,314.501 631.865,315.159C631.722,315.818 630.45,317.22 629.975,317.828C629.5,318.435 625.58,323.687 622.922,323.202C620.263,322.716 618.538,319.453 616.877,319.55C615.215,319.647 613.66,320.813 612.821,321.691C611.981,322.568 610.718,324.123 609.693,324.35C608.668,324.578 608.205,325.151 607.678,324.789C607.152,324.426 607.609,323.967 608.343,323.559C609.076,323.152 610.063,322.793 609.341,322.425C608.618,322.057 608.494,321.939 607.496,322.392C606.498,322.844 606.204,323.31 604.34,323.246C602.475,323.183 600.974,323.144 600.479,321.761C600.098,320.698 599.924,319.287 601.141,318.6C602.358,317.914 604.222,316.769 604.174,315.656C604.126,314.543 604.021,313.78 602.409,313.656C600.797,313.533 597.315,313.915 596.422,313.222C595.528,312.53 594.799,310.561 595.743,309.3C596.688,308.039 598.364,306.728 599.657,305.309C600.648,304.221 601.027,302.704 600.458,301.942C599.701,300.927 596.105,299.326 595.482,298.63C594.86,297.934 594.871,297.27 595.399,297.184C595.927,297.097 597.074,297.313 598.016,297.672C599.565,298.262 600.157,298.39 601.219,299.011C602.685,299.869 604.214,301.749 603.928,303.434C603.643,305.119 602.477,306.689 601.383,307.636C600.29,308.583 599.67,309.133 600.302,309.565C600.934,309.998 604.499,309.56 605.512,310.174C606.55,310.804 607.593,312.2 607.722,313.53C607.812,314.467 608.168,315.851 607.735,316.353C606.403,317.899 606.65,318.376 607.518,318.608C608.358,318.833 609.234,318.78 610.13,317.995C611.026,317.211 611.199,317.202 612.045,316.675C612.891,316.149 613.482,315.595 612.45,315.167C611.438,314.747 609.698,315.003 609.737,313.115C609.768,311.595 611.439,309.273 612.493,308.641C613.526,308.021 617.179,306.826 616.783,305.955C616.387,305.084 615.748,304.602 613.772,304.519C611.797,304.436 609.696,302.686 609.555,301.34C609.239,298.32 610.634,297.729 611.753,297.029C612.762,296.398 616.306,294.052 616.738,293.39C617.247,292.611 612.406,291.949 611.609,292.403C610.811,292.856 609.633,293.899 607.83,293.842C606.026,293.786 605.911,293.208 605.052,292.779C604.193,292.35 602.015,291.667 602.608,290.427C603.201,289.188 603.581,288.635 604.647,289.327C605.714,290.019 606.739,290.501 607.814,290.45C608.888,290.398 611.602,288.815 612.091,288.685C612.579,288.555 613.763,288.291 614.574,288.468Z"/>
            </g>
        </g>
    </g>
</svg>
