<?xml version="1.0" encoding="UTF-8" standalone="no"?>
<!DOCTYPE svg PUBLIC "-//W3C//DTD SVG 1.1//EN" "http://www.w3.org/Graphics/SVG/1.1/DTD/svg11.dtd">
<svg width="100%" height="100%" viewBox="0 0 501 501" version="1.1" xmlns="http://www.w3.org/2000/svg" xmlns:xlink="http://www.w3.org/1999/xlink" xml:space="preserve" style="fill-rule:evenodd;clip-rule:evenodd;stroke-linejoin:round;stroke-miterlimit:1.41421;">
    <g transform="matrix(1,0,0,1,-2243,-573)">
        <g id="ni-.--ニ" transform="matrix(1.5375,0,0,1.65217,1935.32,1234.82)">
            <rect x="200.586" y="-400.056" width="325.203" height="302.633" style="fill:none;"/>
            <g id="ni" transform="matrix(6.38907,0,0,5.94564,-3555.96,-1526.46)">
                <path d="M606.971,194.673C608.137,194.321 607.286,195.848 610.3,195.87C613.314,195.891 613.551,194.568 616.486,194.541C619.421,194.513 622.579,195.926 621.907,199.42C621.235,202.914 618.382,203.725 617.275,204.088C616.168,204.45 612.042,206.232 610.645,207.536C609.248,208.84 607.195,210.595 608.117,211.018C609.039,211.442 609.303,211.951 611.08,211.091C612.858,210.231 615.809,208.685 616.909,207.338C618.009,205.992 619.25,204.537 621.342,204.409C623.435,204.281 625.87,203.917 626.397,205.675C626.925,207.433 626.448,209.76 627.35,210.452C628.252,211.145 628.147,209.723 629.76,211.089C631.373,212.455 631.778,212.863 631.739,214.154C631.699,215.446 631.362,219.265 628.033,219.583C624.705,219.901 621.354,219.186 620.735,219.931C620.117,220.676 618.989,223.611 618.861,226.076C618.733,228.541 619.019,234.028 619.031,234.674C618.588,235.333 617.941,235.616 617.581,234.55C617.221,233.485 616.639,230.868 616.429,229.618C616.218,228.368 616.262,224.185 616.589,223.396C616.915,222.608 617.654,220.283 617.123,220.116C616.592,219.95 613.793,219.924 612.904,221.045C612.014,222.165 608.973,225.414 608.099,225.581C607.226,225.748 605.891,227.069 604.842,227.215C603.793,227.361 601.077,227.778 598.657,226.4C596.236,225.022 594.826,223.805 595.127,221.959C595.427,220.113 595.873,220.261 596.383,221.014C596.894,221.768 598.046,225.664 602.248,224.622C606.451,223.58 606.444,221.95 608.6,220.199C610.755,218.448 612.586,217.412 614.918,217.33C617.251,217.248 617.908,216.877 619.149,215.611C620.39,214.344 621.428,214.624 621.162,213.504C620.895,212.383 620.325,211.557 620.145,210.777C619.964,209.997 619.429,209.325 620.687,209.674C621.945,210.023 622.313,210.991 622.981,210.185C623.648,209.379 623.988,208.355 622.949,208.149C621.911,207.944 620.251,208.095 619.849,208.806C619.448,209.516 619.387,209.595 618.499,209.574C617.611,209.553 616.486,209.454 616.027,210.551C615.569,211.648 614.592,213.02 613.263,213.478C611.934,213.936 607.734,216.927 605.198,214.386C602.661,211.845 604.099,208.089 605.949,206.883C607.8,205.677 612.236,204.224 613.584,203.401C614.931,202.577 617.473,200.511 616.801,199.577C616.129,198.643 615.438,199.067 613.614,199.757C611.789,200.447 610.869,200.806 609.059,199.847C607.249,198.889 606.424,198.349 606.381,197.088C606.339,195.827 605.81,195.024 606.971,194.673ZM622.672,216.627C622.672,216.627 623.007,216.142 623.648,215.586C624.288,215.03 624.119,214.486 625.379,214.531C626.64,214.576 627.486,214.45 627.3,215.394C627.114,216.339 627.132,216.828 625.951,217.012C624.769,217.196 623.428,217.42 622.672,216.627Z"/>
            </g>
        </g>
    </g>
</svg>
