<?xml version="1.0" encoding="UTF-8" standalone="no"?>
<!DOCTYPE svg PUBLIC "-//W3C//DTD SVG 1.1//EN" "http://www.w3.org/Graphics/SVG/1.1/DTD/svg11.dtd">
<svg width="100%" height="100%" viewBox="0 0 501 501" version="1.1" xmlns="http://www.w3.org/2000/svg" xmlns:xlink="http://www.w3.org/1999/xlink" xml:space="preserve" style="fill-rule:evenodd;clip-rule:evenodd;stroke-linejoin:round;stroke-miterlimit:1.41421;">
    <g transform="matrix(1,0,0,1,-2243,-2295)">
        <g id="no-.--ノ" transform="matrix(1.5375,0,0,1.65217,1935.32,2956.39)">
            <rect x="200.586" y="-400.056" width="325.203" height="302.633" style="fill:none;"/>
            <g id="no" transform="matrix(7.15518,0,0,6.65859,-4024.99,-2600.56)">
                <path d="M608.308,337.109C609.39,337.528 610.931,338.026 610.944,341.606C610.96,345.65 607.275,346.508 606.562,347.721C605.85,348.934 605.451,349.363 606.582,349.61C607.714,349.856 612.07,349.502 614.213,350.397C615.466,350.921 619.172,354.57 620.241,356.945C621.36,359.43 621.367,360.857 623.358,361.455C625.35,362.052 627.344,362.185 628.436,361.694C629.529,361.202 630.222,360.261 630.874,361.134C631.122,361.467 631.175,362.15 630.697,362.474C629.635,363.197 627.541,365.548 625.645,365.585C623.748,365.621 621.319,364.979 619.479,362.133C617.638,359.288 615.585,355.15 613.68,354.189C611.775,353.228 607.853,351.614 606.436,351.837C605.018,352.06 606,352.81 606.754,353.081C607.507,353.353 608.46,354.302 608.153,355.836C607.846,357.371 605.2,360.52 606.156,360.673C607.111,360.826 609.511,360.568 609.924,361.691C610.338,362.813 611.328,365.273 609.739,365.963C608.149,366.654 606.779,367.87 605.899,368.816C605.02,369.762 603.51,371.689 602.374,371.102C601.238,370.514 600.839,369.83 602.074,369.164C603.308,368.498 605.718,367.206 605.554,366.131C605.39,365.056 602.115,363.481 602.37,362.069C602.626,360.657 605.172,358.074 605.225,357.282C605.278,356.491 605.694,355.947 604.63,355.245C603.566,354.544 599.916,351.882 598.285,351.35C596.655,350.817 594.773,350.311 595.156,349.336C595.54,348.361 596.213,347.647 597.201,348.03C598.189,348.413 600.01,349.798 600.894,349.42C601.779,349.043 605.227,345.464 606.155,344.878C607.083,344.292 608.543,342.671 607.925,341.522C607.308,340.372 605.904,338.368 606.655,337.713C607.407,337.058 607.761,336.896 608.308,337.109ZM616.9,335.538C616.9,335.538 618.748,334.722 620.068,335.596C621.389,336.471 621.233,337.168 621.442,338.077C621.65,338.987 621.749,338.533 622.693,338.731C623.637,338.93 623.987,339.073 623.788,340.323C623.552,341.802 623.87,342.501 624.25,343.33C624.67,344.249 623.977,344.929 625.319,345.34C626.336,345.652 626.351,346.548 627.239,345.933C628.127,345.317 628.928,344.893 628.016,343.937C627.105,342.982 626.719,342.058 626.417,341.243C626.115,340.429 625.763,339.966 626.212,339.84C627.19,339.566 628.532,339.816 629.2,340.466C629.868,341.115 631.801,342.512 631.415,344.099C631.029,345.687 629.533,347.236 629.304,348.68C629.074,350.125 629.544,349.728 629.978,351.409C630.412,353.091 631.134,353.472 629.156,354.647C627.178,355.822 625.267,356.735 624.205,356.112C623.142,355.489 624.183,355.841 625.318,354.815C626.453,353.789 627.565,352.291 626.559,351.437C625.553,350.582 623.937,350.301 623.015,351.666C622.094,353.031 621.428,354.459 620.716,353.824C620.003,353.188 620.477,352.401 621.221,351.205C621.965,350.009 622.789,348.594 622.182,347.475C621.576,346.357 621.38,346.536 621.469,345.354C621.558,344.172 622.227,340.848 621.487,341.036C620.748,341.224 619.037,341.452 619.04,343.013C619.044,344.573 619.486,344.623 619.97,345.679C620.454,346.735 620.479,347.88 619.782,348.381C619.084,348.882 617.461,351.237 616.734,350.097C616.007,348.957 615.807,342.788 616.545,341.728C617.283,340.667 618.758,340.539 618.466,339.414C618.174,338.288 617.697,338.04 616.869,337.452C616.04,336.865 615.538,335.649 616.9,335.538Z"/>
            </g>
        </g>
    </g>
</svg>
