<?xml version="1.0" encoding="UTF-8" standalone="no"?>
<!DOCTYPE svg PUBLIC "-//W3C//DTD SVG 1.1//EN" "http://www.w3.org/Graphics/SVG/1.1/DTD/svg11.dtd">
<svg width="100%" height="100%" viewBox="0 0 501 501" version="1.1" xmlns="http://www.w3.org/2000/svg" xmlns:xlink="http://www.w3.org/1999/xlink" xml:space="preserve" style="fill-rule:evenodd;clip-rule:evenodd;stroke-linejoin:round;stroke-miterlimit:1.41421;">
    <g transform="matrix(1,0,0,1,-2243,-1147)">
        <g id="nu-.--ヌ" transform="matrix(1.5375,0,0,1.65217,1935.32,1808.68)">
            <rect x="200.586" y="-400.056" width="325.203" height="302.633" style="fill:none;"/>
            <g id="nu" transform="matrix(6.86215,0,0,6.38589,-3844.16,-1904.97)">
                <path d="M613.494,245.185C613.494,245.185 615.418,246.214 616.412,247.264C618.051,248.996 618.693,250.949 619.96,251.203C621.731,251.56 622.764,251.245 624.394,252.367C626.648,253.92 627.198,254.686 626.052,255.976C624.892,257.283 620.407,258.348 617.837,258.261C615.777,258.191 617.04,259.407 617.57,259.88C618.1,260.354 620.323,260.962 621.276,263.051C622.23,265.14 622.554,266.712 624.65,267.062C626.747,267.412 631.834,266.801 632.03,267.59C632.226,268.379 631.876,269.07 630.381,270.042C628.729,271.117 625.373,271.014 623.13,270.215C621.418,269.605 618.972,265.609 618.175,263.82C617.767,262.904 616.818,262.376 616.399,262.649C615.98,262.921 616.137,264.903 616.57,266.712C617.048,268.712 617.399,272.513 616.427,273.093C615.524,273.632 613.552,273.895 612.738,272.525C611.923,271.155 610.283,268.423 611.209,268.1C612.134,267.777 612.06,269.536 613.11,269.789C614.159,270.042 614.554,270.115 614.405,268.423C614.256,266.731 613.7,263.428 613.019,263.609C612.337,263.79 610.851,265.376 609.936,266.655C609.02,267.933 605.064,270.904 602.62,271.462C600.104,272.036 595.947,271.866 594.983,270.136C594.171,268.681 593.755,267.165 594.747,267.31C595.74,267.455 598.368,269.158 600.61,268.589C602.851,268.02 606.089,266.478 606.97,265.39C607.851,264.302 610.207,261.827 610.702,261.24C611.196,260.652 611.953,259.548 611.045,259.554C610.136,259.56 609.685,259.541 609.103,259.913C608.521,260.284 607.633,260.512 606.029,259.688C604.424,258.865 601.403,256.859 601.062,256.037C600.686,255.132 601.875,253.757 603.594,254.654C604.854,255.312 606.662,255.538 609.055,255.472C611.449,255.406 614.499,255.806 615.495,255.031C616.492,254.255 617.077,251.918 616.268,251.472C615.459,251.025 612.533,248.612 612.595,247.592C612.658,246.572 612.017,245.142 613.494,245.185ZM620.639,253.661C620.639,253.661 619.439,253.023 619.594,253.966C619.75,254.91 619.946,255.368 620.969,255.282C621.991,255.197 621.892,253.634 620.639,253.661Z"/>
            </g>
        </g>
    </g>
</svg>
