<?xml version="1.0" encoding="UTF-8" standalone="no"?>
<!DOCTYPE svg PUBLIC "-//W3C//DTD SVG 1.1//EN" "http://www.w3.org/Graphics/SVG/1.1/DTD/svg11.dtd">
<svg width="100%" height="100%" viewBox="0 0 500 501" version="1.1" xmlns="http://www.w3.org/2000/svg" xmlns:xlink="http://www.w3.org/1999/xlink" xml:space="preserve" style="fill-rule:evenodd;clip-rule:evenodd;stroke-linejoin:round;stroke-miterlimit:1.41421;">
    <g transform="matrix(1,0,0,1,0,-2295)">
        <g id="o-.--オ" transform="matrix(1.5375,0,0,1.65217,-308.401,2956.39)">
            <rect x="200.586" y="-400.056" width="325.203" height="302.633" style="fill:none;"/>
            <g id="o" transform="matrix(8.16958,0,0,7.60258,-5633.19,-2936.13)">
                <path d="M728.815,345.379C729.201,345.421 730.936,344.836 731.254,345.509C731.671,346.392 731.298,347.367 732.869,347.615C734.439,347.863 735.65,347.399 737.239,348.042C738.828,348.686 739.996,349.879 740.044,351.342C740.092,352.806 738.552,355.11 737.928,355.526C737.303,355.941 736.44,356.797 737.181,357.841C737.923,358.886 738.657,357.963 738.996,359.81C739.335,361.657 740.236,362.251 741.167,361.431C742.097,360.611 741.439,356.951 742.464,355.535C743.488,354.12 744.528,353.406 746.251,353.134C747.973,352.862 747.907,351.891 748.788,352.337C749.669,352.783 750.434,353.404 749.449,354.075C748.463,354.747 746.58,354.945 745.9,356.051C745.221,357.158 744.915,359.236 744.786,360.567C744.658,361.899 744.182,365.56 742.637,366.102C741.091,366.645 739.457,367.165 737.912,366.249C736.368,365.333 735.252,364.259 735.614,362.596C735.977,360.933 736.294,361.245 735.41,359.843C734.526,358.441 733.647,358.078 734.348,356.258C735.048,354.439 736.385,353.857 736.257,352.636C736.129,351.416 734.481,349.656 733.314,350.603C732.147,351.549 731.985,354.148 731.197,354.865C730.408,355.583 729.326,355.678 729.344,357.533C729.363,359.388 730.139,360.644 729.789,361.519C729.438,362.393 727.568,364.892 726.32,365.32C725.072,365.748 723.358,366.207 722.504,366.878C721.65,367.55 721.001,367.852 720.438,367.717C719.745,367.551 719.427,367.07 721,366.268C722.647,365.43 724.955,363.112 725.611,362.078C726.266,361.043 726.451,357.471 726.472,356.687C726.503,355.502 727.188,355.26 727.012,354.622C726.8,353.853 726.456,354.278 725.147,353.628C723.241,352.682 721.223,353.171 721.054,351.889C720.885,350.607 722.162,350.482 722.971,350.481C723.779,350.481 727.42,350.849 728.114,350.348C728.809,349.847 730.022,349.513 730.006,348.706C729.982,347.465 729.945,346.92 729.207,346.611C728.468,346.302 727.295,345.211 728.815,345.379ZM719.859,342.422C720.597,342.24 722.387,342.492 724.138,341.47C725.889,340.447 726.995,339.592 729.12,339.839C731.244,340.085 731.098,340.946 733.747,340.754C736.395,340.562 736.112,340.055 738.577,340.145C741.043,340.236 740.473,340.747 742.85,340.417C745.45,340.057 746.591,338.954 747.234,339.28C747.656,339.494 747.141,340.064 746.865,340.297C745.954,341.07 744.183,344.046 741.766,343.913C739.35,343.78 738.328,342.982 736.818,343.271C735.307,343.56 733.872,344.592 731.774,344.129C729.675,343.667 729.124,343.303 726.626,343.399C724.127,343.496 722.402,344.572 720.991,344.763C718.922,345.043 716.212,343.323 719.859,342.422Z"/>
            </g>
        </g>
    </g>
</svg>
