<?xml version="1.0" encoding="UTF-8" standalone="no"?>
<!DOCTYPE svg PUBLIC "-//W3C//DTD SVG 1.1//EN" "http://www.w3.org/Graphics/SVG/1.1/DTD/svg11.dtd">
<svg width="100%" height="100%" viewBox="0 0 501 500" version="1.1" xmlns="http://www.w3.org/2000/svg" xmlns:xlink="http://www.w3.org/1999/xlink" xml:space="preserve" style="fill-rule:evenodd;clip-rule:evenodd;stroke-linejoin:round;stroke-miterlimit:1.41421;">
    <g transform="matrix(1,0,0,1,-4487,0)">
        <g id="ra-.--ラ" transform="matrix(1.5375,0,0,1.65217,4179.04,660.959)">
            <rect x="200.586" y="-400.056" width="325.203" height="302.633" style="fill:none;"/>
            <g id="ra" transform="matrix(7.34699,0,0,6.83708,-3262.77,-1402.7)">
                <path d="M478.067,180.966C478.067,180.966 475.505,182.108 477.111,183.285C478.717,184.462 479.671,185.958 481.184,184.961C482.698,183.964 481.381,183.055 484.46,183.202C487.539,183.348 487.338,183.273 490.912,183.871C494.485,184.469 495.222,184.522 498.369,184.412C501.515,184.301 502.851,183.98 505.128,182.586C507.404,181.191 508.806,180.88 509.044,179.539C509.282,178.198 508.096,177.934 506.673,178.769C505.249,179.604 501.828,181.704 497.846,181.405C493.863,181.107 493.523,180.853 489.723,180.582C485.923,180.312 484.905,180.305 482.936,180.555C480.967,180.806 479.061,180.551 478.067,180.966ZM484.652,152.617C487.878,153.017 489.883,152.991 493.515,152.376C497.147,151.76 499.588,154.029 499.62,155.117C499.678,157.137 496.748,159.011 495.536,160.848C495.004,161.655 495.069,161.933 495.138,162.589C495.219,163.363 495.833,164.28 495.912,164.993C496.049,166.23 495.389,166.819 495.794,167.047C496.138,167.24 496.974,166.762 498.462,166.68C502.873,166.438 510.823,165.93 511.235,166.923C508.925,169.205 499.977,169.574 498.5,170.017C498.14,172.187 498.613,174.15 498.613,174.15C501.508,174.341 504.665,174.565 504.667,176.062C504.669,177.559 504.943,177.821 502.674,177.828C500.404,177.835 498.318,176.781 497.331,177.75C496.344,178.719 496.084,180.319 495.408,179.773C494.731,179.227 495.852,178.585 494.579,178.031C493.306,177.477 490.646,177.781 489.392,177.886C488.139,177.991 488.034,177.849 487.11,178.516C486.185,179.183 485.824,179.208 484.865,178.951C483.907,178.693 482.313,179.502 480.877,179.774C479.441,180.046 477.785,179.48 478.612,178.668C479.438,177.856 483.152,177.431 483.438,176.469C483.724,175.507 482.536,174.192 480.774,173.481C479.012,172.771 477.332,171.337 476.786,170.2C476.239,169.064 475.088,167.58 476.504,167.574C477.921,167.568 478.596,168.937 480.038,169.508C481.481,170.08 485.812,170.938 487.353,170.356C488.895,169.774 490.672,169.469 490.163,168.73C489.655,167.99 488.103,167.799 488.414,166.78C488.726,165.762 489.509,166.316 490.776,166.437C492.043,166.557 491.968,165.718 491.055,164.395C490.142,163.073 489.289,160.375 494.426,157.461C495.179,155.548 492.395,156.045 490.963,156.438C489.531,156.83 485.864,157.654 485.118,156.721C484.372,155.788 483.246,152.443 484.652,152.617ZM488.316,172.847C488.316,172.847 485.935,172.393 486.416,173.64C486.896,174.887 486.757,175.555 487.847,175.203C488.937,174.851 490.456,173.294 488.316,172.847ZM493.923,171.979C493.923,171.979 491.534,171.558 491.99,172.76C492.445,173.961 493.63,174.933 494.503,174.207C496.627,172.441 493.923,171.979 493.923,171.979Z"/>
            </g>
        </g>
    </g>
</svg>
