<?xml version="1.0" encoding="UTF-8" standalone="no"?>
<!DOCTYPE svg PUBLIC "-//W3C//DTD SVG 1.1//EN" "http://www.w3.org/Graphics/SVG/1.1/DTD/svg11.dtd">
<svg width="100%" height="100%" viewBox="0 0 501 501" version="1.1" xmlns="http://www.w3.org/2000/svg" xmlns:xlink="http://www.w3.org/1999/xlink" xml:space="preserve" style="fill-rule:evenodd;clip-rule:evenodd;stroke-linejoin:round;stroke-miterlimit:1.41421;">
    <g transform="matrix(1,0,0,1,-4487,-1721)">
        <g id="re-.--レ" transform="matrix(1.5375,0,0,1.65217,4179.04,2382.53)">
            <rect x="200.586" y="-400.056" width="325.203" height="302.633" style="fill:none;"/>
            <g id="re" transform="matrix(7.07965,0,0,6.5883,-3130.83,-2268)">
                <path d="M496.169,288.174C496.295,287.985 500.085,289.882 500.193,292.142C500.285,294.057 496.054,294.945 494.465,295.608C494.199,295.719 493.599,295.495 493.331,295.789C492.957,296.2 492.976,297.195 493.21,297.749C493.383,298.159 494.028,298.005 494.166,298.332C494.458,299.024 494.287,300.034 495.274,300.213C496.655,300.464 499.33,299.978 500.27,301.118C501.141,302.173 501.792,302.239 501.599,304.08C501.507,304.961 501.425,306.789 500.283,307.615C498.814,308.676 496.134,309.565 495.249,310.148C494.221,310.824 494.274,311.985 494.998,312.05C495.722,312.115 495.984,311.065 497.422,311.805C498.86,312.545 500.689,313.475 500.628,314.49C500.567,315.506 498.922,316.715 497.293,316.909C495.665,317.102 498.696,318.35 499.4,318.607C499.833,318.765 503.054,319.352 505.319,318.884C506.729,318.593 507.424,317.877 508.734,316.239C510.044,314.602 509.64,313.863 510.473,313.955C511.306,314.048 511.726,316 511.113,316.706C510.5,317.411 507.354,320.3 506.493,320.951C505.632,321.602 503.807,323.332 501.985,323.238C500.162,323.145 497.953,322.064 496.731,321.079C495.51,320.093 494.415,319.014 494.41,319.813C494.404,320.612 494.81,322.028 493.902,322.407C492.993,322.786 492.286,323.419 491.693,322.554C491.1,321.689 491.049,319.838 489.937,320.177C488.826,320.516 486.743,322.234 485.82,323.119C484.897,324.003 485.068,324.92 483.951,324.863C482.155,324.773 482.11,322.728 482.567,320.612C482.946,318.861 486.717,315.637 488.324,315.882C489.025,315.989 489.079,314.388 489.173,313.923C489.316,313.219 489.962,312.077 489.01,312.282C488.058,312.487 487.439,313.622 486.356,313.673C485.273,313.725 482.425,314.116 482.115,313.514C481.804,312.912 482.608,312.382 481.434,311.857C480.26,311.332 476.018,309.3 475.867,309.008C475.716,308.717 475.308,307.948 476.29,307.973C477.272,307.998 483.005,308.991 483.662,308.565C484.318,308.138 485.024,306.311 485.01,304.895C484.996,303.48 484.641,302.547 486.306,302.161C487.971,301.774 490.395,302.173 490.684,301.154C490.972,300.134 490.821,299.791 490.412,298.521C490.003,297.251 489.989,294.482 491.268,293.396C492.585,292.277 494.842,293.08 495.248,292.629C495.731,292.091 494.671,288.844 495.399,288.314C495.782,288.036 495.881,288.118 496.169,288.174ZM493.06,306.537C493.06,306.537 493.374,304.198 494.782,303.82C496.19,303.442 497.748,302.373 498.315,303.327C498.883,304.282 498.988,305.313 497.917,305.799C496.847,306.286 494.964,307.903 494.571,308.177C494.177,308.45 492.977,309.131 492.785,308.438C492.593,307.745 492.626,307.368 493.06,306.537ZM488.268,304.939C488.268,304.939 487.407,305.287 487.786,306.376C488.166,307.465 489.081,308.212 489.534,307.819C489.988,307.427 490.556,306.077 490.096,305.447C489.636,304.818 488.603,304.697 488.268,304.939Z"/>
            </g>
        </g>
    </g>
</svg>
