<?xml version="1.0" encoding="UTF-8" standalone="no"?>
<!DOCTYPE svg PUBLIC "-//W3C//DTD SVG 1.1//EN" "http://www.w3.org/Graphics/SVG/1.1/DTD/svg11.dtd">
<svg width="100%" height="100%" viewBox="0 0 501 501" version="1.1" xmlns="http://www.w3.org/2000/svg" xmlns:xlink="http://www.w3.org/1999/xlink" xml:space="preserve" style="fill-rule:evenodd;clip-rule:evenodd;stroke-linejoin:round;stroke-miterlimit:1.41421;">
    <g transform="matrix(1,0,0,1,-4487,-573)">
        <g id="ri-.--リ" transform="matrix(1.5375,0,0,1.65217,4179.04,1234.82)">
            <rect x="200.586" y="-400.056" width="325.203" height="302.633" style="fill:none;"/>
            <g id="ri" transform="matrix(6.78212,0,0,6.31142,-2985.45,-1597.17)">
                <path d="M478.374,202.861C478.374,202.861 477.28,204.375 478.741,206.057C480.202,207.738 481.783,208.472 481.144,209.436C480.505,210.401 479.271,210.228 479.854,213.033C480.437,215.838 482.082,216.274 481.341,217.341C480.6,218.407 475.707,220.673 475.091,222.121C474.476,223.57 474.109,224.895 475.69,225.101C477.271,225.307 479.204,224.262 481.598,224.685C483.993,225.108 488.053,226.107 490.391,226.998C492.729,227.89 498.176,228.57 500.385,227.972C502.594,227.374 509.216,220.645 510.741,219.941C512.265,219.236 513.382,218.009 512.74,217.526C512.097,217.042 510.607,216.341 509.297,217.957C507.987,219.572 503.266,223.897 501.119,224.344C498.972,224.792 496.37,225.2 492.52,223.916C488.67,222.633 485.696,223.704 484.74,222.504C483.784,221.304 482.435,220.46 484.109,219.188C485.783,217.916 487.048,216.745 486.465,215.569C485.882,214.392 484.267,213.693 484.655,211.859C485.043,210.026 486.226,208.405 485.338,206.926C484.451,205.448 481.834,204.637 480.747,204.092C479.66,203.547 479.871,202.597 478.374,202.861ZM496.028,221.353C496.028,221.353 494.46,223.097 496.015,223.24C497.57,223.383 499.633,223.185 501.326,221.674C503.019,220.162 503.511,220.297 504.714,219.322C505.918,218.348 506.686,216.939 505.379,216.115C504.072,215.291 501.958,216.026 501.776,214.486C501.595,212.946 502.654,212.688 502.225,211.625C501.796,210.562 501.329,209.462 500.181,210.525C499.033,211.588 499.271,213.579 498.375,213.129C497.479,212.678 498.042,212.656 496.977,211.288C495.912,209.92 495.113,208.874 496.509,207.644C497.905,206.414 498.53,204.097 497.843,203.152C497.156,202.207 496.334,201.46 495.832,201.244C495.331,201.028 495.917,203.763 495.061,204.858C494.206,205.952 492.773,206.566 493.145,209.36C493.516,212.154 494.634,212.518 494.21,214.353C493.787,216.188 492.325,216.794 492.715,218.158C493.105,219.522 493.376,220.177 494.165,219.265C494.954,218.353 495.036,217.287 496.029,216.297C497.023,215.306 497.449,213.498 498.137,214.692C498.826,215.886 498.944,217.602 499.716,218.024C500.488,218.445 501.116,219.301 500.085,219.657C499.054,220.014 496.437,221.109 496.028,221.353ZM488.47,199.121C488.47,199.121 486.67,199.07 486.177,200.128C485.684,201.186 485.555,202.356 486.148,202.987C486.741,203.619 488.165,203.193 488.341,204.279C488.518,205.365 487.507,205.813 487.018,208.108C486.529,210.403 486.25,211.477 487.365,212.958C488.481,214.439 488.792,217.073 487.569,217.936C486.346,218.799 484.358,220.427 485.164,220.921C485.97,221.415 487.741,221.393 489.688,219.407C491.635,217.422 492.875,215.565 492.189,212.99C491.503,210.415 491.463,210.375 491.463,210.375C491.463,210.375 488.674,208.925 490.25,206.665C491.826,204.404 495.25,203.316 494.049,201.177C492.848,199.038 489.751,199.049 488.47,199.121Z"/>
            </g>
        </g>
    </g>
</svg>
