<?xml version="1.0" encoding="UTF-8" standalone="no"?>
<!DOCTYPE svg PUBLIC "-//W3C//DTD SVG 1.1//EN" "http://www.w3.org/Graphics/SVG/1.1/DTD/svg11.dtd">
<svg width="100%" height="100%" viewBox="0 0 501 501" version="1.1" xmlns="http://www.w3.org/2000/svg" xmlns:xlink="http://www.w3.org/1999/xlink" xml:space="preserve" style="fill-rule:evenodd;clip-rule:evenodd;stroke-linejoin:round;stroke-miterlimit:1.41421;">
    <g transform="matrix(1,0,0,1,-4487,-2295)">
        <g id="ro-.--ロ" transform="matrix(1.5375,0,0,1.65217,4179.04,2956.39)">
            <rect x="200.586" y="-400.056" width="325.203" height="302.633" style="fill:none;"/>
            <g id="ro" transform="matrix(7.23732,0,0,6.73502,-3211.44,-2627.37)">
                <path d="M487.013,340.161C488.965,339.995 490.81,338.962 493.796,337.211C496.781,335.461 496.471,334.783 499.328,335.454C502.185,336.125 503.987,337.323 504.515,339.334C504.906,340.819 504.38,342.795 503.424,343.712C502.141,344.944 498.323,346.015 496.722,346.553C495.234,347.054 494.901,347.345 496.079,348.026C497.256,348.707 498.185,349.989 500.78,349.432C503.375,348.875 504.486,348.85 505.264,347.52C506.042,346.189 506.145,344.635 506.828,345.897C507.511,347.16 508.158,347.011 507.064,348.391C505.97,349.772 505.089,350.684 503.783,351.21C502.477,351.735 501.2,351.061 500.983,352.13C500.766,353.199 500.969,352.809 501.204,354.025C501.44,355.24 501.613,356.387 500.602,357.161C499.59,357.936 497.36,358.772 496.268,359.719C495.176,360.665 493.977,363.346 494.645,363.091C495.313,362.837 495.38,361.614 496.302,361.662C497.224,361.709 499.481,362.229 499.952,363.573C500.422,364.918 499.99,366.518 501.214,366.502C502.438,366.486 502.675,365.8 502.77,364.104C502.865,362.408 502.991,360.786 503.836,360.028C504.681,359.269 505.112,360.09 505.153,361.064C505.195,362.038 504.8,365.031 505.244,366.353C505.688,367.674 506.881,369.282 505.77,369.946C504.658,370.611 503.139,371.421 501.117,371.057C499.095,370.692 497.735,370.29 497.278,368.493C496.822,366.697 497.63,365.211 496.72,365.399C495.81,365.587 496.233,366.935 495.482,367.376C494.731,367.817 492.047,368.99 490.82,367.471C489.592,365.952 489.647,362.531 490.725,361.323C491.803,360.116 495.015,357.819 495.668,357.133C496.304,356.463 497.334,355.645 496.624,355.03C495.792,354.311 494.034,355.277 493.033,355.806C492.031,356.336 490.481,357.169 490.185,358.213C489.889,359.256 489.844,360.357 489.006,360.799C487.95,361.357 485.168,361.921 483.846,361.559C482.524,361.196 480.072,360.954 480.185,359.935C480.297,358.916 480.599,358.681 482.102,358.991C483.605,359.3 484.879,359.218 486.042,358.498C487.206,357.778 488.922,356.572 488.144,356.138C487.367,355.704 486.177,356.046 485.445,355.411C484.714,354.775 482.597,353.917 481.933,353.46C481.27,353.004 480.863,352.196 481.806,351.856C482.75,351.517 483.746,351.713 484.18,351.337C484.613,350.961 483.701,350.01 482.97,349.919C482.239,349.829 480.466,347.952 481.396,347.033C482.326,346.114 483.285,346.648 484.271,347.055C485.258,347.463 487.306,346.992 487.97,346.303C488.634,345.614 492.1,345.215 493.619,345.278C495.139,345.34 500.545,343.017 500.628,341.999C500.712,340.982 501.099,338.821 499.702,338.649C498.704,338.526 494.16,340.034 492.67,340.936C491.181,341.838 488.64,343.384 487.003,343.363C485.365,343.342 481.66,340.554 482.121,339.893C482.582,339.232 483.617,339.123 484.454,339.564C485.292,340.005 485.801,340.264 487.013,340.161ZM492.949,350.536C492.474,350.857 491.662,350.181 491.524,351.498C491.379,352.883 491.452,353.381 492.425,353.265C493.755,353.106 495.386,352.496 495.426,351.862C495.466,351.228 494.798,350.287 492.949,350.536ZM487.841,350.516C487.395,350.653 486.379,350.08 486.504,350.929C486.629,351.778 486.825,352.042 487.475,352.041C488.124,352.041 488.92,350.982 487.841,350.516Z"/>
            </g>
        </g>
    </g>
</svg>
