<?xml version="1.0" encoding="UTF-8" standalone="no"?>
<!DOCTYPE svg PUBLIC "-//W3C//DTD SVG 1.1//EN" "http://www.w3.org/Graphics/SVG/1.1/DTD/svg11.dtd">
<svg width="100%" height="100%" viewBox="0 0 501 501" version="1.1" xmlns="http://www.w3.org/2000/svg" xmlns:xlink="http://www.w3.org/1999/xlink" xml:space="preserve" style="fill-rule:evenodd;clip-rule:evenodd;stroke-linejoin:round;stroke-miterlimit:1.41421;">
    <g transform="matrix(1,0,0,1,-4487,-1147)">
        <g id="ru-.--ル" transform="matrix(1.5375,0,0,1.65217,4179.04,1808.68)">
            <rect x="200.586" y="-400.056" width="325.203" height="302.633" style="fill:none;"/>
            <g id="ru" transform="matrix(6.82479,0,0,6.35112,-3031.55,-1899.2)">
                <path d="M489.237,240.872C489.237,240.872 491.8,240.43 492.416,241.898C493.033,243.367 493.082,243.172 494.229,243.499C495.375,243.826 494.906,244.333 496.019,245.172C497.131,246.012 498.931,244.735 499.962,245.927C500.992,247.119 501.24,250.007 500.171,250.44C499.102,250.872 497.291,251.371 497.981,252.449C498.671,253.527 500.834,254.635 499.786,255.787C498.739,256.94 496.863,257.692 497.529,258.462C498.194,259.232 500.977,259.882 500.459,261.165C499.758,262.898 495.999,263.845 495.492,264.397C494.685,265.276 496.371,267.385 495.592,267.887C494.813,268.389 492.046,268.938 492.753,269.77C493.459,270.601 494.622,270.108 495.759,270.717C496.896,271.326 501.813,272.399 502.954,271.617C504.095,270.834 511.039,261.296 511.467,260.57C511.896,259.843 513.161,259.15 513.508,259.706C513.855,260.263 512.314,262.093 511.838,262.992C511.144,264.307 505.025,275.198 503.721,275.306C502.346,275.42 499.589,276.674 497.948,275.57C496.307,274.467 493.202,273.213 492.285,273.766C491.369,274.32 492.34,277.265 491.43,277.657C490.309,278.14 487.421,278.356 487.507,277.463C487.572,276.789 487.836,276.658 487.13,276.104C486.123,275.314 484.199,277.988 483.036,278.785C481.967,279.517 481.236,277.327 481.695,275.595C481.952,274.626 482.487,272.988 483.548,271.825C484.385,270.907 485.763,270.484 486.117,269.547C486.897,267.482 486.969,263.241 486.51,262.848C485.999,262.411 484.675,262.253 484.68,262.902C484.697,265.643 483.664,268.217 482.757,269.339C482.233,269.989 482.107,270.759 481.669,270.103C481.231,269.447 481.132,266.35 481.468,264.904C481.8,263.472 484.598,259.756 486.198,259.021C487.117,258.6 487.307,251.124 488.167,250.192C489.027,249.261 490.315,246.333 490.239,245.31C490.162,244.286 488.607,244.274 488.633,242.94C488.659,241.606 488.318,241.256 489.237,240.872ZM489.741,263.289C489.741,263.289 489.036,261.142 490.308,260.83C491.58,260.518 492.271,261.055 492.568,260.514C492.864,259.974 493.802,259.189 494.358,259.73C494.914,260.271 495.155,260.907 494.781,261.256C494.406,261.605 493.354,261.994 492.527,262.061C491.7,262.127 491.236,262.142 491.06,262.611C490.883,263.08 490.384,263.47 489.741,263.289ZM490.297,256.89C490.297,256.89 489.856,253.685 490.524,252.721C491.191,251.756 491.881,250.397 492.087,249.56C492.292,248.723 492.402,248.422 493.348,248.475C494.295,248.528 495.534,248.05 495.458,249.116C495.383,250.182 495.183,250.263 494.277,250.911C493.371,251.56 492.229,252.181 492.446,253.26C492.662,254.34 493.517,255.174 493.322,256.163C493.128,257.152 491.074,257.625 490.297,256.89Z"/>
            </g>
        </g>
    </g>
</svg>
