<?xml version="1.0" encoding="UTF-8" standalone="no"?>
<!DOCTYPE svg PUBLIC "-//W3C//DTD SVG 1.1//EN" "http://www.w3.org/Graphics/SVG/1.1/DTD/svg11.dtd">
<svg width="100%" height="100%" viewBox="0 0 501 500" version="1.1" xmlns="http://www.w3.org/2000/svg" xmlns:xlink="http://www.w3.org/1999/xlink" xml:space="preserve" style="fill-rule:evenodd;clip-rule:evenodd;stroke-linejoin:round;stroke-miterlimit:1.41421;">
    <g transform="matrix(1,0,0,1,-1121,0)">
        <g id="sa-.--サ" transform="matrix(1.5375,0,0,1.65217,813.46,660.959)">
            <rect x="200.586" y="-400.056" width="325.203" height="302.633" style="fill:none;"/>
            <g id="sa" transform="matrix(6.41471,0,0,5.9695,-3954.54,-1240)">
                <path d="M663.917,158.445C664.096,157.914 664.029,157.268 665.756,156.668C667.482,156.067 668.104,154.601 669.918,154.668C671.732,154.736 671.867,154.651 672.855,155.698C673.911,156.817 673.917,156.627 673.989,157.055C674.233,158.496 673.368,161.443 674.006,161.515C674.645,161.587 677.659,158.622 679.017,158.785C679.83,158.883 681.608,159.63 682.611,161.589C683.285,162.905 683.37,165.337 683.629,166.444C683.966,167.881 685.047,167.372 687.302,166.542C689.085,165.885 690.148,164.094 690.347,165.746C690.547,167.398 690.435,167.255 689.428,167.716C688.421,168.177 686.082,169.44 684.467,169.519C682.852,169.599 680.595,168.965 680.282,169.797C679.955,170.67 679.539,171.828 680.482,172.367C681.425,172.906 683.293,172.138 684.621,173.423C685.949,174.707 684.902,174.883 687.895,175.08C690.02,175.22 690.034,173.271 691.295,172.928C692.557,172.586 694.07,172.588 693.031,173.962C692.171,175.101 689.343,177.522 687.697,177.441C686.051,177.36 685.101,176.685 683.1,176.595C681.099,176.505 678.881,177.03 678.383,175.633C677.885,174.235 677.675,173.277 677.292,172.282C676.908,171.286 677.589,170.552 675.748,170.548C673.707,170.544 674.754,171.609 673.692,172.144C671.997,172.999 671.438,172.754 670.224,172.641C669.009,172.528 668.255,172.793 668.392,170.879C668.504,169.293 669.256,167.77 668.662,167.54C668.069,167.31 666.272,168.067 664.797,168.757C663.729,169.257 662.899,169.742 661.684,170.524C660.47,171.307 660.429,171.753 658.619,172.398C656.897,173.011 655.592,173.013 654.421,172.374C653.25,171.735 652.496,170.328 652.957,169.666C653.418,169.004 653.462,168.577 654.857,168.61C656.252,168.644 655.894,169.386 658.638,168.024C661.383,166.662 663.335,166.114 664.212,165.837C665.09,165.559 665.211,164.783 667.08,164.752C668.95,164.721 669.83,165.199 670.175,164.155C670.503,163.163 670.574,161.5 670.432,160.23C670.289,158.961 670.754,158.977 669.529,158.458C668.395,157.977 667.246,158.367 666.474,159.082C665.702,159.798 666.068,160.373 664.685,159.849C663.733,159.489 663.747,158.95 663.917,158.445ZM672.242,165.789C672.775,164.775 674.232,166.081 674.808,164.511C675.165,163.538 675.63,163.203 676.532,162.771C677.434,162.339 677.887,161.899 678.924,162.146C679.961,162.393 680.332,162.393 679.789,163.827C679.246,165.261 679.225,165.746 679.234,166.571C679.243,167.396 678.956,167.489 677.917,167.568C676.877,167.647 676.064,166.756 675.036,167.726C674.008,168.696 674.329,169.09 673.179,168.917C671.812,168.712 671.746,166.733 672.242,165.789Z"/>
            </g>
        </g>
    </g>
</svg>
