<?xml version="1.0" encoding="UTF-8" standalone="no"?>
<!DOCTYPE svg PUBLIC "-//W3C//DTD SVG 1.1//EN" "http://www.w3.org/Graphics/SVG/1.1/DTD/svg11.dtd">
<svg width="100%" height="100%" viewBox="0 0 501 501" version="1.1" xmlns="http://www.w3.org/2000/svg" xmlns:xlink="http://www.w3.org/1999/xlink" xml:space="preserve" style="fill-rule:evenodd;clip-rule:evenodd;stroke-linejoin:round;stroke-miterlimit:1.41421;">
    <g transform="matrix(1,0,0,1,-1121,-1721)">
        <g id="se-.--セ" transform="matrix(1.5375,0,0,1.65217,813.46,2382.53)">
            <rect x="200.586" y="-400.056" width="325.203" height="302.633" style="fill:none;"/>
            <g id="se" transform="matrix(7.25306,0,0,6.74967,-4511.28,-2321.36)">
                <path d="M675.252,289.154C678.198,289.37 683.22,289.816 684.619,293.517C686.301,297.963 683.485,300.662 682.56,302.623C682.018,303.772 681.667,304.667 682.529,306.134C683.775,308.253 687.243,312.163 686.947,314.274C686.637,316.481 684.881,319.584 683.9,321.082C682.86,322.672 680.257,325.646 679.549,324.882C678.842,324.118 679.911,322.953 680.595,321.751C681.28,320.549 683.551,317.137 683.362,315.079C683.182,313.111 677.927,308.767 677.2,306.84C676.587,305.219 676.781,302.874 678.393,300.51C679.605,298.731 680.92,297.814 680.965,296.512C681.008,295.293 680.5,293.407 678.065,292.929C675.656,292.457 671.628,292.497 669.95,294.149C668.273,295.802 668.501,297.133 669.445,297.46C670.388,297.787 672.091,299.208 671.944,301.089C671.798,302.97 669.683,303.763 668.673,304.998C667.188,306.814 668.392,308.425 667.316,309.581C666.24,310.738 664.375,313.558 662.831,313.301C661.287,313.043 659.437,311.772 659.623,310.088C659.808,308.404 660.686,308.47 661.722,308.212C662.758,307.955 663.642,307.008 663.183,306.015C662.724,305.021 662.857,304.372 661.683,304.861C660.509,305.35 658.838,305.674 658.408,306.953C657.978,308.232 657.379,309.257 657.226,308.1C657.073,306.944 657.003,304.706 658.479,303.639C659.954,302.573 662.788,302.978 663.334,302.307C663.88,301.636 663.878,298.483 663.108,298.183C662.337,297.884 659.652,296.666 659.625,294.358C659.598,292.05 659.355,290.701 660.716,291.154C662.077,291.608 661.667,294.342 663.01,294.578C664.353,294.815 664.667,293.744 666.939,292.222C669.212,290.7 672.305,288.938 675.252,289.154Z"/>
            </g>
        </g>
    </g>
</svg>
