<?xml version="1.0" encoding="UTF-8" standalone="no"?>
<!DOCTYPE svg PUBLIC "-//W3C//DTD SVG 1.1//EN" "http://www.w3.org/Graphics/SVG/1.1/DTD/svg11.dtd">
<svg width="100%" height="100%" viewBox="0 0 501 501" version="1.1" xmlns="http://www.w3.org/2000/svg" xmlns:xlink="http://www.w3.org/1999/xlink" xml:space="preserve" style="fill-rule:evenodd;clip-rule:evenodd;stroke-linejoin:round;stroke-miterlimit:1.41421;">
    <g transform="matrix(1,0,0,1,-1121,-573)">
        <g id="shi-.--シ" transform="matrix(1.5375,0,0,1.65217,813.46,1234.82)">
            <rect x="200.586" y="-400.056" width="325.203" height="302.633" style="fill:none;"/>
            <g id="shi" transform="matrix(7.02857,0,0,6.54076,-4356.86,-1653.25)">
                <path d="M670.066,197.365C670.673,197.175 670.597,197.386 673.201,197.25C675.806,197.114 675.067,196.953 677.573,196.577C680.079,196.201 682.123,195.987 682.751,196.67C684.382,198.444 684.931,200.349 684.37,203.125C683.809,205.901 682.656,206.978 681.842,207.774C681.027,208.57 680.354,208.915 680.724,209.254C681.094,209.593 683.731,209.986 683.492,211.872C683.253,213.758 682.336,214.007 682.158,214.957C681.981,215.907 682.022,221.919 682.437,223.521C682.851,225.122 683.008,229 682.522,230.621C682.037,232.242 681.264,233.511 679.64,233.19C676.126,232.495 676.698,230.987 675.904,230.756C675.111,230.525 675.118,230.979 674.065,229.796C673.176,228.798 672.227,228.809 672.378,227.386C672.53,225.963 672.459,225.721 674.279,226.842C675.166,227.388 675.218,228.859 676.888,228.682C678.558,228.505 679.194,229.199 679.201,227.968C679.209,226.537 679.532,212.395 679.107,211.736C678.634,211.005 676.504,211.513 676.362,210.247C676.219,208.981 676.885,207.281 677.898,206.765C678.911,206.249 680.264,205.178 680.736,204.035C681.207,202.893 681.798,201.741 680.964,200.971C680.131,200.201 679.313,199.539 677.891,200.067C676.469,200.594 676.146,201.011 675.316,200.954C674.485,200.897 671.836,200.244 671.288,199.628C670.739,199.012 669.782,199.129 669.534,198.585C669.287,198.042 669.643,197.498 670.066,197.365ZM667.539,222.979C666.815,222.888 665.975,223.889 665.366,222.706C664.757,221.523 664.313,219.99 665.052,218.937C665.79,217.883 666.329,216.594 665.832,215.898C665.334,215.203 664.056,215.012 663.766,215.761C663.475,216.51 662.681,217.338 661.597,216.916C660.512,216.493 659.097,216.01 659.298,214.02C659.498,212.03 661.112,210.652 663.163,208.7C665.214,206.748 666.916,205.505 667.492,204.774C668.068,204.042 668.362,202.821 667.746,202.703C667.129,202.585 665.32,202.51 664.491,203.194C663.661,203.878 663.256,204.468 662.199,204.161C661.143,203.854 659.813,202.181 659.352,201.409C658.892,200.638 658.151,200.509 658.735,199.773C659.388,198.949 660.235,198.761 661.196,199.229C662.156,199.698 661.846,199.865 662.923,199.567C663.999,199.269 666.382,198.843 667.74,199.032C669.099,199.222 669.816,199.342 670.406,200.452C670.997,201.561 671.399,203.07 670.691,204.088C669.984,205.107 669.246,205.513 668.747,206.658C668.233,207.837 668.099,208.781 666.558,209.164C665.017,209.548 664.064,209.86 663.718,210.826C663.372,211.792 662.385,212.601 663.547,212.528C664.708,212.455 664.976,211.768 666.607,211.972C668.238,212.177 669.005,212.185 669.133,213.428C669.262,214.671 669.361,216.103 669.026,216.926C668.691,217.749 668.322,218.378 668.849,218.611C669.375,218.843 669.532,217.867 670.187,218.058C670.841,218.248 671.276,219.12 670.614,219.461C669.953,219.802 669.701,219.576 669.193,220.371C668.686,221.165 667.827,222.855 667.539,222.979Z"/>
            </g>
        </g>
    </g>
</svg>
