<?xml version="1.0" encoding="UTF-8" standalone="no"?>
<!DOCTYPE svg PUBLIC "-//W3C//DTD SVG 1.1//EN" "http://www.w3.org/Graphics/SVG/1.1/DTD/svg11.dtd">
<svg width="100%" height="100%" viewBox="0 0 501 501" version="1.1" xmlns="http://www.w3.org/2000/svg" xmlns:xlink="http://www.w3.org/1999/xlink" xml:space="preserve" style="fill-rule:evenodd;clip-rule:evenodd;stroke-linejoin:round;stroke-miterlimit:1.41421;">
    <g transform="matrix(1,0,0,1,-1121,-2295)">
        <g id="so-.--ソ" transform="matrix(1.5375,0,0,1.65217,813.46,2956.39)">
            <rect x="200.586" y="-400.056" width="325.203" height="302.633" style="fill:none;"/>
            <g id="so" transform="matrix(6.81108,0,0,6.33836,-4219.54,-2481.79)">
                <path d="M669.438,333.209C669.858,333.183 670.586,333.499 670.747,333.596C671.351,333.958 672.019,334.759 673.79,334.776C676.035,334.799 678.243,334.613 680.101,335.865C681.96,337.117 684.138,339.384 684.255,341.591C684.372,343.798 684.2,345.578 682.491,347.014C680.782,348.451 676.614,350.188 675.237,350.344C673.861,350.5 674.397,351.038 675.592,351.151C676.788,351.264 677.544,351.018 680.018,350.548C682.493,350.079 683.287,349.747 685.445,350.398C687.603,351.049 687.403,352.176 687.461,353.117C687.52,354.058 684.321,356.469 683.317,357.899C682.313,359.328 682.562,359.864 683.197,360.312C683.833,360.761 686.134,361.714 686.214,363.696C686.295,365.679 686.056,369.692 685.175,370.488C684.441,371.152 681.666,372.034 678.81,370.743C675.953,369.451 672.134,365.137 670.309,365.376C668.484,365.616 664.313,368.349 663.351,368.633C662.389,368.917 661.229,368.897 661.749,367.973C662.268,367.05 667.795,363.37 667.567,362.476C667.339,361.581 664.015,359.092 663.436,357.946C662.856,356.8 661.999,356.362 661.505,355.599C661.059,354.911 661.922,354.236 660.47,353.37C659.017,352.503 657.589,350.936 658.484,350.673C659.379,350.411 660.748,350.128 661.498,351.156C662.247,352.184 663.052,353.595 663.462,354.603C663.872,355.612 664.774,356.57 665.851,357.299C666.929,358.028 667.45,358.999 668.061,358.215C668.673,357.431 667.606,352.258 668.5,350.845C669.394,349.433 671.894,347.541 674.278,347.148C676.663,346.755 680.477,346.09 680.687,344.629C680.896,343.168 680.717,340.47 679.217,340.112C677.716,339.753 674.107,339.775 673.058,338.807C672.009,337.84 670.202,336.591 669.342,335.53C667.819,333.65 668.989,333.237 669.438,333.209ZM675.252,355.028C675.832,355.246 676.504,355.401 677.805,355.139C679.106,354.877 680.345,354.056 681.742,353.646C683.139,353.236 683.557,354.021 682.711,354.488C681.865,354.954 679.264,356.086 679.171,358.269C679.079,360.451 679.036,361.015 680.914,362.138C682.792,363.261 683.813,363.38 683.353,365.049C682.893,366.719 681.926,367.554 679.352,366.714C676.989,365.943 677.567,366.145 676.31,365.694C675.164,365.282 674.691,364 674.038,363.586C672.806,362.804 671.412,362.941 671.647,361.447C671.883,359.952 672.399,359.725 672.365,358.226C672.332,356.783 672.188,356.684 672.125,355.375C672.082,354.468 671.667,353.708 672.386,353.139C673.105,352.57 673.992,352.687 674.324,353.832C674.656,354.977 674.78,354.85 675.252,355.028Z"/>
            </g>
        </g>
    </g>
</svg>
