<?xml version="1.0" encoding="UTF-8" standalone="no"?>
<!DOCTYPE svg PUBLIC "-//W3C//DTD SVG 1.1//EN" "http://www.w3.org/Graphics/SVG/1.1/DTD/svg11.dtd">
<svg width="100%" height="100%" viewBox="0 0 501 501" version="1.1" xmlns="http://www.w3.org/2000/svg" xmlns:xlink="http://www.w3.org/1999/xlink" xml:space="preserve" style="fill-rule:evenodd;clip-rule:evenodd;stroke-linejoin:round;stroke-miterlimit:1.41421;">
    <g transform="matrix(1,0,0,1,-1121,-1147)">
        <g id="su-.--ス" transform="matrix(1.5375,0,0,1.65217,813.46,1808.68)">
            <rect x="200.586" y="-400.056" width="325.203" height="302.633" style="fill:none;"/>
            <g id="su" transform="matrix(6.98164,0,0,6.49709,-4332.94,-1933.23)">
                <path d="M678.953,247.038C678.953,247.038 678.149,248.873 679.635,250.031C681.121,251.19 683.173,252.634 682.205,253.582C680.882,254.879 678.09,258.574 678.326,260.178C678.658,262.438 679.899,262.018 680.143,263.181C680.459,264.689 678.036,264.896 679.76,266.83C680.83,268.029 682.137,267.995 681.418,268.974C680.542,270.165 679.447,272.129 679.453,273.407C679.462,275.172 680.261,278.183 682.024,277.879C683.382,277.644 683.751,276.598 683.258,275.641C682.765,274.684 682.407,272.8 683.245,271.902C684.082,271.004 685.149,269.502 684.953,268.12C684.757,266.739 683.216,266.099 683.087,264.924C682.957,263.75 683.847,263.662 683.643,262.254C683.439,260.846 682.47,261.035 682.431,259.69C682.392,258.345 683.199,257.592 684.079,256.743C684.958,255.894 685.71,254.472 685.492,253C685.275,251.528 685.182,250.214 683.946,249.106C682.71,247.999 681.98,246.848 681.082,246.582C680.185,246.316 679.382,245.999 678.953,247.038ZM670.072,241.109C670.072,241.109 667.787,240.568 668.295,242.158C668.803,243.747 672.033,243.19 672.464,244.213C672.894,245.236 671.895,249.979 670.725,251.045C669.555,252.111 668.358,252.887 668.8,255.218C669.243,257.548 671.23,258.101 670.946,259.404C670.662,260.706 669.193,261.663 669.295,263.375C669.403,265.208 674.146,266.469 673.828,267.728C673.379,269.504 673.02,273.787 672.881,274.38C672.673,275.266 667.974,275.888 667.145,277.107C666.406,278.192 668.448,277.314 670.024,277.687C671.447,278.024 673.459,277.666 675.183,276.386C676.384,275.495 676.153,270.424 676.327,268.938C676.479,267.65 677.461,266.753 676.287,265.405C675.113,264.057 673.706,263.878 674.185,262.201C674.665,260.525 675.605,260.104 675.492,258.821C675.365,257.383 672.815,256.104 672.55,254.942C672.251,253.631 673.828,250.467 674.749,249.107C675.67,247.748 676.626,245.724 676.089,244.71C675.551,243.697 673.768,242.834 673.981,242.101C674.195,241.368 674.649,240.489 673.544,240.657C672.439,240.826 670.476,240.76 670.072,241.109ZM665.015,243.702C665.015,243.702 663.926,246.458 663.472,247.351C663.017,248.245 659.579,251.042 659.753,253.304C659.928,255.565 660.164,256.819 662.296,257.981C664.13,258.98 665.429,260.225 664.707,261.432C663.876,262.821 662.598,264.693 663.427,266.975C664.375,269.588 665,267.645 664.856,270.143C664.712,272.642 663.811,274.217 664.459,274.634C665.107,275.05 666.631,273.09 667.411,271.371C668.191,269.653 669.593,267.76 668.256,266.521C667.552,265.869 665.729,264.682 667.325,263.045C668.411,261.93 669.495,259.524 667.961,258.041C666.611,256.735 663.184,255.662 663.367,253.787C663.55,251.922 665.906,249.761 666.457,248.622C666.982,247.536 667.647,244.891 667.178,244.445C666.708,244 666.009,242.708 665.015,243.702Z"/>
            </g>
        </g>
    </g>
</svg>
