<?xml version="1.0" encoding="UTF-8" standalone="no"?>
<!DOCTYPE svg PUBLIC "-//W3C//DTD SVG 1.1//EN" "http://www.w3.org/Graphics/SVG/1.1/DTD/svg11.dtd">
<svg width="100%" height="100%" viewBox="0 0 501 500" version="1.1" xmlns="http://www.w3.org/2000/svg" xmlns:xlink="http://www.w3.org/1999/xlink" xml:space="preserve" style="fill-rule:evenodd;clip-rule:evenodd;stroke-linejoin:round;stroke-miterlimit:1.41421;">
    <g transform="matrix(1,0,0,1,-1682,0)">
        <g id="ta-.--タ" transform="matrix(1.5375,0,0,1.65217,1374.39,660.959)">
            <rect x="200.586" y="-400.056" width="325.203" height="302.633" style="fill:none;"/>
            <g id="ta" transform="matrix(7.50651,0,0,6.98553,-4712.05,-3044.8)">
                <path d="M667.29,382.963C668.443,383.02 674.197,383.045 673.946,384.811C673.695,386.577 673.735,388.116 672.229,389.199C670.724,390.282 666.45,394.257 666.097,395.5C665.745,396.742 664.786,397.562 666.222,397.802C667.657,398.041 670.309,397.633 671.724,396.489C673.139,395.345 675.094,393.48 676.95,392.731C678.806,391.983 680.989,390.043 681.269,389.094C681.548,388.145 682.091,387.515 680.996,386.98C679.902,386.444 678.237,384.415 679.38,383.984C680.522,383.553 683.785,383.606 684.061,385.03C684.336,386.454 685.365,389.401 684.305,390.53C683.244,391.659 679.356,392.791 679.556,393.828C679.756,394.864 680.813,395.594 681.671,396.302C682.529,397.009 682.775,397.638 685.204,397.81C687.633,397.983 691.617,397.883 692.435,398.151C693.254,398.42 693.159,398.771 692.405,399.154C691.651,399.536 686.476,401.56 684.443,401.226C682.409,400.891 679.586,399.457 679.335,398.526C679.085,397.596 679.84,397.345 678.197,397.023C676.553,396.701 675.527,397.229 674.267,397.764C673.007,398.299 670.01,399.457 669.261,400.279C668.513,401.102 666.502,402.019 668.02,402.6C669.538,403.18 672.786,402.531 673.473,403.101C674.878,404.265 673.082,407.845 673.89,408.341C674.697,408.836 675.404,407.9 675.819,409.136C676.234,410.373 676.348,411.044 676.699,410.585C677.05,410.125 676.938,409.609 677.514,408.832C678.09,408.054 678.985,406.823 680.427,407.275C681.869,407.727 683.024,409.12 684.137,408.837C685.249,408.553 686.083,407.015 687.013,407.584C687.943,408.153 688.077,408.761 687.275,409.668C686.474,410.575 685.205,413.498 683.397,413.11C681.59,412.722 681.271,411.434 680.217,411.944C679.162,412.455 679.306,414.145 678.075,415.315C676.845,416.485 675.463,418.017 674.348,417.485C673.233,416.954 671.402,415.149 671.882,414.249C672.363,413.349 672.399,411.965 671.529,412.492C670.66,413.019 668.084,414.825 667.529,415.057C666.975,415.29 663.566,417.193 661.987,416.73C660.407,416.267 658.513,415.52 659.47,414.345C660.428,413.17 664.933,410.3 666.731,409.386C668.53,408.471 671.083,407.627 670.721,407.138C670.359,406.649 669.167,405.716 667.715,406.215C666.263,406.714 663.927,407.373 663.59,406.319C663.252,405.265 662.793,404.199 663.413,402.772C664.032,401.345 661.449,400.31 661.593,398.733C661.738,397.157 663.002,393.811 664.044,392.92C665.087,392.03 670.61,388.012 670.996,386.947C671.381,385.882 670.198,385.084 669.082,385.589C667.965,386.093 665.857,387.386 664.277,387.071C662.698,386.756 660.788,384.322 662.219,383.743C663.65,383.164 664.732,382.835 667.29,382.963Z"/>
            </g>
        </g>
    </g>
</svg>
