<?xml version="1.0" encoding="UTF-8" standalone="no"?>
<!DOCTYPE svg PUBLIC "-//W3C//DTD SVG 1.1//EN" "http://www.w3.org/Graphics/SVG/1.1/DTD/svg11.dtd">
<svg width="100%" height="100%" viewBox="0 0 501 501" version="1.1" xmlns="http://www.w3.org/2000/svg" xmlns:xlink="http://www.w3.org/1999/xlink" xml:space="preserve" style="fill-rule:evenodd;clip-rule:evenodd;stroke-linejoin:round;stroke-miterlimit:1.41421;">
    <g transform="matrix(1,0,0,1,-1682,-1721)">
        <g id="te-.--テ" transform="matrix(1.5375,0,0,1.65217,1374.39,2382.53)">
            <rect x="200.586" y="-400.056" width="325.203" height="302.633" style="fill:none;"/>
            <g id="te" transform="matrix(6.59827,0,0,6.14032,-4079.92,-3545.8)">
                <path d="M673.759,526.646C675.922,525.753 678.086,525.372 680.204,525.795C682.323,526.218 684.084,526.802 684.525,527.903C684.966,529.003 685.079,529.822 684.011,529.387C682.943,528.953 682.788,528.535 680.53,528.921C678.273,529.306 676.715,529.86 675.687,530.15C674.659,530.44 674.08,529.631 673.931,530.71C673.781,531.789 672.988,532.384 674.432,532.475C675.877,532.566 677.662,532.436 679.152,532.615C680.643,532.794 680.902,532.869 682.667,533.35C684.432,533.83 684.547,534.319 686.168,534.18C687.789,534.041 689.773,533.292 690.255,533.785C690.737,534.278 690.72,534.458 689.784,534.971C688.849,535.484 685.371,537.962 683.086,537.543C680.802,537.124 680.286,536.571 679.01,536.168C677.735,535.765 676.462,535.07 676.384,535.821C676.307,536.572 676.393,537.318 677.981,537.97C679.568,538.623 680.759,539.047 682.783,539.536C684.807,540.026 685.597,540.918 687.581,540.773C689.564,540.628 690.424,539.957 691.639,540.12C692.855,540.282 693.501,540.642 692.802,541.087C692.104,541.533 690.591,542.605 689.958,542.966C689.324,543.326 686.984,544.445 685.182,544.184C683.379,543.922 682.161,543.277 681.141,542.82C680.12,542.362 678.802,541.473 677.708,541.814C676.615,542.154 676.122,542.589 677.345,543.134C678.568,543.678 679.982,544.183 680.295,545.217C680.608,546.251 679.707,547.878 680.951,548.472C682.194,549.067 685.51,550.047 687.537,549.761C689.564,549.475 691.324,548.811 691.051,549.664C690.778,550.517 688.219,552.887 684.063,552.323C679.907,551.759 677.853,551.095 676.903,549.601C675.953,548.107 676.294,547.147 674.736,547.241C673.178,547.335 672.92,547.727 671.142,548.514C669.364,549.3 669.147,549.012 668.566,549.44C667.984,549.868 665.705,551.518 663.004,551.266C660.304,551.015 655.896,549.395 655.78,548.494C655.665,547.593 655.75,546.945 656.962,547.473C658.174,548.001 659.839,548.962 661.372,548.985C662.904,549.009 664.909,548.087 666.393,547.825C667.878,547.562 668.644,547.151 669.197,546.507C669.749,545.863 671.675,544.146 672.119,543.626C672.563,543.105 673.465,541.072 672.47,541.104C671.475,541.135 667.011,543.805 664.443,543.804C661.876,543.804 657.788,543.77 656.252,542.917C654.716,542.064 653.124,541.22 653.836,540.406C654.547,539.591 654.575,539.464 656.181,539.82C657.786,540.176 660.544,540.58 662.702,540.281C664.86,539.982 672.069,537.928 671.766,537.527C671.108,536.654 668.345,538.102 665.081,538.421C663.583,538.567 661.241,535.798 662.168,534.837C663.095,533.876 663.47,534.491 665.504,534.769C667.537,535.047 668.736,535.879 668.71,534.97C668.684,534.061 669.108,532.787 668.166,532.223C667.224,531.659 665.905,531.491 664.123,530.716C662.342,529.942 660.572,529.134 661.008,528.169C661.445,527.204 662.426,527.829 663.882,528.067C665.339,528.304 667.062,528.496 667.913,528.119C668.764,527.741 668.858,525.127 669.277,523.917C669.696,522.706 670.944,521.835 671.777,521.55C672.611,521.265 673.826,522.138 673.282,522.778C672.738,523.419 671.023,525.627 671.56,526.174C672.097,526.722 672.529,527.153 673.759,526.646Z"/>
            </g>
        </g>
    </g>
</svg>
