<?xml version="1.0" encoding="UTF-8" standalone="no"?>
<!DOCTYPE svg PUBLIC "-//W3C//DTD SVG 1.1//EN" "http://www.w3.org/Graphics/SVG/1.1/DTD/svg11.dtd">
<svg width="100%" height="100%" viewBox="0 0 501 501" version="1.1" xmlns="http://www.w3.org/2000/svg" xmlns:xlink="http://www.w3.org/1999/xlink" xml:space="preserve" style="fill-rule:evenodd;clip-rule:evenodd;stroke-linejoin:round;stroke-miterlimit:1.41421;">
    <g transform="matrix(1,0,0,1,-1682,-2295)">
        <g id="to-.--ト" transform="matrix(1.5375,0,0,1.65217,1374.39,2956.39)">
            <rect x="200.586" y="-400.056" width="325.203" height="302.633" style="fill:none;"/>
            <g id="to" transform="matrix(6.76111,0,0,6.29186,-4211.09,-3942.09)">
                <path d="M686.345,575.794C688.272,575.873 688.662,580.021 687.131,582.51C685.601,584.999 684.166,586.468 685.352,587.328C686.539,588.188 689.639,588.719 690.149,590.811C690.591,592.627 690.441,594.663 689.534,595.846C688.804,596.796 686.845,599.333 686.436,599.912C686.028,600.492 684.78,601.228 684.639,602.167C684.497,603.107 683.59,604.286 683.135,604.731C682.68,605.176 682.237,606.69 681.866,606.116C681.494,605.541 680.949,605.01 681.671,603.709C682.393,602.407 683.112,601.828 683.793,600.409C684.474,598.991 684.17,598.057 684.995,596.921C685.82,595.785 687.182,593.236 686.266,592.338C685.351,591.44 685.102,591.958 683.693,590.99C682.284,590.022 681.219,588.184 681.896,586.501C682.574,584.817 684.364,582.628 684.393,580.891C684.421,579.155 684.806,578.206 683.242,577.34C681.679,576.473 680.788,575.204 679.837,575.463C678.887,575.722 679.07,576.238 678.451,577.148C677.832,578.057 677.004,579.86 676.36,580.318C675.717,580.775 674.919,581.558 675.335,582.523C675.751,583.489 678.733,585.062 679.101,586.625C679.469,588.189 679.559,589.552 679.148,590.997C678.736,592.443 677.444,593.2 677.33,594.247C677.217,595.294 677.318,595.445 678.177,596.514C679.035,597.582 679.582,597.554 679.107,598.74C678.633,599.926 678.107,600.171 676.89,601.164C675.673,602.157 674.464,605.064 673.739,605.256C673.014,605.447 672.074,605.007 672.609,604.066C673.143,603.124 674.414,601.561 674.642,600.317C674.869,599.072 675.076,598.133 674.274,597.344C673.472,596.554 672.385,596.512 672.845,594.923C673.306,593.334 674.385,592.388 674.883,591.33C675.381,590.273 675.641,589.613 675.187,588.461C674.732,587.309 673.325,586.33 672.37,584.764C671.589,583.484 671.491,582.271 672.317,581.105C673.143,579.94 674.41,578.734 674.603,577.168C674.795,575.602 676.371,575.467 676.375,574.469C676.378,573.47 676.059,572.844 675.155,572.048C674.25,571.252 672.297,570.648 672.175,569.665C672.053,568.683 672.238,568.168 673.381,568.235C674.524,568.302 675.757,568.644 676.699,569.274C677.641,569.904 678.892,570.411 678.976,571.241C679.061,572.072 678.68,573.758 679.475,573.895C680.27,574.031 683.527,573.603 684.037,574.224C684.547,574.845 685.516,575.759 686.345,575.794ZM666.452,567.831C667.451,568.305 668.215,569.346 668.766,569.764C669.498,570.318 670.422,570.426 670.77,571.427C671.118,572.429 671.787,573.296 671.157,574.669C670.527,576.042 669.442,577.448 669.026,577.992C668.61,578.536 667.68,580.242 667.337,581.321C666.994,582.399 666.638,583.829 667.445,584.45C668.253,585.071 669.496,585.507 669.701,586.867C669.907,588.227 669.577,587.987 669.489,589.236C669.401,590.486 670.376,590.889 670.473,592.025C670.571,593.162 668.957,595.102 668.358,596.017C667.779,596.903 667.132,596.283 666.282,596.813C665.432,597.343 665.017,597.865 664.25,598.27C663.482,598.676 662.695,599.786 662.729,598.92C662.763,598.055 662.526,597.181 663.535,596.461C664.543,595.742 666.059,594.936 666.339,594.118C666.62,593.301 667.343,593.112 666.749,592.176C666.154,591.24 665.253,590.587 666.031,589.678C666.809,588.77 667.223,587.726 666.733,587.175C666.242,586.624 664.109,586.478 663.827,585.084C663.546,583.69 663.364,580.825 664.382,579.161C665.4,577.498 667.427,576.366 667.785,575.453C668.142,574.54 668.335,573.004 667.724,572.45C667.114,571.895 665.034,571.311 664.35,570.335C663.666,569.359 663.535,568.156 664.386,567.894C665.237,567.632 665.764,567.852 666.452,567.831Z"/>
            </g>
        </g>
    </g>
</svg>
