<?xml version="1.0" encoding="UTF-8" standalone="no"?>
<!DOCTYPE svg PUBLIC "-//W3C//DTD SVG 1.1//EN" "http://www.w3.org/Graphics/SVG/1.1/DTD/svg11.dtd">
<svg width="100%" height="100%" viewBox="0 0 501 501" version="1.1" xmlns="http://www.w3.org/2000/svg" xmlns:xlink="http://www.w3.org/1999/xlink" xml:space="preserve" style="fill-rule:evenodd;clip-rule:evenodd;stroke-linejoin:round;stroke-miterlimit:1.41421;">
    <g transform="matrix(1,0,0,1,-1682,-1147)">
        <g id="tsu-.--ツ" transform="matrix(1.5375,0,0,1.65217,1374.39,1808.68)">
            <rect x="200.586" y="-400.056" width="325.203" height="302.633" style="fill:none;"/>
            <g id="tsu" transform="matrix(7.92473,0,0,7.37473,-4986.18,-3873.35)">
                <path d="M677.306,481.093C679.314,481.246 682.383,481.169 682.703,482.207C683.137,483.61 683.25,485.432 682.326,486.75C681.031,488.6 676.371,492.519 676.445,493.641C676.52,494.764 675.567,494.392 677.007,495.104C678.448,495.817 679.078,495.371 679.079,496.927C679.079,498.484 678.031,499.105 678.435,499.907C678.84,500.709 679.225,500.792 679.039,501.808C678.853,502.825 678.089,503.077 679.862,503.642C681.634,504.208 684.52,505.073 686.161,504.363C687.801,503.652 690.284,501.877 690.889,502.243C691.495,502.61 691.638,502.882 691.114,503.388C690.217,504.255 687.782,507.052 685.73,507.097C683.678,507.142 679.178,507.042 678.013,506.658C676.847,506.274 675.553,505.127 674.502,505.354C673.451,505.58 671.924,506.958 670.549,506.951C669.174,506.943 667.638,505.888 668.695,504.984C669.751,504.081 672.08,503.338 673.157,502.581C674.28,501.791 675.296,499.883 675.102,498.139C674.943,496.708 672.506,497.089 672.449,494.674C672.402,492.697 677.957,488.497 678.874,487.261C679.791,486.026 680.709,485.249 679.757,484.606C678.805,483.963 675.884,483.623 674.309,483.622C672.734,483.621 672.287,483.581 671.767,482.944C671.248,482.308 670.514,481.406 670.243,481.951C669.973,482.495 669.66,483.025 669.144,484.061C668.629,485.098 668.505,485.818 667.562,486.234C666.619,486.649 665.329,488.101 665.101,488.997C664.873,489.893 664.814,491.543 665.434,492.291C666.054,493.039 668.158,495.393 668.188,497.71C668.218,500.027 667.739,500.707 667.03,501.382C666.322,502.056 663.203,504.989 662.481,505.658C661.758,506.327 660.837,506.808 659.655,506.675C658.473,506.542 658.348,505.783 658.996,505.181C659.643,504.578 661.713,503.091 662.687,502.143C663.661,501.194 663.472,499.033 663.629,497.558C663.785,496.082 664.235,494.905 663.629,493.566C663.127,492.458 661.722,491.692 661.639,490.335C661.557,488.978 662.657,486.824 663.775,485.655C664.894,484.487 667.392,482.76 667.142,481.847C666.892,480.934 664.999,480.517 664.181,479.435C663.362,478.353 662.89,477.351 663.82,476.526C664.751,475.701 666.199,475.643 666.683,476.45C667.168,477.257 668.471,478.468 668.859,479.065C669.247,479.662 669.541,480.665 670.349,480.164C671.156,479.663 671.46,478.679 672.39,479.13C673.32,479.581 672.776,480.267 674.237,480.686C675.698,481.105 676.657,481.043 677.306,481.093Z"/>
            </g>
        </g>
    </g>
</svg>
