<?xml version="1.0" encoding="UTF-8" standalone="no"?>
<!DOCTYPE svg PUBLIC "-//W3C//DTD SVG 1.1//EN" "http://www.w3.org/Graphics/SVG/1.1/DTD/svg11.dtd">
<svg width="100%" height="100%" viewBox="0 0 500 501" version="1.1" xmlns="http://www.w3.org/2000/svg" xmlns:xlink="http://www.w3.org/1999/xlink" xml:space="preserve" style="fill-rule:evenodd;clip-rule:evenodd;stroke-linejoin:round;stroke-miterlimit:1.41421;">
    <g transform="matrix(1,0,0,1,0,-1147)">
        <g id="u-.--ウ" transform="matrix(1.5375,0,0,1.65217,-308.401,1808.68)">
            <rect x="200.586" y="-400.056" width="325.203" height="302.633" style="fill:none;"/>
            <g id="u" transform="matrix(7.0145,0,0,6.52767,-4778,-1951.35)">
                <path d="M723.994,242.484C723.994,242.484 725.407,241.98 725.909,243.187C726.41,244.394 726.563,246.291 727.8,246.942C729.036,247.594 730.282,247.899 731.558,247.399C732.834,246.9 735.79,246.343 736.401,247.278C737.311,248.67 736.836,250.173 737.359,250.767C737.881,251.362 737.256,251.78 739.217,251.844C740.955,251.9 741.147,251.295 741.992,252.528C742.837,253.76 743.56,255.545 742.647,256.611C741.518,257.93 739.138,259.285 737.974,259.856C736.81,260.428 732.825,262.25 732.032,263.108C731.24,263.965 729.668,265.757 729.924,267.293C730.18,268.83 730.065,269.877 731.164,269.402C732.263,268.928 731.62,268.452 732.425,267.667C733.027,267.079 734.188,266.583 733.813,266.152C733.439,265.721 732.522,264.67 733.351,264.375C734.18,264.08 736.509,263.692 736.805,264.808C737.102,265.925 737.1,267.47 736.499,268.638C735.677,270.235 733.13,271.682 733.268,272.428C733.499,273.685 733.192,273.723 734.864,274.425C736.535,275.128 736.165,275.702 738.036,275.264C739.907,274.825 741.771,273.392 742.044,272.252C742.318,271.112 742.363,268.609 743.663,267.765C744.963,266.92 747.94,265.647 749.185,265.469C750.429,265.29 751.792,265.968 751.419,266.492C751.045,267.016 749.298,266.999 748.312,267.525C747.325,268.05 746.15,268.691 745.546,270.383C744.941,272.074 743.472,275.89 742.492,276.753C741.512,277.617 738.861,279.42 736.326,279.272C733.791,279.125 731.172,278.921 729.878,277.477C728.584,276.033 729.273,274.367 729.136,273.309C728.999,272.251 727.505,271.052 726.97,270.338C726.435,269.624 726.1,266.015 726.638,264.969C727.177,263.924 727.851,262.721 728.844,262.42C729.836,262.119 731.218,261.977 731.494,261.336C731.77,260.695 732.077,259.809 731.541,259.801C731.006,259.793 730.213,260.442 729.339,260.66C728.465,260.879 726.98,261.321 726.141,260.448C725.302,259.575 725.151,259.343 725.052,257.788C724.954,256.233 724.068,255.704 722.91,256.294C721.751,256.885 720.116,258.995 718.983,259.771C717.849,260.547 716.55,261.954 715.415,261.871C713.865,261.759 714.226,260.855 715.499,259.55C716.573,258.448 717.977,256.842 719.172,255.858C720.367,254.874 721.267,253.313 722.958,253.244C724.649,253.174 726.167,252.406 727.317,253.498C728.414,254.54 728.004,256.363 728.67,256.714C729.423,257.111 731.014,256.204 731.637,257.105C732.26,258.007 732.133,259.195 732.669,259.517C733.204,259.84 733.595,259.623 734.757,259.017C735.918,258.411 736.304,257.593 737.257,257.241C738.21,256.89 738.97,256.281 738.407,256.097C737.844,255.914 736.016,254.682 735.718,253.847C735.42,253.012 735.967,251.376 734.683,251.074C733.4,250.771 733.037,250.491 731.664,250.868C730.292,251.245 729.572,252.17 727.762,251.2C725.953,250.231 725.57,249.789 725.379,248.301C725.188,246.814 725.481,245.711 724.712,245.168C723.943,244.625 723.468,244.112 723.518,243.545C723.568,242.977 723.255,242.889 723.994,242.484Z"/>
            </g>
        </g>
    </g>
</svg>
