<?xml version="1.0" encoding="UTF-8" standalone="no"?>
<!DOCTYPE svg PUBLIC "-//W3C//DTD SVG 1.1//EN" "http://www.w3.org/Graphics/SVG/1.1/DTD/svg11.dtd">
<svg width="100%" height="100%" viewBox="0 0 501 501" version="1.1" xmlns="http://www.w3.org/2000/svg" xmlns:xlink="http://www.w3.org/1999/xlink" xml:space="preserve" style="fill-rule:evenodd;clip-rule:evenodd;stroke-linejoin:round;stroke-miterlimit:1.41421;">
    <g transform="matrix(1,0,0,1,-5048,-1147)">
        <g id="u-.--ウ" transform="matrix(1.5375,0,0,1.65217,4739.97,1808.68)">
            <rect x="200.586" y="-400.056" width="325.203" height="302.633" style="fill:none;"/>
            <g id="u" transform="matrix(7.66068,0,0,7.129,-3417.07,-3769.98)">
                <path d="M502.82,486.993C504.578,487.053 505.306,487.242 505.415,488.807C505.525,490.371 504.841,492.258 504.113,492.89C503.384,493.521 501.312,494.778 501.547,495.976C501.781,497.173 502.014,497.455 502.026,498.855C502.037,500.254 503.198,499.299 503.133,500.311C503.068,501.323 501.772,501.463 502.322,502.461C502.871,503.458 502.392,503.601 505.499,504.207C508.606,504.813 510.81,504.126 510.391,505.317C509.973,506.507 509.137,507.167 507.54,507.174C505.943,507.182 501.909,507.168 500.846,506.505C499.782,505.843 500.395,504.686 498.82,504.795C497.246,504.903 495.977,505.826 494.728,505.405C493.646,505.041 492.012,504.338 492.957,503.69C493.902,503.042 494.358,502.799 495.628,502.569C496.897,502.34 498.774,502.339 499.238,501.425C499.702,500.511 500.71,497.578 499.803,497.206C498.897,496.835 495.753,496.089 494.951,496.849C494.149,497.609 494.287,499.659 493.682,500.658C493.078,501.656 492.375,502.71 491.497,503.44C490.618,504.17 487.798,506.905 486.746,506.998C485.693,507.092 485.786,508.012 484.348,507.999C482.91,507.986 480.901,507.785 481.963,507.241C483.024,506.696 484.171,507.232 485.385,506.31C486.6,505.388 486.696,504.835 487.56,504.211C488.424,503.586 489.284,502.963 490.003,501.783C490.61,500.787 490.527,497.422 489.794,496.997C489.062,496.572 489.416,496.877 488.042,496.936C486.667,496.995 485.942,497.205 485.338,496.328C484.735,495.452 484.945,494.859 483.786,495.424C482.627,495.988 482.699,495.952 481.642,495.551C480.771,495.22 480.337,494.801 480.124,493.209C479.911,491.617 479.061,489.008 479.948,488.748C480.834,488.488 480.907,488.801 481.362,489.472C481.817,490.143 482.253,493.048 482.679,493.082C483.105,493.115 484.032,493.503 484.123,492.12C484.214,490.736 484.356,487.36 485.432,487.408C486.507,487.457 486.323,490.366 486.572,491.869C486.821,493.372 486.666,493.964 487.204,493.515C487.741,493.066 487.031,491.473 488.104,491.449C489.178,491.425 489.929,491.945 490.262,492.757C490.594,493.569 492.764,493.824 495.959,493.806C499.153,493.787 499.638,494.405 500.371,493.32C501.104,492.235 500.633,491.768 501.386,491.574C502.138,491.381 503.049,490.123 502.024,490.133C500.999,490.144 500.127,491.335 497.865,491.637C495.603,491.938 493.673,491.621 493.669,490.196C493.665,488.772 493.262,488.12 494.401,488.544C495.54,488.968 496.857,489.546 498.207,488.947C499.556,488.348 500.476,486.913 502.82,486.993ZM486.648,481.223C488.419,481.319 487.532,481.74 491.319,482.558C495.106,483.377 496.411,483.82 498.652,483.359C500.893,482.898 503.576,481.579 505.157,480.858C506.738,480.136 507.699,479.426 507.934,480.198C508.169,480.971 508.501,480.61 507.078,481.513C505.654,482.416 503.662,484.631 501.346,485.386C499.03,486.141 492.368,486.88 490.029,486.038C487.69,485.196 487.938,484.649 485.755,485.03C483.573,485.411 481.004,486.528 479.164,485.987C477.323,485.447 475.213,484.223 477.44,483.53C479.667,482.837 481.475,483.427 483.222,482.789C484.969,482.151 484.642,481.115 486.648,481.223Z"/>
            </g>
        </g>
    </g>
</svg>
