<?xml version="1.0" encoding="UTF-8" standalone="no"?>
<!DOCTYPE svg PUBLIC "-//W3C//DTD SVG 1.1//EN" "http://www.w3.org/Graphics/SVG/1.1/DTD/svg11.dtd">
<svg width="100%" height="100%" viewBox="0 0 501 500" version="1.1" xmlns="http://www.w3.org/2000/svg" xmlns:xlink="http://www.w3.org/1999/xlink" xml:space="preserve" style="fill-rule:evenodd;clip-rule:evenodd;stroke-linejoin:round;stroke-miterlimit:1.41421;">
    <g transform="matrix(1,0,0,1,-5048,0)">
        <g id="wa-.--ワ" transform="matrix(1.5375,0,0,1.65217,4739.97,660.959)">
            <rect x="200.586" y="-400.056" width="325.203" height="302.633" style="fill:none;"/>
            <g id="wa" transform="matrix(7.56529,0,0,7.04024,-3380.29,-3063.75)">
                <path d="M482.261,412.769C483.568,412.657 485.577,413.164 487.558,412.229C489.539,411.295 489.342,409.892 492.732,410.117C496.122,410.342 496.224,410.623 499.503,411.591C502.557,412.493 502.745,412.611 504.771,412.089C506.19,411.723 506.062,410.439 507.983,408.88C509.904,407.321 510.727,406.522 510.956,407.547C511.184,408.572 510.586,408.633 509.963,409.621C509.34,410.608 508.605,412.771 506.998,413.855C505.524,414.849 501.449,416.053 499.29,415.476C497.132,414.898 494.509,412.93 492.089,413.367C489.669,413.804 488.603,415.748 485.384,415.81C482.165,415.871 480.228,416.15 480.075,414.673C479.922,413.196 480.43,412.926 482.261,412.769ZM491.556,384.367C491.556,384.367 494.133,384.076 494.976,385.64C495.818,387.204 496.689,389.305 495.552,390.572C494.416,391.839 491.003,393.829 490.379,395.098C489.754,396.366 488.784,396.919 489.946,397.405C491.108,397.891 499.186,397.947 500.693,397.275C502.199,396.604 504.163,394.764 503.214,393.812C502.265,392.859 501.269,391.903 499.319,392.726C497.369,393.55 495.528,394.561 495.755,393.672C495.982,392.783 497.42,392.537 497.917,391.493C498.415,390.45 498.583,390.913 497.864,389.378C497.145,387.842 495.943,385.782 498.527,384.647C501.112,383.512 503.092,383.614 503.987,384.54C504.881,385.466 505.925,387.553 505.041,388.597C504.158,389.64 503.181,390.005 503.883,390.996C504.585,391.987 506.209,392.377 506.188,394.086C506.168,395.795 506.22,397.289 504.937,397.876C503.448,398.559 501.692,399.538 499.68,400.044C497.667,400.551 496.034,399.852 495.793,400.654C495.552,401.455 495.233,402.146 497.126,402.418C499.018,402.689 505.646,403.071 507.672,402.754C509.698,402.438 512.231,401.924 512.003,402.629C511.775,403.333 508.155,404.999 506.272,405.349C504.389,405.7 499.946,405.767 498.171,405.462C496.395,405.157 493.747,404.159 491.394,405.321C489.041,406.484 483.895,408.458 481.121,406.9C478.346,405.341 477.143,404.766 477.808,403.613C478.473,402.46 478.845,402.514 480.38,402.829C481.914,403.144 486.839,403.281 488.461,403.058C490.083,402.834 491.861,402.915 492.006,402.108C492.15,401.301 492.551,400.923 491.579,400.84C490.606,400.756 486.34,400.932 485.615,399.739C484.89,398.546 484.39,396.799 485.329,395.609C486.268,394.419 488.099,393.035 489.403,392.331C490.708,391.628 493.025,389.401 492.668,388.534C492.311,387.667 491.111,386.919 490.275,387.551C489.438,388.182 486.947,391.551 485.589,391.551C484.232,391.551 479.936,389.278 480.142,388.29C480.348,387.302 480.994,387.075 482.297,387.293C483.6,387.51 485.806,387.785 486.948,387.058C488.089,386.33 489.069,384.135 491.556,384.367ZM499.948,387.126C499.948,387.126 500.718,385.921 501.463,386.366C502.209,386.81 503.102,387.397 502.266,387.81C501.43,388.223 500.07,388.271 499.948,387.126Z"/>
            </g>
        </g>
    </g>
</svg>
