<?xml version="1.0" encoding="UTF-8" standalone="no"?>
<!DOCTYPE svg PUBLIC "-//W3C//DTD SVG 1.1//EN" "http://www.w3.org/Graphics/SVG/1.1/DTD/svg11.dtd">
<svg width="100%" height="100%" viewBox="0 0 501 501" version="1.1" xmlns="http://www.w3.org/2000/svg" xmlns:xlink="http://www.w3.org/1999/xlink" xml:space="preserve" style="fill-rule:evenodd;clip-rule:evenodd;stroke-linejoin:round;stroke-miterlimit:1.41421;">
    <g transform="matrix(1,0,0,1,-3926,-1721)">
        <g id="we-.--ヱ" transform="matrix(1.5375,0,0,1.65217,3618.11,2382.53)">
            <rect x="200.586" y="-400.056" width="325.203" height="302.633" style="fill:none;"/>
            <g id="we" transform="matrix(7.85129,0,0,7.30638,-3980.96,-4192.21)">
                <path d="M554.575,525.279C555.708,525.414 557.797,525.931 558.245,527.061C558.693,528.19 559.117,528.753 558.711,529.951C558.304,531.149 557.155,532.094 557.748,533.018C558.342,533.941 558.375,533.569 560.204,534.442C562.034,535.315 562.91,536.126 562.662,537.544C562.414,538.962 561.66,539.732 561.674,540.94C561.689,542.147 561.342,542.515 562.789,542.582C564.236,542.65 564.811,542.045 564.976,543.281C565.141,544.517 564.332,545.37 564.004,546.302C563.675,547.234 562.637,549.805 563.758,550.203C564.88,550.601 566.005,550.916 566.672,550.12C567.338,549.324 568.715,547.901 569.294,547.971C569.874,548.04 570.037,548.455 569.692,549.248C569.348,550.042 569.036,550.497 568.848,551.805C568.659,553.114 566.957,554.348 565.027,554.186C563.097,554.023 559.955,552.686 560.618,549.774C561.282,546.863 561.729,546.72 561.434,545.969C561.139,545.218 559.376,545.034 558.631,545.086C557.886,545.138 556.852,546.075 555.53,547.075C554.209,548.075 552.806,549.722 551.238,549.829C549.669,549.936 547.637,549.629 548.131,548.874C548.625,548.119 550.128,548.889 551.397,548.025C552.665,547.161 553.748,545.223 553.587,544.025C553.426,542.828 553.391,542.098 553.17,541.072C553.022,540.386 553.098,539.423 552.552,538.989C551.411,538.082 549.255,538.347 548.911,538.778C548.566,539.209 548.363,540.818 548.078,541.908C547.794,542.998 546.984,544.072 545.519,544.398C544.053,544.724 541.809,545.472 540.026,544.927C538.243,544.382 536.854,543.261 537.512,542.848C538.17,542.435 539.195,543.392 540.345,543.375C541.496,543.359 544.401,542.381 544.921,541.224C545.441,540.067 546.184,538.869 545.324,538.808C544.465,538.747 542.233,539.156 541.336,538.172C540.439,537.188 537.917,535.055 537.76,533.565C537.602,532.075 537.357,532.417 537.09,531.599C536.824,530.781 536.378,529.657 537.24,529.906C538.103,530.155 539.278,530.935 539.899,531.829C540.519,532.722 540.599,533.83 541.928,534.374C543.257,534.919 543.883,535.599 544.029,534.871C544.176,534.143 543.422,532.305 543.708,530.735C543.993,529.165 544.984,528.429 545.96,527.345C546.936,526.261 547.762,525.02 548.515,525.455C549.268,525.89 549.221,526.681 548.765,527.377C548.308,528.074 547.035,534.94 548.029,535.375C549.023,535.811 551.689,535.88 552.161,534.816C552.477,534.101 553.922,532.685 554.74,531.074C555.453,529.669 554.307,528.275 553.815,527.703C553.322,527.13 552.392,525.02 554.575,525.279ZM556.286,537.644C555.734,538.177 555.257,538.731 555.76,539.52C556.262,540.309 557.071,541.528 557.754,541.447C558.437,541.367 558.362,541.215 558.589,539.931C558.815,538.647 559.05,537.749 558.272,537.5C557.495,537.252 556.82,537.129 556.286,537.644Z"/>
            </g>
        </g>
    </g>
</svg>
