<?xml version="1.0" encoding="UTF-8" standalone="no"?>
<!DOCTYPE svg PUBLIC "-//W3C//DTD SVG 1.1//EN" "http://www.w3.org/Graphics/SVG/1.1/DTD/svg11.dtd">
<svg width="100%" height="100%" viewBox="0 0 501 501" version="1.1" xmlns="http://www.w3.org/2000/svg" xmlns:xlink="http://www.w3.org/1999/xlink" xml:space="preserve" style="fill-rule:evenodd;clip-rule:evenodd;stroke-linejoin:round;stroke-miterlimit:1.41421;">
    <g transform="matrix(1,0,0,1,-5048,-1721)">
        <g id="we-.--ヱ" transform="matrix(1.5375,0,0,1.65217,4739.97,2382.53)">
            <rect x="200.586" y="-400.056" width="325.203" height="302.633" style="fill:none;"/>
            <g id="we" transform="matrix(6.41259,0,0,5.96753,-2814.65,-3465.77)">
                <path d="M485.274,544.374C486.288,543.862 489.012,543.491 489.506,544.077C490,544.663 489.655,546.418 489.986,547.075C490.318,547.731 490.635,549.183 491.659,550.234C492.961,551.571 493.502,552.199 494.587,552.707C495.812,553.281 496.841,553.795 496.048,554.103C495.122,554.462 491.345,554.651 490.223,554.035C489.101,553.418 488.469,551.862 488.065,550.521C487.66,549.179 488.241,547.315 487.21,547.34C486.179,547.366 486.069,548.13 485.105,549.086C484.141,550.042 482.377,551.64 481.237,551.961C480.097,552.283 478.751,553.221 477.424,552.296C475.656,551.062 475.281,550.243 475.506,548.72C475.731,547.196 476.572,546.458 477.098,547.369C477.623,548.28 477.51,549.398 479.087,549.197C480.663,548.995 481.692,548.92 482.583,547.356C483.475,545.793 484.17,544.931 485.274,544.374ZM487.002,526.25C487.437,526.936 487.474,527.582 489.033,527.85C490.593,528.118 492.497,527.714 492.908,528.976C493.318,530.237 493.921,532.346 492.787,533.009C491.652,533.672 488.91,534.808 489.349,535.715C489.787,536.622 490.177,536.589 491.874,536.62C493.571,536.651 494.823,536.986 496.308,537.606C497.794,538.226 498.845,538.696 499.739,539.695C501.069,541.181 501.258,542.903 502.333,543.856C503.407,544.809 503.756,546.242 505.084,546.802C506.412,547.362 507.221,548.001 508.835,547.831C510.45,547.662 511.273,546.742 511.668,547.294C512.063,547.846 512.568,548.321 511.741,548.901C510.638,549.675 506.682,549.641 504.289,549.438C501.327,549.187 499.785,547.287 498.7,544.667C497.775,542.429 496.881,540.808 495.054,540.016C493.226,539.224 491.054,539.03 489.438,539.6C487.822,540.17 485.104,541.317 483.922,542.001C482.74,542.684 481.529,543.796 479.945,544.313C478.36,544.83 476.914,544.94 476.127,543.896C475.34,542.852 474.829,542.503 475.84,541.91C476.851,541.317 478.097,541.245 478.936,539.784C479.775,538.322 481.927,536.177 483.671,534.78C485.236,533.526 486.749,533.912 488.402,533.464C489.859,533.069 491.284,531.893 490.445,531.404C489.606,530.916 488.834,530.994 487.444,530.738C486.054,530.481 485.419,530.929 485.245,529.082C485.071,527.235 484.506,526.305 485.382,525.936C486.258,525.567 486.501,525.459 487.002,526.25ZM497.811,523.763C498.93,523.578 498.685,524.668 500.547,525.027C502.409,525.386 504.113,524.821 505.563,525.269C507.012,525.717 507.713,526.602 507.309,527.49C506.905,528.378 505.236,530.471 504.454,531.411C503.673,532.351 502.387,533.165 502.513,534.432C502.64,535.698 502.85,535.83 504.276,537.414C505.701,538.998 507.313,540.739 509.212,540.623C511.111,540.507 511.376,540.96 511.392,539.742C511.408,538.524 510.941,536.915 511.475,536.377C512.01,535.84 513.754,537.817 514.406,538.736C515.081,539.688 516.372,541.385 515.62,542.393C514.602,543.757 509.201,544.536 507.388,543.677C505.575,542.817 503.209,540.885 501.586,539.077C500.023,537.336 498.479,536.465 498.943,534.74C499.407,533.014 500.968,531.365 501.684,530.671C502.4,529.977 503.964,529.304 503.531,528.717C503.098,528.129 500.482,528.318 499.499,528.029C498.516,527.74 496.969,526.354 497.117,525.348C497.265,524.343 497.021,523.893 497.811,523.763Z"/>
            </g>
        </g>
    </g>
</svg>
