<?xml version="1.0" encoding="UTF-8" standalone="no"?>
<!DOCTYPE svg PUBLIC "-//W3C//DTD SVG 1.1//EN" "http://www.w3.org/Graphics/SVG/1.1/DTD/svg11.dtd">
<svg width="100%" height="100%" viewBox="0 0 501 501" version="1.1" xmlns="http://www.w3.org/2000/svg" xmlns:xlink="http://www.w3.org/1999/xlink" xml:space="preserve" style="fill-rule:evenodd;clip-rule:evenodd;stroke-linejoin:round;stroke-miterlimit:1.41421;">
    <g transform="matrix(1,0,0,1,-5048,-573)">
        <g id="wi-.--ヰ" transform="matrix(1.5375,0,0,1.65217,4739.97,1234.82)">
            <rect x="200.586" y="-400.056" width="325.203" height="302.633" style="fill:none;"/>
            <g id="wi" transform="matrix(7.63457,0,0,7.1047,-3398.5,-3431.27)">
                <path d="M502.7,430.933C504.911,431.108 509.612,432.759 509.402,435.138C509.192,437.516 506.44,438.985 504.754,439.563C503.067,440.141 501.835,440.549 503.091,440.882C504.347,441.214 509.664,442.613 508.841,444.637C508.019,446.662 506.785,447.863 505.517,448.484C504.249,449.105 502.127,449.24 501.336,450.083C500.546,450.925 499.457,451.602 500.194,452.675C500.93,453.748 501.864,453.644 501.456,454.715C501.048,455.786 500.598,456.751 500.346,457.653C500.094,458.554 500.017,458.297 500.411,459.18C500.805,460.063 499.692,461.501 501.116,461.426C502.539,461.351 503.469,461.168 504.476,460.192C505.483,459.217 507.512,453.909 508.298,453.268C509.085,452.627 509.573,452.596 509.483,453.926C509.394,455.256 507.464,460.559 506.819,461.13C506.174,461.701 506.006,464.075 504.62,464.486C503.233,464.897 499.697,465.509 498.722,464.149C497.746,462.789 498.829,462.333 497.787,461.332C496.745,460.331 495.234,460.549 495.633,459.025C496.033,457.501 497.656,457.072 497.655,456.148C497.653,455.224 497.874,455.033 496.41,454.797C494.947,454.562 491.569,452.202 491.421,451.106C491.273,450.01 491.114,449.107 491.965,448.461C492.816,447.816 493.129,447.104 492.165,446.931C491.2,446.758 490.309,446.072 490.267,447.182C490.225,448.292 490.306,449.21 489.489,449.49C488.672,449.769 487.942,450.468 487.007,451.423C486.072,452.377 484.589,453.884 484.025,454.349C483.461,454.815 482.942,454.361 482.304,454.965C481.666,455.569 480.262,456.482 479.83,457.257C479.398,458.031 478.864,458.576 478.388,458.192C477.911,457.808 477.965,457.185 478.872,456.462C479.779,455.739 479.128,455.626 480.498,454.632C481.868,453.639 484.726,450.719 485.462,449.753C486.197,448.787 487.772,448.267 487.01,447.742C486.248,447.216 482.718,447.691 482.027,446.495C481.335,445.299 481.292,444.879 481.932,443.595C482.571,442.312 484.605,439.939 485.215,438.823C485.826,437.707 487.009,436.365 485.975,436.323C484.941,436.28 482.643,439.504 480.913,439.447C479.511,439.401 477.33,437.422 476.873,436.709C476.416,435.995 475.331,435.357 476.396,435.038C477.46,434.719 478.611,435.241 479.304,435.246C479.997,435.251 480.994,435.044 482.069,434.714C483.145,434.385 484.473,433.868 485.418,433.868C486.363,433.868 488.516,433.385 489.128,434.559C489.74,435.733 489.625,436.971 489.519,437.602C489.413,438.233 488.865,438.611 490.439,438.527C492.012,438.444 492.852,437.721 493.847,436.485C494.842,435.249 497.169,433.125 498.931,432.19C500.694,431.256 500.936,430.794 502.7,430.933ZM495.836,438.878C496.81,436.734 497.266,436.231 499.047,435.34C500.827,434.448 502.319,434.174 503.537,434.159C504.543,434.147 506.011,434.078 506.352,435.252C506.665,436.329 505.637,437.15 504.343,437.535C503.048,437.919 501.168,438.936 499.845,439.657C498.522,440.378 496.789,441.412 497.021,442.671C497.254,443.929 497.976,444.635 500.017,444.717C502.059,444.8 504.476,444.488 504.507,445.372C504.533,446.134 501.436,447.886 499.912,447.618C498.388,447.351 495.822,447.394 495.332,446.725C494.817,446.023 495.837,444.54 495.248,443.991C494.653,443.436 491.935,444.277 490.435,444.338C488.935,444.399 485.697,444.447 485.217,443.583C484.744,442.734 486.239,440.944 487.003,440.293C487.907,439.523 489.11,439.277 489.565,440.176C490.019,441.076 490.494,442.056 491.519,442.227C492.545,442.397 493.855,442.891 494.597,442.103C495.338,441.316 495.151,440.388 495.836,438.878Z"/>
            </g>
        </g>
    </g>
</svg>
