<?xml version="1.0" encoding="UTF-8" standalone="no"?>
<!DOCTYPE svg PUBLIC "-//W3C//DTD SVG 1.1//EN" "http://www.w3.org/Graphics/SVG/1.1/DTD/svg11.dtd">
<svg width="100%" height="100%" viewBox="0 0 501 501" version="1.1" xmlns="http://www.w3.org/2000/svg" xmlns:xlink="http://www.w3.org/1999/xlink" xml:space="preserve" style="fill-rule:evenodd;clip-rule:evenodd;stroke-linejoin:round;stroke-miterlimit:1.41421;">
    <g transform="matrix(1,0,0,1,-3926,-573)">
        <g id="wi-.--ヰ" transform="matrix(1.5375,0,0,1.65217,3618.11,1234.82)">
            <rect x="200.586" y="-400.056" width="325.203" height="302.633" style="fill:none;"/>
            <g id="wi" transform="matrix(6.68486,0,0,6.22091,-3331.26,-3035.5)">
                <path d="M551.385,429.372C554.104,429.305 556.429,429.371 558.79,429.063C561.152,428.755 561.936,427.751 562.4,429.57C562.863,431.39 561.297,434.51 560.697,436.131C560.098,437.752 558.362,438.834 560.343,439.13C562.325,439.426 564.56,440.239 566.293,438.853C568.025,437.466 569.318,435.382 569.884,436.465C570.451,437.549 570.459,437.645 569.491,438.927C568.523,440.208 568.504,441.917 565.501,442.778C562.498,443.638 560.911,442.604 560.423,443.408C559.935,444.212 558.603,444.862 559.779,445.273C560.956,445.684 563.093,445.662 564.365,445.389C565.638,445.116 567.763,444.595 567.986,445.569C568.209,446.544 565.027,449.412 562.902,449.753C560.778,450.095 560.731,450.02 560.558,451.177C560.385,452.335 559.629,453.457 559.357,454.235C559.084,455.013 558.026,455.538 559.853,455.339C561.68,455.14 562.19,454.318 563.579,455.011C564.968,455.704 567.125,457.464 566.821,458.705C566.517,459.946 563.821,461.502 562.607,462.032C561.394,462.563 554.128,467.873 553.224,467.396C552.319,466.92 550.661,467.079 553.008,465.816C555.355,464.553 556.429,464.154 557.469,463.16C558.508,462.167 560.861,460.245 560.102,459.751C559.342,459.258 557.602,458.807 555.582,459.341C553.562,459.876 552.264,460.929 549.402,460.303C546.54,459.677 545.856,458.529 546.458,457.489C547.061,456.449 548.307,455.616 547.929,455.143C547.552,454.67 546.853,454.454 546.191,455.019C545.529,455.584 544.227,456.936 542.844,456.655C541.461,456.374 539.335,454.689 540.168,453.504C541.002,452.32 541.584,452.169 542.964,452.337C544.344,452.504 545.332,452.132 546.666,451.463C548,450.794 550.107,449.911 551.288,450.617C552.468,451.323 553.071,451.613 552.908,452.581C552.745,453.548 551.969,454.625 553.216,454.745C554.464,454.865 555.781,454.832 556.537,453.689C557.294,452.546 558.221,450.608 557.61,449.827C557,449.047 555.071,447.621 553.708,447.901C552.345,448.18 549.146,449.147 547.344,449.433C545.542,449.718 541.723,450.062 539.328,449.766C536.933,449.471 534.784,448.47 535.072,446.948C535.36,445.426 535.879,444.897 536.634,445.289C537.389,445.682 540.094,447.365 542.625,447.232C545.157,447.1 547.984,446.179 549.647,445.543C551.31,444.908 555.875,444.994 556.168,444.274C556.461,443.555 556.739,440.878 555.176,440.682C553.614,440.485 552.889,440.425 550.506,441.287C548.123,442.15 545.543,442.707 543.012,442.33C540.481,441.953 535.914,438.913 536.667,437.522C537.419,436.131 538.054,436.412 539.703,437.182C541.352,437.951 545.445,438.948 547.498,438.405C549.551,437.861 551.267,437.391 553.067,437.732C554.867,438.074 555.905,438.799 556.393,437.958C556.881,437.118 558.681,434.376 558.743,433.431C558.805,432.486 559.138,431.742 558.023,432.102C556.908,432.463 556.022,433.112 554.177,432.997C552.332,432.883 550.348,432.663 550.285,431.312C550.221,429.962 550.148,429.491 551.385,429.372ZM551.228,455.607C550.904,455.799 549.814,456.65 550.571,456.884C551.327,457.119 551.949,457.187 552.573,457.076C553.164,456.971 552.806,456.107 552.455,455.814C552.213,455.613 551.527,455.429 551.228,455.607Z"/>
            </g>
        </g>
    </g>
</svg>
