<?xml version="1.0" encoding="UTF-8" standalone="no"?>
<!DOCTYPE svg PUBLIC "-//W3C//DTD SVG 1.1//EN" "http://www.w3.org/Graphics/SVG/1.1/DTD/svg11.dtd">
<svg width="100%" height="100%" viewBox="0 0 501 501" version="1.1" xmlns="http://www.w3.org/2000/svg" xmlns:xlink="http://www.w3.org/1999/xlink" xml:space="preserve" style="fill-rule:evenodd;clip-rule:evenodd;stroke-linejoin:round;stroke-miterlimit:1.41421;">
    <g transform="matrix(1,0,0,1,-5048,-2295)">
        <g id="wo-.--ヲ" transform="matrix(1.5375,0,0,1.65217,4739.97,2956.39)">
            <rect x="200.586" y="-400.056" width="325.203" height="302.633" style="fill:none;"/>
            <g id="wo" transform="matrix(7.28364,0,0,6.77813,-3240.48,-4215.95)">
                <path d="M497.038,572.611C498.891,573.143 501.35,573.83 501.654,574.854C501.957,575.878 502.236,576.427 501.125,577.314C500.015,578.201 498.57,580.158 497.529,580.434C496.488,580.71 495.632,581.993 496.652,582.038C497.673,582.083 500.595,582.463 500.911,582.003C501.228,581.544 500.214,581.452 500.801,580.633C501.388,579.814 501.806,579.402 502.773,579.951C503.741,580.501 504.858,580.98 506.097,580.635C507.337,580.291 509.191,579.883 510.382,580.399C511.572,580.915 512.858,581.806 512.583,582.642C512.309,583.477 510.708,584.972 511.005,586.08C511.302,587.188 512.361,587.876 512.072,588.838C511.784,589.8 511.062,590.014 511.04,591.324C511.017,592.633 511.027,594.236 510.038,594.833C509.048,595.429 507.081,596.417 506.888,597.157C506.695,597.897 505.444,599.907 503.505,599.765C501.566,599.623 499.421,597.777 497.5,597.193C495.579,596.61 490.354,595.659 486.547,596.456C482.74,597.254 483.205,601.178 480.849,600.179C478.493,599.179 477.925,597.322 479.404,596.596C480.882,595.87 484.704,594.56 485.438,593.41C486.171,592.259 488.255,591.551 488.978,591.267C489.701,590.983 490.066,590.183 489.318,590.319C488.57,590.454 486.055,591.101 484.438,591.48C482.82,591.859 479.751,591.418 478.539,589.975C477.328,588.532 476.281,587.712 477.338,586.918C478.395,586.123 478.167,586.255 479.668,587.08C481.169,587.906 482.996,588.27 484.076,588.152C485.156,588.034 488.491,586.715 489.146,586.664C489.802,586.612 492.228,586.825 492.5,586.076C492.773,585.326 492.793,582.964 493.387,581.861C493.982,580.758 494.786,580.995 495.372,579.93C495.958,578.865 497.576,578.233 497.372,577.243C497.167,576.253 496.826,576.716 496.108,575.398C495.391,574.08 495.079,572.048 497.038,572.611ZM502.233,583.983C502.793,583.589 503.649,583.17 505.137,583.29C506.625,583.411 508.14,582.902 507.932,583.751C507.725,584.6 507.131,584.716 506.765,585.528C506.399,586.339 505.683,587.235 506.302,587.934C506.922,588.633 508.342,589.128 507.933,590.059C507.524,590.99 506.977,591.383 506.784,592.099C506.591,592.814 506.337,594.482 505.701,594.838C505.065,595.194 504.291,596.548 502.527,595.963C500.762,595.379 500.33,595.414 501.219,594.141C502.108,592.868 502.465,592.547 503.676,591.968C504.887,591.389 505.316,591.706 505.479,590.679C505.642,589.652 505.964,589.211 505.435,588.212C504.907,587.213 505.241,587.173 503.604,586.677C501.967,586.18 501.046,584.819 502.233,583.983ZM496.094,586.067C494.933,586.682 495.121,588.388 495.312,589.344C495.503,590.3 496.083,591.276 495.12,591.138C494.157,591 492.687,590.813 493.132,591.732C493.577,592.651 493.859,592.341 494.976,592.744C496.092,593.148 495.452,593.317 496.782,593.715C498.112,594.112 499.213,594.803 499.524,593.999C499.836,593.195 501.166,593.133 500.739,591.932C500.311,590.731 500.561,590.97 499.394,590.235C498.227,589.501 497.625,588.741 498.084,587.816C498.543,586.891 499.066,586.17 498.431,586.067C497.797,585.964 496.592,585.804 496.094,586.067ZM486.02,570.378C486.606,570.54 487.363,571.303 488.587,570.949C489.812,570.596 491.138,570.068 491.526,571.138C491.915,572.208 491.826,574.169 490.643,575.126C489.46,576.083 488.19,577.086 489,577.651C489.809,578.215 491.028,577.105 491.718,578.192C492.409,579.279 493.028,580.481 492.104,581.19C491.18,581.9 490.324,582.516 490.324,583.358C490.324,584.201 490.564,585.175 489.614,585.401C488.665,585.627 487.499,585.616 487.941,584.632C488.383,583.647 489.357,583.464 489.154,582.39C488.951,581.315 489.156,580.758 488.08,580.757C487.003,580.757 485.309,581.491 485.197,579.674C485.085,577.857 484.981,576.896 485.92,576.168C486.858,575.44 487.857,575.181 487.039,574.647C486.222,574.113 484.843,573.643 484.656,572.802C484.469,571.962 483.513,569.687 486.02,570.378Z"/>
            </g>
        </g>
    </g>
</svg>
