<?xml version="1.0" encoding="UTF-8" standalone="no"?>
<!DOCTYPE svg PUBLIC "-//W3C//DTD SVG 1.1//EN" "http://www.w3.org/Graphics/SVG/1.1/DTD/svg11.dtd">
<svg width="100%" height="100%" viewBox="0 0 501 500" version="1.1" xmlns="http://www.w3.org/2000/svg" xmlns:xlink="http://www.w3.org/1999/xlink" xml:space="preserve" style="fill-rule:evenodd;clip-rule:evenodd;stroke-linejoin:round;stroke-miterlimit:1.41421;">
    <g transform="matrix(1,0,0,1,-3926,0)">
        <g id="ya-.--ヤ" transform="matrix(1.5375,0,0,1.65217,3618.11,660.959)">
            <rect x="200.586" y="-400.056" width="325.203" height="302.633" style="fill:none;"/>
            <g id="ya" transform="matrix(7.70555,0,0,7.17075,-3910.79,-3116.95)">
                <path d="M544.049,386.678C544.049,386.678 544.687,386.759 546.201,386.198C547.715,385.638 549.247,384.513 551.094,385.585C552.941,386.656 553.645,386.905 553.769,388.414C553.893,389.923 553.207,391.104 554.238,391.838C555.269,392.572 556.709,393.24 557.493,393.818C558.278,394.395 558.729,394.839 558.592,393.453C558.456,392.068 558.963,390.322 559.985,389.056C561.007,387.791 560.731,386.611 561.621,386.114C562.511,385.616 565.2,385.472 566.836,386.434C568.472,387.396 568.796,388.646 569.932,390.458C571.068,392.27 571.736,394.962 571.494,396.875C571.253,398.788 570.153,404.531 568.295,404.405C566.438,404.279 565.221,404.206 565.125,402.643C565.029,401.079 566.747,400.899 566.809,399.972C566.87,399.045 567.22,397.87 566.433,397.952C565.645,398.035 565.369,398.463 564.689,398.882C564.009,399.3 563.335,398.979 563.491,400.287C563.646,401.594 564.058,403.544 563.504,403.544C562.726,403.544 561.121,403.139 560.514,401.945C559.906,400.751 559.416,398.576 558.547,398.07C557.677,397.565 556.935,397.756 556.464,398.585C555.993,399.413 555.316,400.462 555.911,400.981C556.507,401.499 558.339,401.62 559.208,402.536C560.077,403.453 560.654,403.891 560.46,405.173C560.266,406.455 559.647,408.395 558.973,408.964C558.298,409.533 555.136,414.332 553.452,413.467C551.767,412.601 552.796,412.948 553.367,411.861C553.938,410.774 555.715,409.311 555.378,407.952C555.041,406.593 552.976,405.481 551.769,403.515C550.562,401.548 550.587,401.678 551.31,400.004C552.034,398.33 553.876,398.344 553.636,396.903C553.397,395.462 552.642,393.56 550.342,394.338C548.043,395.117 546.708,397.294 545.772,397.518C544.837,397.741 543.886,398.657 544.693,398.76C545.501,398.863 548.981,400.683 549.313,402.211C549.645,403.738 549.393,405.073 548.639,406.203C547.885,407.334 547.872,407.979 546.426,408.418C544.979,408.857 544.545,409.185 543.896,410.181C543.246,411.176 542.1,413.511 540.862,413.806C539.625,414.1 538.106,415.456 537.867,414.5C537.628,413.544 537.845,414.211 539.011,412.883C540.178,411.555 541.371,409.347 542.057,408.339C542.742,407.331 543.863,405.052 544.536,404.668C545.208,404.283 546.215,403.567 545.156,403.204C544.097,402.842 540.402,401.499 540.87,399.546C541.338,397.594 543.812,395.546 544.673,394.848C545.534,394.149 547.773,392.658 548.635,391.522C549.497,390.386 550.101,389.601 548.948,389.579C547.794,389.557 546.518,390.244 544.974,390.328C543.43,390.412 540.994,389.781 540.345,387.855C539.695,385.929 539.777,385.431 540.915,385.43C542.053,385.429 542.566,386.666 544.049,386.678ZM566.479,394.512C566.256,394.291 564.783,395.002 565.072,395.603C565.361,396.204 565.422,397.058 566.413,396.927C567.403,396.796 566.703,394.732 566.479,394.512ZM563.282,388.929C563.282,388.929 562.322,389.184 562.374,390.233C562.427,391.282 561.917,392.392 562.894,392.5C563.871,392.609 565.639,392.98 565.68,392.363C565.72,391.745 565.569,391.304 564.958,390.408C564.472,389.696 563.871,388.991 563.282,388.929Z"/>
            </g>
        </g>
    </g>
</svg>
