<?xml version="1.0" encoding="UTF-8" standalone="no"?>
<!DOCTYPE svg PUBLIC "-//W3C//DTD SVG 1.1//EN" "http://www.w3.org/Graphics/SVG/1.1/DTD/svg11.dtd">
<svg width="100%" height="100%" viewBox="0 0 501 501" version="1.1" xmlns="http://www.w3.org/2000/svg" xmlns:xlink="http://www.w3.org/1999/xlink" xml:space="preserve" style="fill-rule:evenodd;clip-rule:evenodd;stroke-linejoin:round;stroke-miterlimit:1.41421;">
    <g transform="matrix(1,0,0,1,-3926,-2295)">
        <g id="yo-.--ヨ" transform="matrix(1.5375,0,0,1.65217,3618.11,2956.39)">
            <rect x="200.586" y="-400.056" width="325.203" height="302.633" style="fill:none;"/>
            <g id="yo" transform="matrix(7.87393,0,0,7.32745,-4011,-4528.43)">
                <path d="M543.865,572.637C545.43,572.758 546.631,572.514 547.754,573.6C548.876,574.687 548.63,575.714 549.603,576.652C550.576,577.59 550.251,578.073 551.726,577.612C553.202,577.151 553.605,576.519 555.251,577.073C556.897,577.627 557.558,577.784 559.658,577.81C561.758,577.836 562.793,577.75 562.934,579.228C563.075,580.707 562.291,581.16 562.299,582.107C562.307,583.054 562.426,582.793 563.145,583.975C563.865,585.156 564.132,587.276 562.929,587.837C561.725,588.397 559.488,588.35 559.578,589.448C559.669,590.545 559.821,590.613 560.969,591.266C562.117,591.919 562.507,592.048 563.814,592.156C564.725,592.231 564.454,592.686 565.496,592.975C567.039,593.404 568.187,593.874 567.908,592.707C567.629,591.54 567.178,590.788 568.119,590.719C569.06,590.65 572.1,593.315 572.047,594.493C571.995,595.671 571.456,596.297 570.481,596.402C569.632,596.493 570.193,597.068 568.177,597.103C566.161,597.138 564.768,597.266 563.051,596.492C561.499,595.792 559.923,596.73 558.95,595.944C557.872,595.073 559.14,592.613 557.861,592.474C556.583,592.334 556.684,592.538 555.834,593.348C554.985,594.158 553.714,594.434 551.674,594.564C549.641,594.692 547.966,593.918 548.494,592.173C549.023,590.427 549.281,589.809 551.114,589.241C552.946,588.673 554.693,587.629 555.976,587.486C557.259,587.343 559.266,586.937 558.957,586.222C558.649,585.507 558.777,585.12 557.379,585.054C555.981,584.989 552.681,584.772 551.609,585.234C550.536,585.696 548.679,586.205 548.21,586.855C547.741,587.505 547.998,588.072 546.616,588.003C545.234,587.935 544.96,588.783 545.605,589.532C546.25,590.281 547.154,590.997 546.742,591.781C546.33,592.564 545.992,594.513 544.167,594.627C542.342,594.742 540.899,594.256 540.427,594.928C539.954,595.6 538.95,595.481 539.01,594.53C539.069,593.58 539.483,592.915 540.555,592.739C541.627,592.563 542.822,592.58 542.838,591.516C542.855,590.452 543.201,589.356 542.575,588.575C541.948,587.794 540.011,585.521 539.703,585.024C539.394,584.527 538.57,583.819 539.507,583.044C540.444,582.27 540.715,582.59 541.148,583.405C541.58,584.22 543.805,585.327 545.311,585.008C546.817,584.689 548.952,583.964 550.019,583.249C551.086,582.534 552.593,581.901 553.722,581.78C554.852,581.659 557.498,581.203 558.103,581.348C558.707,581.492 559.932,581.388 559.246,581.044C558.56,580.699 557.458,580.532 552.765,580.618C548.073,580.704 547.154,580.393 546.839,578.242C546.523,576.09 546.29,575.745 543.683,575.821C541.075,575.897 540.297,576.202 540.02,574.373C539.743,572.544 539.318,571.69 540.336,571.235C541.355,570.78 541.389,570.979 542.125,571.713C542.861,572.448 542.722,572.549 543.865,572.637Z"/>
            </g>
        </g>
    </g>
</svg>
