<?xml version="1.0" encoding="UTF-8" standalone="no"?>
<!DOCTYPE svg PUBLIC "-//W3C//DTD SVG 1.1//EN" "http://www.w3.org/Graphics/SVG/1.1/DTD/svg11.dtd">
<svg width="100%" height="100%" viewBox="0 0 501 501" version="1.1" xmlns="http://www.w3.org/2000/svg" xmlns:xlink="http://www.w3.org/1999/xlink" xml:space="preserve" style="fill-rule:evenodd;clip-rule:evenodd;stroke-linejoin:round;stroke-miterlimit:1.41421;">
    <g transform="matrix(1,0,0,1,-3926,-1147)">
        <g id="yu-.--ユ" transform="matrix(1.5375,0,0,1.65217,3618.11,1808.68)">
            <rect x="200.586" y="-400.056" width="325.203" height="302.633" style="fill:none;"/>
            <g id="yu" transform="matrix(8.04074,0,0,7.48268,-4080.95,-3928.84)">
                <path d="M552.671,504.292C554.722,504.235 563.778,504.888 564.357,504.275C564.935,503.661 564.837,499.376 565.255,497.707C565.672,496.038 566.204,495.302 566.736,496.39C567.268,497.478 566.271,499.675 567.487,500.8C568.702,501.926 568.65,502.101 568.679,503.503C568.709,504.904 569.352,506.917 568.167,507.146C566.982,507.375 552.875,506.971 551.84,507.205C550.805,507.438 545.313,508.793 544.258,507.098C543.631,506.09 544.037,505.52 545.71,504.448C547.383,503.375 549.792,502.049 549.034,501.214C548.277,500.378 548.8,500.462 546.272,500.519C543.744,500.576 541.43,500.219 541.966,499.079C542.502,497.94 544.265,498.323 545.859,497.862C547.453,497.4 548.92,497.374 547.852,496.749C546.784,496.125 545.169,496.396 542.553,496.234C539.938,496.072 536.051,493.95 536.572,492.523C537.092,491.097 537.683,491.311 538.282,491.896C538.88,492.482 541.157,493.767 544.728,493.4C548.3,493.034 552.078,492.402 552.688,491.132C553.299,489.861 553.806,489.342 554.726,488.709C555.645,488.077 556.903,487.746 555.712,487.12C554.521,486.495 551.847,486.1 552.21,484.628C552.573,483.156 552.798,481.736 553.787,481.215C554.776,480.694 555.709,479.298 554.753,479.358C553.797,479.418 552.327,479.565 551.123,480.564C549.92,481.563 548.894,483.36 548.227,484.41C547.56,485.459 547.195,486.212 544.988,486.094C542.782,485.976 540.838,485.905 540.904,483.722C540.97,481.54 542.191,481.363 542.412,480.193C542.633,479.023 541.523,477.111 542.813,476.896C544.103,476.681 544.752,477.623 545.866,478.279C546.98,478.935 546.665,479.358 547.444,478.29C548.223,477.222 547.979,475.845 550.098,475.946C552.218,476.047 557.684,475.265 558.6,476.042C559.516,476.82 560.984,478.168 560.075,479.409C559.166,480.651 556.725,482.373 557.802,482.852C558.878,483.331 562.261,483.522 562.856,484.483C563.45,485.443 563.567,486.165 562.656,486.622C561.745,487.079 560.498,487.726 561.096,488.491C561.695,489.255 564.814,489.269 565.225,490.745C565.636,492.221 563.746,495.432 561.451,496.123C559.155,496.815 558.591,496.281 558.425,496.782C558.259,497.282 557.907,499.011 556.927,498.787C555.947,498.563 555.34,498.261 555.866,497.309C556.393,496.357 557.737,495.836 558.176,495.046C558.614,494.256 559.942,492.981 558.977,492.597C558.012,492.212 557.154,492.978 556.345,493.432C555.536,493.887 554.371,494.901 553.486,495.065C552.602,495.229 550.705,495.774 551.097,496.14C551.49,496.506 553.32,496.312 553.589,496.843C553.857,497.373 554.141,498.958 553.589,499.425C553.037,499.891 552.605,500.906 552.695,501.407C552.784,501.908 552.751,502.158 552.161,502.576C551.572,502.994 549.943,504.368 552.671,504.292ZM545.571,480.462C544.948,480.776 544.465,481.046 544.37,482.097C544.275,483.149 543.86,483.836 544.779,483.907C545.697,483.977 546.503,483.713 546.503,482.646C546.503,481.579 546.761,479.862 545.571,480.462Z"/>
            </g>
        </g>
    </g>
</svg>
